Linden Hill.ufo
<glyph name="exclam" format="1">
  <advance width="305"/>
  <unicode hex="0021"/>
  <outline>
    <contour>
      <point x="110" y="18"/>
      <point x="140" y="-10"/>
      <point x="152" y="-10" type="curve" smooth="yes"/>
      <point x="166" y="-10"/>
      <point x="195" y="18"/>
      <point x="195" y="33" type="curve" smooth="yes"/>
      <point x="195" y="45"/>
      <point x="170" y="76"/>
      <point x="153" y="76" type="curve" smooth="yes"/>
      <point x="143" y="76"/>
      <point x="110" y="48"/>
      <point x="110" y="34" type="curve" smooth="yes"/>
    </contour>
    <contour>
      <point x="111" y="565"/>
      <point x="117" y="337"/>
      <point x="129" y="188" type="curve"/>
      <point x="130" y="182"/>
      <point x="131" y="152"/>
      <point x="145" y="152" type="curve" smooth="yes"/>
      <point x="166" y="152"/>
      <point x="161" y="188"/>
      <point x="163" y="254" type="curve" smooth="yes"/>
      <point x="166" y="374"/>
      <point x="188" y="521"/>
      <point x="190" y="642" type="curve" smooth="yes"/>
      <point x="190" y="649"/>
      <point x="186" y="653"/>
      <point x="177" y="653" type="curve" smooth="yes"/>
      <point x="171" y="653"/>
      <point x="111" y="648"/>
      <point x="111" y="620" type="curve" smooth="yes"/>
    </contour>
  </outline>
</glyph>
<glyph name="quotedbl" format="1">
  <advance width="332"/>
  <unicode hex="0022"/>
  <outline>
    <contour>
      <point x="24" y="482"/>
      <point x="29" y="478"/>
      <point x="35" y="478" type="curve" smooth="yes"/>
      <point x="50" y="478"/>
      <point x="57" y="507"/>
      <point x="78" y="553" type="curve" smooth="yes"/>
      <point x="104" y="611"/>
      <point x="143" y="678"/>
      <point x="143" y="702" type="curve" smooth="yes"/>
      <point x="143" y="715"/>
      <point x="130" y="734"/>
      <point x="109" y="734" type="curve" smooth="yes"/>
      <point x="89" y="734"/>
      <point x="72" y="724"/>
      <point x="67" y="704" type="curve" smooth="yes"/>
      <point x="56" y="663"/>
      <point x="24" y="501"/>
      <point x="24" y="488" type="curve" smooth="yes"/>
    </contour>
    <contour>
      <point x="118" y="480"/>
      <point x="124" y="479"/>
      <point x="129" y="479" type="curve" smooth="yes"/>
      <point x="144" y="479"/>
      <point x="151" y="504"/>
      <point x="184" y="554" type="curve" smooth="yes"/>
      <point x="216" y="603"/>
      <point x="268" y="677"/>
      <point x="268" y="708" type="curve" smooth="yes"/>
      <point x="268" y="718"/>
      <point x="261" y="733"/>
      <point x="236" y="733" type="curve" smooth="yes"/>
      <point x="187" y="733"/>
      <point x="181" y="647"/>
      <point x="146" y="571" type="curve" smooth="yes"/>
      <point x="132" y="541"/>
      <point x="118" y="503"/>
      <point x="118" y="491" type="curve" smooth="yes"/>
    </contour>
  </outline>
</glyph>
<glyph name="dollar" format="1">
  <advance width="530"/>
  <unicode hex="0024"/>
  <outline>
    <contour>
      <point x="50" y="121"/>
      <point x="55" y="97"/>
      <point x="58" y="73" type="curve" smooth="yes"/>
      <point x="64" y="30"/>
      <point x="63" y="27"/>
      <point x="87" y="17" type="curve" smooth="yes"/>
      <point x="140" y="-6"/>
      <point x="251" y="-8"/>
      <point x="251" y="-8" type="curve"/>
      <point x="251" y="-167" type="line"/>
      <point x="282" y="-167" type="line"/>
      <point x="282" y="-7" type="line"/>
      <point x="282" y="-7"/>
      <point x="471" y="11"/>
      <point x="471" y="164" type="curve" smooth="yes"/>
      <point x="471" y="262"/>
      <point x="387" y="288"/>
      <point x="283" y="341" type="curve"/>
      <point x="283" y="567" type="line"/>
      <point x="283" y="567"/>
      <point x="359" y="564"/>
      <point x="398" y="510" type="curve"/>
      <point x="409" y="496"/>
      <point x="418" y="481"/>
      <point x="431" y="481" type="curve" smooth="yes"/>
      <point x="437" y="481"/>
      <point x="438" y="485"/>
      <point x="438" y="490" type="curve" smooth="yes"/>
      <point x="438" y="498" type="line" smooth="yes"/>
      <point x="438" y="500"/>
      <point x="435" y="518"/>
      <point x="435" y="523" type="curve"/>
      <point x="427" y="574"/>
      <point x="429" y="587"/>
      <point x="417" y="587" type="curve" smooth="yes"/>
      <point x="416" y="587"/>
      <point x="393" y="580"/>
      <point x="387" y="580" type="curve" smooth="yes"/>
      <point x="379" y="580"/>
      <point x="386" y="583"/>
      <point x="283" y="595" type="curve"/>
      <point x="283" y="675" type="line"/>
      <point x="252" y="675" type="line"/>
      <point x="252" y="595" type="line"/>
      <point x="252" y="595"/>
      <point x="75" y="581"/>
      <point x="75" y="441" type="curve" smooth="yes"/>
      <point x="75" y="352"/>
      <point x="196" y="302"/>
      <point x="251" y="275" type="curve"/>
      <point x="251" y="22" type="line"/>
      <point x="241" y="22"/>
      <point x="220" y="24"/>
      <point x="201" y="28" type="curve" smooth="yes"/>
      <point x="55" y="62"/>
      <point x="94" y="141"/>
      <point x="61" y="141" type="curve" smooth="yes"/>
      <point x="56" y="141"/>
      <point x="50" y="138"/>
      <point x="50" y="126" type="curve" smooth="yes"/>
    </contour>
    <contour>
      <point x="146" y="559"/>
      <point x="252" y="567"/>
      <point x="252" y="567" type="curve"/>
      <point x="252" y="352" type="line"/>
      <point x="252" y="352"/>
      <point x="146" y="400"/>
      <point x="146" y="470" type="curve" smooth="yes"/>
    </contour>
    <contour>
      <point x="282" y="264" type="line"/>
      <point x="282" y="264"/>
      <point x="403" y="219"/>
      <point x="403" y="139" type="curve" smooth="yes"/>
      <point x="403" y="96"/>
      <point x="368" y="59"/>
      <point x="347" y="46" type="curve" smooth="yes"/>
      <point x="315" y="25"/>
      <point x="282" y="23"/>
      <point x="282" y="23" type="curve"/>
    </contour>
  </outline>
</glyph>
<glyph name="percent" format="1">
  <advance width="781"/>
  <unicode hex="0025"/>
  <outline>
    <contour>
      <point x="44" y="-39"/>
      <point x="51" y="-40"/>
      <point x="61" y="-40" type="curve" smooth="yes"/>
      <point x="92" y="-40" type="line"/>
      <point x="719" y="633" type="line" smooth="yes"/>
      <point x="728" y="643"/>
      <point x="737" y="654"/>
      <point x="737" y="661" type="curve" smooth="yes"/>
      <point x="737" y="665"/>
      <point x="733" y="666"/>
      <point x="729" y="666" type="curve" smooth="yes"/>
      <point x="701" y="666"/>
      <point x="588" y="610"/>
      <point x="438" y="610" type="curve" smooth="yes"/>
      <point x="323" y="610"/>
      <point x="321" y="626"/>
      <point x="276" y="626" type="curve" smooth="yes"/>
      <point x="190" y="626"/>
      <point x="65" y="543"/>
      <point x="65" y="423" type="curve" smooth="yes"/>
      <point x="65" y="361"/>
      <point x="102" y="306"/>
      <point x="182" y="306" type="curve" smooth="yes"/>
      <point x="285" y="306"/>
      <point x="387" y="398"/>
      <point x="387" y="510" type="curve" smooth="yes"/>
      <point x="387" y="541"/>
      <point x="380" y="564"/>
      <point x="368" y="583" type="curve"/>
      <point x="393" y="580"/>
      <point x="418" y="577"/>
      <point x="440" y="577" type="curve" smooth="yes"/>
      <point x="554" y="577"/>
      <point x="632" y="612"/>
      <point x="654" y="623" type="curve"/>
      <point x="53" y="-18" type="line" smooth="yes"/>
      <point x="46" y="-26"/>
      <point x="44" y="-30"/>
      <point x="44" y="-33" type="curve" smooth="yes"/>
    </contour>
    <contour>
      <point x="108" y="468"/>
      <point x="223" y="586"/>
      <point x="290" y="586" type="curve" smooth="yes"/>
      <point x="318" y="586"/>
      <point x="339" y="568"/>
      <point x="339" y="542" type="curve" smooth="yes"/>
      <point x="339" y="474"/>
      <point x="250" y="347"/>
      <point x="159" y="347" type="curve" smooth="yes"/>
      <point x="123" y="347"/>
      <point x="108" y="371"/>
      <point x="108" y="397" type="curve" smooth="yes"/>
    </contour>
    <contour>
      <point x="382" y="45"/>
      <point x="420" y="-11"/>
      <point x="500" y="-11" type="curve" smooth="yes"/>
      <point x="603" y="-11"/>
      <point x="704" y="81"/>
      <point x="704" y="193" type="curve" smooth="yes"/>
      <point x="704" y="275"/>
      <point x="654" y="310"/>
      <point x="593" y="310" type="curve" smooth="yes"/>
      <point x="507" y="310"/>
      <point x="382" y="228"/>
      <point x="382" y="107" type="curve" smooth="yes"/>
    </contour>
    <contour>
      <point x="425" y="152"/>
      <point x="540" y="270"/>
      <point x="607" y="270" type="curve" smooth="yes"/>
      <point x="635" y="270"/>
      <point x="657" y="252"/>
      <point x="657" y="226" type="curve" smooth="yes"/>
      <point x="657" y="158"/>
      <point x="568" y="30"/>
      <point x="477" y="30" type="curve" smooth="yes"/>
      <point x="441" y="30"/>
      <point x="425" y="55"/>
      <point x="425" y="81" type="curve" smooth="yes"/>
    </contour>
  </outline>
</glyph>
<glyph name="ampersand" format="1">
  <advance width="850"/>
  <unicode hex="0026"/>
  <outline>
    <contour>
      <point x="44" y="60"/>
      <point x="199" y="-20"/>
      <point x="351" y="-20" type="curve" smooth="yes"/>
      <point x="504" y="-20"/>
      <point x="563" y="53"/>
      <point x="563" y="53" type="curve" smooth="yes"/>
      <point x="563" y="53"/>
      <point x="655" y="-15"/>
      <point x="707" y="-15" type="curve" smooth="yes"/>
      <point x="775" y="-15"/>
      <point x="826" y="22"/>
      <point x="826" y="62" type="curve" smooth="yes"/>
      <point x="826" y="70"/>
      <point x="823" y="73"/>
      <point x="816" y="73" type="curve" smooth="yes"/>
      <point x="803" y="73"/>
      <point x="788" y="62"/>
      <point x="751" y="62" type="curve" smooth="yes"/>
      <point x="700" y="62"/>
      <point x="664" y="92"/>
      <point x="621" y="121" type="curve"/>
      <point x="621" y="121"/>
      <point x="693" y="227"/>
      <point x="693" y="328" type="curve" smooth="yes"/>
      <point x="693" y="422"/>
      <point x="680" y="421"/>
      <point x="680" y="432" type="curve" smooth="yes"/>
      <point x="680" y="446"/>
      <point x="704" y="443"/>
      <point x="773" y="444" type="curve"/>
      <point x="772" y="483" type="line"/>
      <point x="505" y="483" type="line"/>
      <point x="507" y="444" type="line"/>
      <point x="619" y="443"/>
      <point x="627" y="445"/>
      <point x="637" y="400" type="curve" smooth="yes"/>
      <point x="644" y="369"/>
      <point x="644" y="360"/>
      <point x="644" y="331" type="curve" smooth="yes"/>
      <point x="644" y="224"/>
      <point x="586" y="150"/>
      <point x="584" y="146" type="curve"/>
      <point x="557" y="167" type="line" smooth="yes"/>
      <point x="526" y="191"/>
      <point x="482" y="221"/>
      <point x="373" y="323" type="curve" smooth="yes"/>
      <point x="238" y="448"/>
      <point x="185" y="498"/>
      <point x="185" y="561" type="curve" smooth="yes"/>
      <point x="185" y="604"/>
      <point x="226" y="635"/>
      <point x="268" y="635" type="curve" smooth="yes"/>
      <point x="311" y="635"/>
      <point x="352" y="603"/>
      <point x="352" y="557" type="curve" smooth="yes"/>
      <point x="352" y="503"/>
      <point x="286" y="509"/>
      <point x="286" y="494" type="curve" smooth="yes"/>
      <point x="286" y="480"/>
      <point x="320" y="470"/>
      <point x="342" y="470" type="curve" smooth="yes"/>
      <point x="397" y="470"/>
      <point x="427" y="521"/>
      <point x="427" y="562" type="curve" smooth="yes"/>
      <point x="427" y="622"/>
      <point x="356" y="673"/>
      <point x="278" y="673" type="curve" smooth="yes"/>
      <point x="169" y="673"/>
      <point x="107" y="602"/>
      <point x="107" y="526" type="curve" smooth="yes"/>
      <point x="107" y="461"/>
      <point x="171" y="396"/>
      <point x="176" y="392" type="curve"/>
      <point x="173" y="391"/>
      <point x="44" y="361"/>
      <point x="44" y="225" type="curve" smooth="yes"/>
    </contour>
    <contour>
      <point x="137" y="316"/>
      <point x="170" y="356"/>
      <point x="202" y="364" type="curve"/>
      <point x="291" y="270"/>
      <point x="388" y="182"/>
      <point x="439" y="143" type="curve" smooth="yes"/>
      <point x="525" y="80" type="line"/>
      <point x="522" y="79"/>
      <point x="484" y="48"/>
      <point x="397" y="48" type="curve" smooth="yes"/>
      <point x="283" y="48"/>
      <point x="137" y="127"/>
      <point x="137" y="256" type="curve" smooth="yes"/>
    </contour>
  </outline>
</glyph>
<glyph name="quotesingle" format="1">
  <advance width="224"/>
  <unicode hex="0027"/>
  <outline>
    <contour>
      <point x="24" y="482"/>
      <point x="26" y="475"/>
      <point x="36" y="475" type="curve" smooth="yes"/>
      <point x="52" y="475"/>
      <point x="56" y="495"/>
      <point x="87" y="552" type="curve" smooth="yes"/>
      <point x="113" y="601"/>
      <point x="160" y="669"/>
      <point x="160" y="701" type="curve" smooth="yes"/>
      <point x="160" y="711"/>
      <point x="153" y="734"/>
      <point x="130" y="734" type="curve" smooth="yes"/>
      <point x="79" y="734"/>
      <point x="77" y="652"/>
      <point x="48" y="567" type="curve" smooth="yes"/>
      <point x="40" y="545"/>
      <point x="24" y="501"/>
      <point x="24" y="487" type="curve" smooth="yes"/>
    </contour>
  </outline>
</glyph>
<glyph name="parenleft" format="1">
  <advance width="313"/>
  <unicode hex="0028"/>
  <outline>
    <contour>
      <point x="44" y="-45"/>
      <point x="268" y="-221"/>
      <point x="268" y="-221" type="curve"/>
      <point x="286" y="-200" type="line"/>
      <point x="286" y="-200"/>
      <point x="111" y="-67"/>
      <point x="111" y="233" type="curve" smooth="yes"/>
      <point x="111" y="523"/>
      <point x="296" y="667"/>
      <point x="296" y="667" type="curve"/>
      <point x="280" y="686" type="line"/>
      <point x="280" y="686"/>
      <point x="44" y="548"/>
      <point x="44" y="229" type="curve" smooth="yes"/>
    </contour>
  </outline>
</glyph>
<glyph name="parenright" format="1">
  <advance width="313"/>
  <unicode hex="0029"/>
  <outline>
    <contour>
      <point x="17" y="667" type="line"/>
      <point x="17" y="667"/>
      <point x="202" y="523"/>
      <point x="202" y="233" type="curve" smooth="yes"/>
      <point x="202" y="-67"/>
      <point x="28" y="-200"/>
      <point x="28" y="-200" type="curve"/>
      <point x="45" y="-221" type="line"/>
      <point x="45" y="-221"/>
      <point x="269" y="-45"/>
      <point x="269" y="229" type="curve" smooth="yes"/>
      <point x="269" y="548"/>
      <point x="33" y="686"/>
      <point x="33" y="686" type="curve"/>
    </contour>
  </outline>
</glyph>
<glyph name="asterisk" format="1">
  <advance width="455"/>
  <unicode hex="002A"/>
  <outline>
    <contour>
      <point x="44" y="357"/>
      <point x="55" y="334"/>
      <point x="80" y="334" type="curve" smooth="yes"/>
      <point x="126" y="334"/>
      <point x="196" y="424"/>
      <point x="210" y="424" type="curve" smooth="yes"/>
      <point x="212" y="424"/>
      <point x="212" y="422"/>
      <point x="212" y="420" type="curve" smooth="yes"/>
      <point x="212" y="403"/>
      <point x="183" y="318"/>
      <point x="183" y="295" type="curve" smooth="yes"/>
      <point x="183" y="274"/>
      <point x="205" y="256"/>
      <point x="226" y="256" type="curve" smooth="yes"/>
      <point x="247" y="256"/>
      <point x="267" y="273"/>
      <point x="267" y="298" type="curve" smooth="yes"/>
      <point x="267" y="322"/>
      <point x="240" y="385"/>
      <point x="240" y="411" type="curve" smooth="yes"/>
      <point x="240" y="421"/>
      <point x="244" y="422"/>
      <point x="245" y="422" type="curve" smooth="yes"/>
      <point x="258" y="422"/>
      <point x="325" y="331"/>
      <point x="370" y="331" type="curve" smooth="yes"/>
      <point x="392" y="331"/>
      <point x="402" y="349"/>
      <point x="402" y="367" type="curve" smooth="yes"/>
      <point x="402" y="430"/>
      <point x="262" y="428"/>
      <point x="262" y="451" type="curve" smooth="yes"/>
      <point x="262" y="471"/>
      <point x="411" y="465"/>
      <point x="411" y="534" type="curve" smooth="yes"/>
      <point x="411" y="552"/>
      <point x="395" y="566"/>
      <point x="372" y="566" type="curve" smooth="yes"/>
      <point x="330" y="566"/>
      <point x="270" y="478"/>
      <point x="249" y="478" type="curve" smooth="yes"/>
      <point x="245" y="478"/>
      <point x="244" y="480"/>
      <point x="244" y="485" type="curve" smooth="yes"/>
      <point x="244" y="507"/>
      <point x="273" y="582"/>
      <point x="273" y="604" type="curve" smooth="yes"/>
      <point x="273" y="647"/>
      <point x="249" y="659"/>
      <point x="229" y="659" type="curve" smooth="yes"/>
      <point x="207" y="659"/>
      <point x="185" y="641"/>
      <point x="185" y="610" type="curve" smooth="yes"/>
      <point x="185" y="594"/>
      <point x="216" y="517"/>
      <point x="216" y="491" type="curve" smooth="yes"/>
      <point x="216" y="486"/>
      <point x="216" y="482"/>
      <point x="212" y="482" type="curve" smooth="yes"/>
      <point x="192" y="482"/>
      <point x="118" y="570"/>
      <point x="84" y="570" type="curve" smooth="yes"/>
      <point x="76" y="570"/>
      <point x="45" y="561"/>
      <point x="45" y="530" type="curve" smooth="yes"/>
      <point x="45" y="464"/>
      <point x="195" y="477"/>
      <point x="195" y="451" type="curve" smooth="yes"/>
      <point x="195" y="434"/>
      <point x="44" y="424"/>
      <point x="44" y="371" type="curve" smooth="yes"/>
    </contour>
  </outline>
</glyph>
<glyph name="plus" format="1">
  <advance width="763"/>
  <unicode hex="002B"/>
  <outline>
    <contour>
      <point x="80" y="206" type="line"/>
      <point x="329" y="206"/>
      <point x="357" y="210"/>
      <point x="357" y="210" type="curve" smooth="yes"/>
      <point x="357" y="210"/>
      <point x="352" y="180"/>
      <point x="352" y="-67" type="curve"/>
      <point x="411" y="-67" type="line"/>
      <point x="411" y="180"/>
      <point x="406" y="210"/>
      <point x="406" y="210" type="curve" smooth="yes"/>
      <point x="406" y="210"/>
      <point x="436" y="206"/>
      <point x="683" y="206" type="curve"/>
      <point x="683" y="264" type="line"/>
      <point x="436" y="264"/>
      <point x="406" y="260"/>
      <point x="406" y="260" type="curve" smooth="yes"/>
      <point x="406" y="260"/>
      <point x="411" y="273"/>
      <point x="411" y="537" type="curve"/>
      <point x="352" y="537" type="line"/>
      <point x="352" y="273"/>
      <point x="357" y="260"/>
      <point x="357" y="260" type="curve" smooth="yes"/>
      <point x="357" y="260"/>
      <point x="329" y="264"/>
      <point x="80" y="264" type="curve"/>
    </contour>
  </outline>
</glyph>
<glyph name="period" format="1">
  <advance width="224"/>
  <unicode hex="002E"/>
  <outline>
    <contour>
      <point x="62" y="23"/>
      <point x="95" y="-10"/>
      <point x="107" y="-10" type="curve" smooth="yes"/>
      <point x="122" y="-10"/>
      <point x="157" y="19"/>
      <point x="157" y="36" type="curve" smooth="yes"/>
      <point x="157" y="48"/>
      <point x="130" y="86"/>
      <point x="110" y="86" type="curve" smooth="yes"/>
      <point x="99" y="86"/>
      <point x="62" y="56"/>
      <point x="62" y="41" type="curve" smooth="yes"/>
    </contour>
  </outline>
</glyph>
<glyph name="slash" format="1">
  <advance width="442"/>
  <unicode hex="002F"/>
  <outline>
    <contour>
      <point x="17" y="-231" type="line"/>
      <point x="64" y="-231" type="line"/>
      <point x="405" y="706" type="line"/>
      <point x="358" y="706" type="line"/>
    </contour>
  </outline>
</glyph>
<glyph name="one" format="1">
  <advance width="338"/>
  <unicode hex="0031"/>
  <outline>
    <contour>
      <point x="37" y="0" type="line"/>
      <point x="301" y="0" type="line"/>
      <point x="301" y="32" type="line"/>
      <point x="247" y="32" type="line" smooth="yes"/>
      <point x="212" y="32"/>
      <point x="202" y="35"/>
      <point x="202" y="62" type="curve" smooth="yes"/>
      <point x="202" y="215" type="line" smooth="yes"/>
      <point x="202" y="310"/>
      <point x="206" y="414"/>
      <point x="206" y="414" type="curve" smooth="yes"/>
      <point x="184" y="414" type="line"/>
      <point x="178" y="395"/>
      <point x="180" y="385"/>
      <point x="143" y="385" type="curve" smooth="yes"/>
      <point x="39" y="385" type="line"/>
      <point x="39" y="354" type="line"/>
      <point x="98" y="354" type="line" smooth="yes"/>
      <point x="132" y="354"/>
      <point x="132" y="337"/>
      <point x="132" y="323" type="curve" smooth="yes"/>
      <point x="132" y="63" type="line" smooth="yes"/>
      <point x="132" y="35"/>
      <point x="131" y="32"/>
      <point x="75" y="32" type="curve" smooth="yes"/>
      <point x="37" y="32" type="line"/>
    </contour>
  </outline>
</glyph>
<glyph name="four" format="1">
  <advance width="600"/>
  <unicode hex="0034"/>
  <outline>
    <contour>
      <point x="37" y="0"/>
      <point x="44" y="0"/>
      <point x="51" y="0" type="curve" smooth="yes"/>
      <point x="375" y="0" type="line"/>
      <point x="375" y="-264" type="line"/>
      <point x="446" y="-234" type="line"/>
      <point x="446" y="0" type="line"/>
      <point x="542" y="0" type="line"/>
      <point x="563" y="62" type="line"/>
      <point x="446" y="62" type="line"/>
      <point x="446" y="382" type="line" smooth="yes"/>
      <point x="446" y="395"/>
      <point x="444" y="406"/>
      <point x="438" y="406" type="curve" smooth="yes"/>
      <point x="435" y="406"/>
      <point x="431" y="402"/>
      <point x="424" y="395" type="curve" smooth="yes"/>
      <point x="119" y="92" type="line" smooth="yes"/>
      <point x="62" y="35"/>
      <point x="37" y="9"/>
      <point x="37" y="7" type="curve" smooth="yes"/>
    </contour>
    <contour>
      <point x="141" y="62" type="line"/>
      <point x="375" y="295" type="line"/>
      <point x="375" y="62" type="line"/>
    </contour>
  </outline>
</glyph>
<glyph name="nine" format="1">
  <advance width="515"/>
  <unicode hex="0039"/>
  <outline>
    <contour>
      <point x="54" y="131"/>
      <point x="82" y="-7"/>
      <point x="236" y="-7" type="curve" smooth="yes"/>
      <point x="334" y="-7"/>
      <point x="377" y="67"/>
      <point x="377" y="67" type="curve"/>
      <point x="377" y="-46"/>
      <point x="301" y="-224"/>
      <point x="148" y="-224" type="curve" smooth="yes"/>
      <point x="129" y="-224"/>
      <point x="116" y="-219"/>
      <point x="102" y="-219" type="curve" smooth="yes"/>
      <point x="86" y="-219"/>
      <point x="76" y="-222"/>
      <point x="76" y="-236" type="curve" smooth="yes"/>
      <point x="76" y="-243"/>
      <point x="100" y="-259"/>
      <point x="160" y="-259" type="curve" smooth="yes"/>
      <point x="333" y="-259"/>
      <point x="461" y="-77"/>
      <point x="461" y="119" type="curve" smooth="yes"/>
      <point x="461" y="302"/>
      <point x="374" y="400"/>
      <point x="242" y="400" type="curve" smooth="yes"/>
      <point x="137" y="400"/>
      <point x="54" y="324"/>
      <point x="54" y="204" type="curve" smooth="yes"/>
    </contour>
    <contour>
      <point x="128" y="329"/>
      <point x="197" y="368"/>
      <point x="231" y="368" type="curve" smooth="yes"/>
      <point x="311" y="368"/>
      <point x="377" y="261"/>
      <point x="377" y="157" type="curve" smooth="yes"/>
      <point x="377" y="101"/>
      <point x="343" y="48"/>
      <point x="275" y="48" type="curve" smooth="yes"/>
      <point x="150" y="48"/>
      <point x="128" y="185"/>
      <point x="128" y="229" type="curve" smooth="yes"/>
    </contour>
  </outline>
</glyph>
<glyph name="colon" format="1">
  <advance width="264"/>
  <unicode hex="003A"/>
  <outline>
    <contour>
      <point x="84" y="25"/>
      <point x="113" y="-9"/>
      <point x="130" y="-9" type="curve" smooth="yes"/>
      <point x="142" y="-9"/>
      <point x="180" y="17"/>
      <point x="180" y="37" type="curve" smooth="yes"/>
      <point x="180" y="48"/>
      <point x="150" y="85"/>
      <point x="135" y="85" type="curve" smooth="yes"/>
      <point x="117" y="85"/>
      <point x="84" y="52"/>
      <point x="84" y="40" type="curve" smooth="yes"/>
    </contour>
    <contour>
      <point x="84" y="335"/>
      <point x="119" y="303"/>
      <point x="133" y="303" type="curve" smooth="yes"/>
      <point x="149" y="303"/>
      <point x="180" y="338"/>
      <point x="180" y="352" type="curve" smooth="yes"/>
      <point x="180" y="366"/>
      <point x="148" y="398"/>
      <point x="131" y="398" type="curve" smooth="yes"/>
      <point x="119" y="398"/>
      <point x="84" y="369"/>
      <point x="84" y="349" type="curve" smooth="yes"/>
    </contour>
  </outline>
</glyph>
<glyph name="semicolon" format="1">
  <advance width="264"/>
  <unicode hex="003B"/>
  <outline>
    <contour>
      <point x="57" y="-133"/>
      <point x="59" y="-146"/>
      <point x="72" y="-146" type="curve" smooth="yes"/>
      <point x="83" y="-146"/>
      <point x="113" y="-140"/>
      <point x="139" y="-115" type="curve" smooth="yes"/>
      <point x="163" y="-92"/>
      <point x="184" y="-43"/>
      <point x="184" y="-2" type="curve" smooth="yes"/>
      <point x="184" y="62"/>
      <point x="130" y="78"/>
      <point x="124" y="78" type="curve" smooth="yes"/>
      <point x="116" y="78"/>
      <point x="82" y="45"/>
      <point x="82" y="30" type="curve" smooth="yes"/>
      <point x="82" y="12"/>
      <point x="125" y="16"/>
      <point x="125" y="-32" type="curve" smooth="yes"/>
      <point x="125" y="-105"/>
      <point x="57" y="-111"/>
      <point x="57" y="-130" type="curve" smooth="yes"/>
    </contour>
    <contour>
      <point x="84" y="335"/>
      <point x="119" y="303"/>
      <point x="133" y="303" type="curve" smooth="yes"/>
      <point x="149" y="303"/>
      <point x="180" y="338"/>
      <point x="180" y="352" type="curve" smooth="yes"/>
      <point x="180" y="366"/>
      <point x="148" y="398"/>
      <point x="131" y="398" type="curve" smooth="yes"/>
      <point x="119" y="398"/>
      <point x="84" y="369"/>
      <point x="84" y="349" type="curve" smooth="yes"/>
    </contour>
  </outline>
</glyph>
<glyph name="equal" format="1">
  <advance width="784"/>
  <unicode hex="003D"/>
  <outline>
    <contour>
      <point x="90" y="122" type="line"/>
      <point x="694" y="122" type="line"/>
      <point x="694" y="181" type="line"/>
      <point x="90" y="181" type="line"/>
    </contour>
    <contour>
      <point x="90" y="289" type="line"/>
      <point x="694" y="289" type="line"/>
      <point x="694" y="348" type="line"/>
      <point x="90" y="348" type="line"/>
    </contour>
  </outline>
</glyph>
<glyph name="greater" format="1">
  <advance width="761"/>
  <unicode hex="003E"/>
  <outline>
    <contour>
      <point x="59" y="-8" type="line"/>
      <point x="59" y="-75" type="line"/>
      <point x="702" y="233" type="line"/>
      <point x="702" y="255" type="line"/>
      <point x="59" y="563" type="line"/>
      <point x="59" y="496" type="line"/>
      <point x="598" y="244" type="line"/>
    </contour>
  </outline>
</glyph>
<glyph name="question" format="1">
  <advance width="397"/>
  <unicode hex="003F"/>
  <outline>
    <contour>
      <point x="80" y="595"/>
      <point x="84" y="592"/>
      <point x="93" y="592" type="curve" smooth="yes"/>
      <point x="121" y="592"/>
      <point x="139" y="593"/>
      <point x="155" y="593" type="curve" smooth="yes"/>
      <point x="221" y="593"/>
      <point x="284" y="547"/>
      <point x="284" y="511" type="curve" smooth="yes"/>
      <point x="284" y="410"/>
      <point x="108" y="370"/>
      <point x="108" y="257" type="curve" smooth="yes"/>
      <point x="108" y="176"/>
      <point x="173" y="130"/>
      <point x="198" y="130" type="curve" smooth="yes"/>
      <point x="207" y="130"/>
      <point x="213" y="136"/>
      <point x="213" y="143" type="curve" smooth="yes"/>
      <point x="213" y="162"/>
      <point x="166" y="176"/>
      <point x="166" y="229" type="curve" smooth="yes"/>
      <point x="166" y="283"/>
      <point x="241" y="316"/>
      <point x="309" y="396" type="curve" smooth="yes"/>
      <point x="331" y="422"/>
      <point x="337" y="442"/>
      <point x="337" y="474" type="curve" smooth="yes"/>
      <point x="337" y="574"/>
      <point x="211" y="667"/>
      <point x="169" y="667" type="curve" smooth="yes"/>
      <point x="125" y="667"/>
      <point x="80" y="620"/>
      <point x="80" y="604" type="curve" smooth="yes"/>
    </contour>
    <contour>
      <point x="142" y="26"/>
      <point x="174" y="-9"/>
      <point x="189" y="-9" type="curve" smooth="yes"/>
      <point x="207" y="-9"/>
      <point x="238" y="26"/>
      <point x="238" y="38" type="curve" smooth="yes"/>
      <point x="238" y="53"/>
      <point x="208" y="85"/>
      <point x="191" y="85" type="curve" smooth="yes"/>
      <point x="178" y="85"/>
      <point x="142" y="57"/>
      <point x="142" y="38" type="curve" smooth="yes"/>
    </contour>
  </outline>
</glyph>
<glyph name="at" format="1">
  <advance width="756"/>
  <unicode hex="0040"/>
  <outline>
    <contour>
      <point x="64" y="52"/>
      <point x="165" y="-92"/>
      <point x="376" y="-92" type="curve" smooth="yes"/>
      <point x="537" y="-92"/>
      <point x="697" y="2"/>
      <point x="697" y="214" type="curve" smooth="yes"/>
      <point x="697" y="412"/>
      <point x="553" y="480"/>
      <point x="532" y="480" type="curve" smooth="yes"/>
      <point x="524" y="480"/>
      <point x="522" y="472"/>
      <point x="522" y="469" type="curve" smooth="yes"/>
      <point x="522" y="450"/>
      <point x="658" y="399"/>
      <point x="658" y="214" type="curve" smooth="yes"/>
      <point x="658" y="27"/>
      <point x="526" y="-52"/>
      <point x="393" y="-52" type="curve" smooth="yes"/>
      <point x="211" y="-52"/>
      <point x="132" y="76"/>
      <point x="132" y="203" type="curve" smooth="yes"/>
      <point x="132" y="327"/>
      <point x="208" y="450"/>
      <point x="337" y="450" type="curve" smooth="yes"/>
      <point x="405" y="450"/>
      <point x="426" y="391"/>
      <point x="426" y="365" type="curve" smooth="yes"/>
      <point x="426" y="286" type="line"/>
      <point x="313" y="286"/>
      <point x="225" y="215"/>
      <point x="225" y="133" type="curve" smooth="yes"/>
      <point x="225" y="79"/>
      <point x="276" y="58"/>
      <point x="318" y="58" type="curve" smooth="yes"/>
      <point x="362" y="58"/>
      <point x="409" y="87"/>
      <point x="435" y="122" type="curve"/>
      <point x="456" y="96"/>
      <point x="467" y="76"/>
      <point x="502" y="51" type="curve"/>
      <point x="505" y="52"/>
      <point x="538" y="72"/>
      <point x="561" y="87" type="curve"/>
      <point x="568" y="91"/>
      <point x="571" y="95"/>
      <point x="571" y="98" type="curve" smooth="yes"/>
      <point x="571" y="101"/>
      <point x="568" y="104"/>
      <point x="561" y="106" type="curve" smooth="yes"/>
      <point x="503" y="122"/>
      <point x="497" y="154"/>
      <point x="497" y="197" type="curve" smooth="yes"/>
      <point x="497" y="340" type="line" smooth="yes"/>
      <point x="497" y="420"/>
      <point x="440" y="486"/>
      <point x="357" y="486" type="curve" smooth="yes"/>
      <point x="165" y="486"/>
      <point x="64" y="342"/>
      <point x="64" y="197" type="curve" smooth="yes"/>
    </contour>
    <contour>
      <point x="296" y="207"/>
      <point x="343" y="259"/>
      <point x="426" y="259" type="curve"/>
      <point x="426" y="167" type="line" smooth="yes"/>
      <point x="426" y="145"/>
      <point x="414" y="111"/>
      <point x="355" y="111" type="curve" smooth="yes"/>
      <point x="311" y="111"/>
      <point x="296" y="136"/>
      <point x="296" y="163" type="curve" smooth="yes"/>
    </contour>
  </outline>
</glyph>
<glyph name="B" format="1">
  <advance width="558"/>
  <unicode hex="0042"/>
  <outline>
    <contour>
      <point x="27" y="627" type="line"/>
      <point x="55" y="627" type="line" smooth="yes"/>
      <point x="91" y="627"/>
      <point x="107" y="625"/>
      <point x="107" y="591" type="curve" smooth="yes"/>
      <point x="107" y="68" type="line" smooth="yes"/>
      <point x="107" y="42"/>
      <point x="98" y="39"/>
      <point x="65" y="39" type="curve" smooth="yes"/>
      <point x="35" y="39" type="line"/>
      <point x="35" y="0" type="line"/>
      <point x="177" y="0" type="line" smooth="yes"/>
      <point x="288" y="0"/>
      <point x="402" y="3"/>
      <point x="464" y="59" type="curve" smooth="yes"/>
      <point x="496" y="88"/>
      <point x="509" y="130"/>
      <point x="509" y="172" type="curve" smooth="yes"/>
      <point x="509" y="248"/>
      <point x="469" y="337"/>
      <point x="357" y="362" type="curve"/>
      <point x="419" y="380"/>
      <point x="485" y="432"/>
      <point x="485" y="503" type="curve" smooth="yes"/>
      <point x="485" y="579"/>
      <point x="433" y="667"/>
      <point x="250" y="667" type="curve" smooth="yes"/>
      <point x="29" y="667" type="line"/>
    </contour>
    <contour>
      <point x="186" y="344" type="line"/>
      <point x="271" y="344"/>
      <point x="414" y="319"/>
      <point x="414" y="179" type="curve" smooth="yes"/>
      <point x="414" y="125"/>
      <point x="394" y="44"/>
      <point x="253" y="44" type="curve" smooth="yes"/>
      <point x="202" y="44"/>
      <point x="188" y="48"/>
      <point x="188" y="76" type="curve"/>
    </contour>
    <contour>
      <point x="188" y="373" type="line"/>
      <point x="188" y="600" type="line" smooth="yes"/>
      <point x="188" y="615"/>
      <point x="195" y="623"/>
      <point x="218" y="623" type="curve" smooth="yes"/>
      <point x="349" y="623"/>
      <point x="392" y="544"/>
      <point x="392" y="491" type="curve" smooth="yes"/>
      <point x="392" y="441"/>
      <point x="354" y="373"/>
      <point x="286" y="373" type="curve" smooth="yes"/>
    </contour>
  </outline>
</glyph>
<glyph name="F" format="1">
  <advance width="594"/>
  <unicode hex="0046"/>
  <outline>
    <contour>
      <point x="27" y="667" type="line"/>
      <point x="28" y="627" type="line"/>
      <point x="123" y="627"/>
      <point x="124" y="626"/>
      <point x="124" y="584" type="curve" smooth="yes"/>
      <point x="124" y="77" type="line" smooth="yes"/>
      <point x="124" y="42"/>
      <point x="120" y="39"/>
      <point x="74" y="39" type="curve" smooth="yes"/>
      <point x="45" y="39" type="line"/>
      <point x="45" y="0" type="line"/>
      <point x="302" y="0" type="line"/>
      <point x="302" y="39" type="line"/>
      <point x="235" y="39" type="line" smooth="yes"/>
      <point x="209" y="39"/>
      <point x="205" y="52"/>
      <point x="205" y="87" type="curve" smooth="yes"/>
      <point x="205" y="323" type="line" smooth="yes"/>
      <point x="205" y="349"/>
      <point x="207" y="354"/>
      <point x="241" y="354" type="curve" smooth="yes"/>
      <point x="391" y="354" type="line" smooth="yes"/>
      <point x="424" y="354"/>
      <point x="427" y="354"/>
      <point x="427" y="297" type="curve" smooth="yes"/>
      <point x="427" y="246" type="line"/>
      <point x="464" y="246" type="line"/>
      <point x="464" y="485" type="line"/>
      <point x="427" y="485" type="line"/>
      <point x="427" y="446" type="line" smooth="yes"/>
      <point x="427" y="401"/>
      <point x="424" y="398"/>
      <point x="389" y="398" type="curve" smooth="yes"/>
      <point x="238" y="398" type="line" smooth="yes"/>
      <point x="206" y="398"/>
      <point x="205" y="401"/>
      <point x="205" y="438" type="curve" smooth="yes"/>
      <point x="205" y="577" type="line" smooth="yes"/>
      <point x="205" y="622"/>
      <point x="208" y="624"/>
      <point x="263" y="624" type="curve" smooth="yes"/>
      <point x="433" y="624" type="line" smooth="yes"/>
      <point x="454" y="624"/>
      <point x="472" y="624"/>
      <point x="482" y="623" type="curve"/>
      <point x="496" y="621"/>
      <point x="502" y="611"/>
      <point x="506" y="508" type="curve"/>
      <point x="545" y="510" type="line"/>
      <point x="542" y="567"/>
      <point x="541" y="610"/>
      <point x="540" y="667" type="curve"/>
    </contour>
  </outline>
</glyph>
<glyph name="J" format="1">
  <advance width="305"/>
  <unicode hex="004A"/>
  <outline>
    <contour>
      <point x="-76" y="-232"/>
      <point x="-39" y="-258"/>
      <point x="2" y="-258" type="curve" smooth="yes"/>
      <point x="28" y="-258"/>
      <point x="49" y="-252"/>
      <point x="69" y="-242" type="curve" smooth="yes"/>
      <point x="107" y="-222"/>
      <point x="158" y="-170"/>
      <point x="175" y="-141" type="curve" smooth="yes"/>
      <point x="195" y="-108"/>
      <point x="201" y="-70"/>
      <point x="201" y="-2" type="curve" smooth="yes"/>
      <point x="201" y="581" type="line" smooth="yes"/>
      <point x="201" y="626"/>
      <point x="209" y="627"/>
      <point x="244" y="627" type="curve" smooth="yes"/>
      <point x="276" y="627" type="line"/>
      <point x="278" y="667" type="line"/>
      <point x="38" y="667" type="line"/>
      <point x="38" y="627" type="line"/>
      <point x="75" y="627" type="line" smooth="yes"/>
      <point x="116" y="627"/>
      <point x="120" y="624"/>
      <point x="120" y="591" type="curve" smooth="yes"/>
      <point x="120" y="-24" type="line" smooth="yes"/>
      <point x="120" y="-108"/>
      <point x="111" y="-203"/>
      <point x="55" y="-203" type="curve" smooth="yes"/>
      <point x="25" y="-203"/>
      <point x="16" y="-148"/>
      <point x="-14" y="-148" type="curve" smooth="yes"/>
      <point x="-36" y="-148"/>
      <point x="-76" y="-182"/>
      <point x="-76" y="-210" type="curve" smooth="yes"/>
    </contour>
  </outline>
</glyph>
<glyph name="K" format="1">
  <advance width="728"/>
  <unicode hex="004B"/>
  <outline>
    <contour>
      <point x="27" y="627" type="line"/>
      <point x="69" y="627" type="line" smooth="yes"/>
      <point x="118" y="627"/>
      <point x="120" y="625"/>
      <point x="120" y="591" type="curve" smooth="yes"/>
      <point x="120" y="83" type="line" smooth="yes"/>
      <point x="120" y="43"/>
      <point x="120" y="39"/>
      <point x="72" y="39" type="curve" smooth="yes"/>
      <point x="45" y="39" type="line"/>
      <point x="46" y="0" type="line"/>
      <point x="302" y="0" type="line"/>
      <point x="302" y="39" type="line"/>
      <point x="280" y="39" type="line" smooth="yes"/>
      <point x="207" y="39"/>
      <point x="201" y="41"/>
      <point x="201" y="85" type="curve" smooth="yes"/>
      <point x="201" y="304" type="line"/>
      <point x="238" y="334" type="line"/>
      <point x="542" y="0" type="line"/>
      <point x="699" y="0" type="line"/>
      <point x="701" y="39" type="line"/>
      <point x="643" y="39" type="line" smooth="yes"/>
      <point x="630" y="39"/>
      <point x="622" y="43"/>
      <point x="600" y="66" type="curve" smooth="yes"/>
      <point x="298" y="381" type="line"/>
      <point x="524" y="562" type="line" smooth="yes"/>
      <point x="598" y="621"/>
      <point x="602" y="627"/>
      <point x="645" y="627" type="curve" smooth="yes"/>
      <point x="671" y="627" type="line"/>
      <point x="671" y="667" type="line"/>
      <point x="431" y="667" type="line"/>
      <point x="433" y="627" type="line"/>
      <point x="472" y="627" type="line" smooth="yes"/>
      <point x="503" y="627"/>
      <point x="518" y="625"/>
      <point x="518" y="617" type="curve" smooth="yes"/>
      <point x="518" y="611"/>
      <point x="510" y="602"/>
      <point x="493" y="588" type="curve" smooth="yes"/>
      <point x="201" y="351" type="line"/>
      <point x="201" y="581" type="line" smooth="yes"/>
      <point x="201" y="626"/>
      <point x="210" y="627"/>
      <point x="245" y="627" type="curve" smooth="yes"/>
      <point x="277" y="627" type="line"/>
      <point x="277" y="667" type="line"/>
      <point x="27" y="667" type="line"/>
    </contour>
  </outline>
</glyph>
<glyph name="L" format="1">
  <advance width="584"/>
  <unicode hex="004C"/>
  <outline>
    <contour>
      <point x="27" y="627" type="line"/>
      <point x="62" y="627" type="line" smooth="yes"/>
      <point x="101" y="627"/>
      <point x="115" y="624"/>
      <point x="115" y="594" type="curve" smooth="yes"/>
      <point x="115" y="77" type="line" smooth="yes"/>
      <point x="115" y="42"/>
      <point x="114" y="39"/>
      <point x="68" y="39" type="curve" smooth="yes"/>
      <point x="40" y="39" type="line"/>
      <point x="41" y="0" type="line"/>
      <point x="524" y="0" type="line"/>
      <point x="557" y="167" type="line"/>
      <point x="522" y="169" type="line"/>
      <point x="503" y="59"/>
      <point x="501" y="59"/>
      <point x="481" y="56" type="curve" smooth="yes"/>
      <point x="453" y="51"/>
      <point x="384" y="47"/>
      <point x="229" y="46" type="curve" smooth="yes"/>
      <point x="203" y="46"/>
      <point x="196" y="50"/>
      <point x="196" y="85" type="curve" smooth="yes"/>
      <point x="196" y="590" type="line" smooth="yes"/>
      <point x="196" y="625"/>
      <point x="206" y="627"/>
      <point x="239" y="627" type="curve" smooth="yes"/>
      <point x="284" y="627" type="line"/>
      <point x="284" y="667" type="line"/>
      <point x="28" y="667" type="line"/>
    </contour>
  </outline>
</glyph>
<glyph name="M" format="1">
  <advance width="822"/>
  <unicode hex="004D"/>
  <outline>
    <contour>
      <point x="37" y="0" type="line"/>
      <point x="253" y="0" type="line"/>
      <point x="253" y="39" type="line"/>
      <point x="159" y="39"/>
      <point x="153" y="40"/>
      <point x="153" y="73" type="curve" smooth="yes"/>
      <point x="157" y="529" type="line"/>
      <point x="358" y="64" type="line" smooth="yes"/>
      <point x="380" y="13"/>
      <point x="390" y="-7"/>
      <point x="397" y="-7" type="curve" smooth="yes"/>
      <point x="410" y="-7"/>
      <point x="401" y="-5"/>
      <point x="479" y="179" type="curve" smooth="yes"/>
      <point x="633" y="542" type="line"/>
      <point x="633" y="83" type="line" smooth="yes"/>
      <point x="633" y="43"/>
      <point x="630" y="39"/>
      <point x="572" y="39" type="curve" smooth="yes"/>
      <point x="552" y="39" type="line"/>
      <point x="553" y="0" type="line"/>
      <point x="796" y="0" type="line"/>
      <point x="795" y="39" type="line"/>
      <point x="775" y="39" type="line" smooth="yes"/>
      <point x="715" y="39"/>
      <point x="714" y="43"/>
      <point x="714" y="85" type="curve" smooth="yes"/>
      <point x="714" y="595" type="line" smooth="yes"/>
      <point x="714" y="624"/>
      <point x="729" y="627"/>
      <point x="766" y="627" type="curve" smooth="yes"/>
      <point x="800" y="627" type="line"/>
      <point x="800" y="667" type="line"/>
      <point x="640" y="667" type="line"/>
      <point x="416" y="133" type="line"/>
      <point x="188" y="667" type="line"/>
      <point x="37" y="667" type="line"/>
      <point x="38" y="627" type="line"/>
      <point x="89" y="627" type="line" smooth="yes"/>
      <point x="112" y="627"/>
      <point x="117" y="622"/>
      <point x="117" y="600" type="curve" smooth="yes"/>
      <point x="117" y="593"/>
      <point x="116" y="585"/>
      <point x="116" y="574" type="curve" smooth="yes"/>
      <point x="107" y="86" type="line" smooth="yes"/>
      <point x="106" y="42"/>
      <point x="104" y="39"/>
      <point x="47" y="39" type="curve" smooth="yes"/>
      <point x="37" y="39" type="line"/>
    </contour>
  </outline>
</glyph>
<glyph name="P" format="1">
  <advance width="571"/>
  <unicode hex="0050"/>
  <outline>
    <contour>
      <point x="27" y="0" type="line"/>
      <point x="293" y="0" type="line"/>
      <point x="293" y="39" type="line"/>
      <point x="243" y="39" type="line" smooth="yes"/>
      <point x="176" y="39"/>
      <point x="175" y="42"/>
      <point x="175" y="68" type="curve" smooth="yes"/>
      <point x="175" y="284" type="line"/>
      <point x="177" y="284"/>
      <point x="244" y="263"/>
      <point x="316" y="263" type="curve" smooth="yes"/>
      <point x="460" y="263"/>
      <point x="527" y="357"/>
      <point x="527" y="445" type="curve" smooth="yes"/>
      <point x="527" y="525"/>
      <point x="490" y="585"/>
      <point x="442" y="624" type="curve" smooth="yes"/>
      <point x="395" y="662"/>
      <point x="340" y="667"/>
      <point x="237" y="667" type="curve" smooth="yes"/>
      <point x="31" y="667" type="line"/>
      <point x="30" y="627" type="line"/>
      <point x="56" y="627" type="line" smooth="yes"/>
      <point x="88" y="627"/>
      <point x="94" y="625"/>
      <point x="94" y="591" type="curve" smooth="yes"/>
      <point x="94" y="68" type="line" smooth="yes"/>
      <point x="94" y="42"/>
      <point x="93" y="39"/>
      <point x="58" y="39" type="curve" smooth="yes"/>
      <point x="27" y="39" type="line"/>
    </contour>
    <contour>
      <point x="175" y="581" type="line" smooth="yes"/>
      <point x="175" y="623"/>
      <point x="182" y="627"/>
      <point x="205" y="627" type="curve" smooth="yes"/>
      <point x="329" y="627"/>
      <point x="433" y="565"/>
      <point x="433" y="447" type="curve" smooth="yes"/>
      <point x="433" y="347"/>
      <point x="374" y="295"/>
      <point x="269" y="295" type="curve" smooth="yes"/>
      <point x="201" y="295"/>
      <point x="175" y="314"/>
      <point x="175" y="314" type="curve"/>
    </contour>
  </outline>
</glyph>
<glyph name="Q" format="1">
  <advance width="798"/>
  <unicode hex="0051"/>
  <outline>
    <contour>
      <point x="54" y="128"/>
      <point x="187" y="19"/>
      <point x="303" y="-6" type="curve" smooth="yes"/>
      <point x="385" y="-23"/>
      <point x="368" y="5"/>
      <point x="478" y="-84" type="curve" smooth="yes"/>
      <point x="549" y="-142"/>
      <point x="630" y="-238"/>
      <point x="742" y="-238" type="curve" smooth="yes"/>
      <point x="834" y="-238"/>
      <point x="848" y="-190"/>
      <point x="848" y="-178" type="curve" smooth="yes"/>
      <point x="848" y="-172"/>
      <point x="845" y="-167"/>
      <point x="839" y="-167" type="curve" smooth="yes"/>
      <point x="829" y="-167"/>
      <point x="821" y="-178"/>
      <point x="791" y="-178" type="curve" smooth="yes"/>
      <point x="717" y="-178"/>
      <point x="599" y="-42"/>
      <point x="501" y="-1" type="curve"/>
      <point x="501" y="-1"/>
      <point x="547" y="13"/>
      <point x="564" y="22" type="curve" smooth="yes"/>
      <point x="668" y="74"/>
      <point x="744" y="190"/>
      <point x="744" y="333" type="curve" smooth="yes"/>
      <point x="744" y="565"/>
      <point x="573" y="681"/>
      <point x="401" y="681" type="curve" smooth="yes"/>
      <point x="228" y="681"/>
      <point x="54" y="563"/>
      <point x="54" y="327" type="curve" smooth="yes"/>
    </contour>
    <contour>
      <point x="144" y="578"/>
      <point x="289" y="640"/>
      <point x="380" y="640" type="curve" smooth="yes"/>
      <point x="515" y="640"/>
      <point x="653" y="520"/>
      <point x="653" y="308" type="curve" smooth="yes"/>
      <point x="653" y="119"/>
      <point x="540" y="27"/>
      <point x="420" y="27" type="curve" smooth="yes"/>
      <point x="240" y="27"/>
      <point x="144" y="198"/>
      <point x="144" y="360" type="curve" smooth="yes"/>
    </contour>
  </outline>
</glyph>
<glyph name="R" format="1">
  <advance width="694"/>
  <unicode hex="0052"/>
  <outline>
    <contour>
      <point x="23" y="627" type="line"/>
      <point x="51" y="627" type="line" smooth="yes"/>
      <point x="89" y="627"/>
      <point x="111" y="625"/>
      <point x="111" y="591" type="curve" smooth="yes"/>
      <point x="111" y="68" type="line" smooth="yes"/>
      <point x="111" y="40"/>
      <point x="110" y="39"/>
      <point x="67" y="39" type="curve" smooth="yes"/>
      <point x="44" y="39" type="line"/>
      <point x="44" y="0" type="line"/>
      <point x="310" y="0" type="line"/>
      <point x="312" y="39" type="line"/>
      <point x="261" y="39" type="line" smooth="yes"/>
      <point x="194" y="39"/>
      <point x="192" y="42"/>
      <point x="192" y="68" type="curve" smooth="yes"/>
      <point x="192" y="313" type="line"/>
      <point x="206" y="310"/>
      <point x="220" y="307"/>
      <point x="283" y="307" type="curve" smooth="yes"/>
      <point x="291" y="307"/>
      <point x="299" y="308"/>
      <point x="307" y="308" type="curve"/>
      <point x="521" y="0" type="line"/>
      <point x="666" y="0" type="line"/>
      <point x="664" y="39" type="line"/>
      <point x="621" y="39" type="line" smooth="yes"/>
      <point x="608" y="39"/>
      <point x="598" y="41"/>
      <point x="578" y="66" type="curve" smooth="yes"/>
      <point x="386" y="321" type="line"/>
      <point x="493" y="349"/>
      <point x="529" y="417"/>
      <point x="529" y="479" type="curve" smooth="yes"/>
      <point x="529" y="528"/>
      <point x="505" y="580"/>
      <point x="457" y="619" type="curve" smooth="yes"/>
      <point x="410" y="657"/>
      <point x="357" y="667"/>
      <point x="254" y="667" type="curve" smooth="yes"/>
      <point x="24" y="667" type="line"/>
    </contour>
    <contour>
      <point x="192" y="581" type="line" smooth="yes"/>
      <point x="192" y="623"/>
      <point x="199" y="627"/>
      <point x="222" y="627" type="curve" smooth="yes"/>
      <point x="357" y="627"/>
      <point x="430" y="559"/>
      <point x="430" y="464" type="curve" smooth="yes"/>
      <point x="430" y="377"/>
      <point x="378" y="336"/>
      <point x="256" y="336" type="curve" smooth="yes"/>
      <point x="205" y="336"/>
      <point x="192" y="346"/>
      <point x="192" y="346" type="curve"/>
    </contour>
  </outline>
</glyph>
<glyph name="V" format="1">
  <advance width="762"/>
  <unicode hex="0056"/>
  <outline>
    <contour>
      <point x="27" y="627" type="line"/>
      <point x="62" y="627" type="line" smooth="yes"/>
      <point x="106" y="627"/>
      <point x="108" y="621"/>
      <point x="138" y="549" type="curve" smooth="yes"/>
      <point x="370" y="-15" type="line"/>
      <point x="387" y="-15" type="line"/>
      <point x="611" y="489" type="line" smooth="yes"/>
      <point x="666" y="613"/>
      <point x="666" y="627"/>
      <point x="704" y="627" type="curve" smooth="yes"/>
      <point x="733" y="627" type="line"/>
      <point x="735" y="667" type="line"/>
      <point x="532" y="667" type="line"/>
      <point x="534" y="627" type="line"/>
      <point x="566" y="627" type="line" smooth="yes"/>
      <point x="593" y="627"/>
      <point x="615" y="626"/>
      <point x="615" y="607" type="curve" smooth="yes"/>
      <point x="615" y="602"/>
      <point x="613" y="596"/>
      <point x="610" y="588" type="curve"/>
      <point x="400" y="105" type="line"/>
      <point x="214" y="567" type="line" smooth="yes"/>
      <point x="203" y="594"/>
      <point x="200" y="605"/>
      <point x="200" y="614" type="curve" smooth="yes"/>
      <point x="200" y="626"/>
      <point x="208" y="627"/>
      <point x="224" y="627" type="curve" smooth="yes"/>
      <point x="277" y="627" type="line"/>
      <point x="278" y="667" type="line"/>
      <point x="27" y="667" type="line"/>
    </contour>
  </outline>
</glyph>
<glyph name="W" format="1">
  <advance width="1040"/>
  <unicode hex="0057"/>
  <outline>
    <contour>
      <point x="37" y="627" type="line"/>
      <point x="54" y="627" type="line" smooth="yes"/>
      <point x="80" y="627"/>
      <point x="92" y="622"/>
      <point x="113" y="564" type="curve" smooth="yes"/>
      <point x="325" y="-15" type="line"/>
      <point x="341" y="-15" type="line"/>
      <point x="535" y="484" type="line"/>
      <point x="705" y="-16" type="line"/>
      <point x="722" y="-16" type="line"/>
      <point x="943" y="558" type="line" smooth="yes"/>
      <point x="966" y="620"/>
      <point x="968" y="627"/>
      <point x="1001" y="627" type="curve" smooth="yes"/>
      <point x="1013" y="627" type="line"/>
      <point x="1012" y="667" type="line"/>
      <point x="841" y="667" type="line"/>
      <point x="841" y="627" type="line"/>
      <point x="867" y="627" type="line" smooth="yes"/>
      <point x="893" y="627"/>
      <point x="916" y="626"/>
      <point x="916" y="605" type="curve" smooth="yes"/>
      <point x="916" y="601"/>
      <point x="914" y="595"/>
      <point x="912" y="588" type="curve"/>
      <point x="734" y="121" type="line"/>
      <point x="588" y="547" type="line" smooth="yes"/>
      <point x="571" y="598"/>
      <point x="570" y="604"/>
      <point x="570" y="611" type="curve" smooth="yes"/>
      <point x="570" y="625"/>
      <point x="575" y="627"/>
      <point x="596" y="627" type="curve" smooth="yes"/>
      <point x="649" y="627" type="line"/>
      <point x="649" y="667" type="line"/>
      <point x="411" y="667" type="line"/>
      <point x="411" y="627" type="line"/>
      <point x="460" y="627" type="line" smooth="yes"/>
      <point x="494" y="627"/>
      <point x="506" y="571"/>
      <point x="517" y="540" type="curve"/>
      <point x="352" y="118" type="line"/>
      <point x="179" y="594" type="line"/>
      <point x="178" y="598"/>
      <point x="177" y="602"/>
      <point x="177" y="605" type="curve" smooth="yes"/>
      <point x="177" y="625"/>
      <point x="203" y="627"/>
      <point x="236" y="627" type="curve" smooth="yes"/>
      <point x="258" y="627" type="line"/>
      <point x="259" y="667" type="line"/>
      <point x="37" y="667" type="line"/>
    </contour>
  </outline>
</glyph>
<glyph name="X" format="1">
  <advance width="760"/>
  <unicode hex="0058"/>
  <outline>
    <contour>
      <point x="27" y="0" type="line"/>
      <point x="240" y="0" type="line"/>
      <point x="240" y="39" type="line"/>
      <point x="204" y="39" type="line" smooth="yes"/>
      <point x="175" y="39"/>
      <point x="164" y="40"/>
      <point x="164" y="49" type="curve" smooth="yes"/>
      <point x="164" y="55"/>
      <point x="170" y="66"/>
      <point x="187" y="85" type="curve" smooth="yes"/>
      <point x="367" y="293" type="line"/>
      <point x="508" y="112" type="line" smooth="yes"/>
      <point x="548" y="60"/>
      <point x="549" y="58"/>
      <point x="549" y="52" type="curve" smooth="yes"/>
      <point x="549" y="40"/>
      <point x="529" y="39"/>
      <point x="499" y="39" type="curve" smooth="yes"/>
      <point x="475" y="39" type="line"/>
      <point x="475" y="0" type="line"/>
      <point x="733" y="0" type="line"/>
      <point x="732" y="39" type="line"/>
      <point x="715" y="39" type="line" smooth="yes"/>
      <point x="670" y="39"/>
      <point x="661" y="47"/>
      <point x="548" y="192" type="curve" smooth="yes"/>
      <point x="420" y="355" type="line"/>
      <point x="625" y="581" type="line" smooth="yes"/>
      <point x="667" y="627"/>
      <point x="663" y="627"/>
      <point x="727" y="627" type="curve"/>
      <point x="727" y="667" type="line"/>
      <point x="513" y="667" type="line"/>
      <point x="512" y="627" type="line"/>
      <point x="540" y="627" type="line" smooth="yes"/>
      <point x="571" y="627"/>
      <point x="587" y="626"/>
      <point x="587" y="614" type="curve" smooth="yes"/>
      <point x="587" y="604"/>
      <point x="587" y="601"/>
      <point x="529" y="535" type="curve" smooth="yes"/>
      <point x="395" y="384" type="line"/>
      <point x="265" y="558" type="line" smooth="yes"/>
      <point x="230" y="606"/>
      <point x="229" y="610"/>
      <point x="229" y="617" type="curve" smooth="yes"/>
      <point x="229" y="627"/>
      <point x="241" y="627"/>
      <point x="271" y="627" type="curve" smooth="yes"/>
      <point x="298" y="627" type="line"/>
      <point x="298" y="667" type="line"/>
      <point x="44" y="667" type="line"/>
      <point x="44" y="627" type="line"/>
      <point x="108" y="627"/>
      <point x="103" y="627"/>
      <point x="146" y="573" type="curve" smooth="yes"/>
      <point x="343" y="324" type="line"/>
      <point x="152" y="108" type="line" smooth="yes"/>
      <point x="92" y="41"/>
      <point x="101" y="39"/>
      <point x="27" y="39" type="curve"/>
    </contour>
  </outline>
</glyph>
<glyph name="Y" format="1">
  <advance width="659"/>
  <unicode hex="0059"/>
  <outline>
    <contour>
      <point x="37" y="627" type="line"/>
      <point x="84" y="627"/>
      <point x="81" y="627"/>
      <point x="120" y="566" type="curve" smooth="yes"/>
      <point x="284" y="311" type="line"/>
      <point x="284" y="83" type="line" smooth="yes"/>
      <point x="284" y="41"/>
      <point x="277" y="39"/>
      <point x="228" y="39" type="curve" smooth="yes"/>
      <point x="188" y="39" type="line"/>
      <point x="187" y="0" type="line"/>
      <point x="468" y="0" type="line"/>
      <point x="469" y="39" type="line"/>
      <point x="424" y="39" type="line" smooth="yes"/>
      <point x="366" y="39"/>
      <point x="365" y="43"/>
      <point x="365" y="85" type="curve" smooth="yes"/>
      <point x="365" y="303" type="line"/>
      <point x="560" y="585" type="line" smooth="yes"/>
      <point x="589" y="626"/>
      <point x="595" y="627"/>
      <point x="627" y="627" type="curve" smooth="yes"/>
      <point x="632" y="627" type="line"/>
      <point x="632" y="667" type="line"/>
      <point x="450" y="667" type="line"/>
      <point x="451" y="627" type="line"/>
      <point x="467" y="627" type="line" smooth="yes"/>
      <point x="507" y="627"/>
      <point x="532" y="626"/>
      <point x="532" y="614" type="curve" smooth="yes"/>
      <point x="532" y="611"/>
      <point x="529" y="607"/>
      <point x="526" y="602" type="curve"/>
      <point x="351" y="354" type="line"/>
      <point x="208" y="579" type="line" smooth="yes"/>
      <point x="192" y="606"/>
      <point x="190" y="610"/>
      <point x="190" y="614" type="curve" smooth="yes"/>
      <point x="190" y="626"/>
      <point x="207" y="627"/>
      <point x="242" y="627" type="curve" smooth="yes"/>
      <point x="262" y="627" type="line"/>
      <point x="262" y="667" type="line"/>
      <point x="38" y="667" type="line"/>
    </contour>
  </outline>
</glyph>
<glyph name="bracketright" format="1">
  <advance width="326"/>
  <unicode hex="005D"/>
  <outline>
    <contour>
      <point x="17" y="-202" type="line"/>
      <point x="17" y="-231" type="line"/>
      <point x="238" y="-231" type="line"/>
      <point x="238" y="706" type="line"/>
      <point x="17" y="706" type="line"/>
      <point x="17" y="676" type="line"/>
      <point x="176" y="676" type="line"/>
      <point x="176" y="-202" type="line"/>
    </contour>
  </outline>
</glyph>
<glyph name="asciicircum" format="1">
  <advance width="406"/>
  <unicode hex="005E"/>
  <outline>
    <contour>
      <point x="40" y="331" type="line"/>
      <point x="103" y="331" type="line"/>
      <point x="203" y="543" type="line"/>
      <point x="303" y="331" type="line"/>
      <point x="366" y="331" type="line"/>
      <point x="209" y="651" type="line"/>
      <point x="197" y="651" type="line"/>
    </contour>
  </outline>
</glyph>
<glyph name="underscore" format="1">
  <advance width="226"/>
  <unicode hex="005F"/>
  <outline>
    <contour>
      <point x="20" y="-59" type="line"/>
      <point x="20" y="-102" type="line"/>
      <point x="206" y="-102" type="line"/>
      <point x="206" y="-59" type="line"/>
    </contour>
  </outline>
</glyph>
<glyph name="grave" format="1">
  <advance width="390"/>
  <unicode hex="0060"/>
  <outline>
    <contour>
      <point x="95" y="630" type="line"/>
      <point x="181" y="468" type="line"/>
      <point x="217" y="468" type="line"/>
      <point x="165" y="630" type="line"/>
    </contour>
  </outline>
</glyph>
<glyph name="b" format="1">
  <advance width="505"/>
  <unicode hex="0062"/>
  <outline>
    <contour>
      <point x="15" y="664" type="line"/>
      <point x="60" y="674"/>
      <point x="66" y="675"/>
      <point x="72" y="675" type="curve" smooth="yes"/>
      <point x="81" y="675"/>
      <point x="86" y="667"/>
      <point x="86" y="645" type="curve" smooth="yes"/>
      <point x="86" y="155" type="line" smooth="yes"/>
      <point x="86" y="75"/>
      <point x="83" y="35"/>
      <point x="83" y="21" type="curve" smooth="yes"/>
      <point x="83" y="3"/>
      <point x="89" y="-2"/>
      <point x="94" y="-2" type="curve" smooth="yes"/>
      <point x="109" y="-2"/>
      <point x="125" y="21"/>
      <point x="140" y="21" type="curve" smooth="yes"/>
      <point x="155" y="21"/>
      <point x="205" y="-9"/>
      <point x="274" y="-9" type="curve" smooth="yes"/>
      <point x="407" y="-9"/>
      <point x="480" y="104"/>
      <point x="480" y="212" type="curve" smooth="yes"/>
      <point x="480" y="308"/>
      <point x="422" y="399"/>
      <point x="297" y="399" type="curve" smooth="yes"/>
      <point x="222" y="399"/>
      <point x="171" y="347"/>
      <point x="156" y="336" type="curve"/>
      <point x="156" y="723" type="line"/>
      <point x="106" y="713"/>
      <point x="59" y="703"/>
      <point x="12" y="695" type="curve"/>
    </contour>
    <contour>
      <point x="156" y="308" type="line"/>
      <point x="156" y="308"/>
      <point x="197" y="345"/>
      <point x="271" y="345" type="curve" smooth="yes"/>
      <point x="297" y="345"/>
      <point x="408" y="333"/>
      <point x="408" y="176" type="curve" smooth="yes"/>
      <point x="408" y="49"/>
      <point x="318" y="27"/>
      <point x="263" y="27" type="curve" smooth="yes"/>
      <point x="214" y="27"/>
      <point x="156" y="50"/>
      <point x="156" y="98" type="curve" smooth="yes"/>
    </contour>
  </outline>
</glyph>
<glyph name="c" format="1">
  <advance width="403"/>
  <unicode hex="0063"/>
  <outline>
    <contour>
      <point x="24" y="89"/>
      <point x="62" y="-13"/>
      <point x="212" y="-13" type="curve" smooth="yes"/>
      <point x="295" y="-13"/>
      <point x="378" y="41"/>
      <point x="378" y="62" type="curve" smooth="yes"/>
      <point x="378" y="66"/>
      <point x="376" y="71"/>
      <point x="370" y="71" type="curve" smooth="yes"/>
      <point x="355" y="71"/>
      <point x="332" y="47"/>
      <point x="241" y="47" type="curve" smooth="yes"/>
      <point x="180" y="47"/>
      <point x="95" y="84"/>
      <point x="95" y="206" type="curve" smooth="yes"/>
      <point x="95" y="261"/>
      <point x="114" y="361"/>
      <point x="190" y="361" type="curve" smooth="yes"/>
      <point x="234" y="361"/>
      <point x="268" y="305"/>
      <point x="300" y="305" type="curve" smooth="yes"/>
      <point x="308" y="305"/>
      <point x="361" y="314"/>
      <point x="361" y="335" type="curve" smooth="yes"/>
      <point x="361" y="350"/>
      <point x="302" y="401"/>
      <point x="208" y="401" type="curve" smooth="yes"/>
      <point x="87" y="401"/>
      <point x="24" y="290"/>
      <point x="24" y="182" type="curve" smooth="yes"/>
    </contour>
  </outline>
</glyph>
<glyph name="d" format="1">
  <advance width="512"/>
  <unicode hex="0064"/>
  <outline>
    <contour>
      <point x="24" y="67"/>
      <point x="105" y="-12"/>
      <point x="202" y="-12" type="curve" smooth="yes"/>
      <point x="296" y="-12"/>
      <point x="350" y="62"/>
      <point x="351" y="63" type="curve"/>
      <point x="352" y="60"/>
      <point x="352" y="55"/>
      <point x="352" y="47" type="curve" smooth="yes"/>
      <point x="352" y="32"/>
      <point x="351" y="9"/>
      <point x="351" y="-26" type="curve"/>
      <point x="436" y="0"/>
      <point x="463" y="9"/>
      <point x="495" y="18" type="curve"/>
      <point x="495" y="45" type="line"/>
      <point x="461" y="36"/>
      <point x="442" y="27"/>
      <point x="432" y="27" type="curve" smooth="yes"/>
      <point x="420" y="27"/>
      <point x="419" y="38"/>
      <point x="419" y="70" type="curve" smooth="yes"/>
      <point x="419" y="731" type="line"/>
      <point x="328" y="707"/>
      <point x="316" y="704"/>
      <point x="267" y="695" type="curve"/>
      <point x="269" y="664" type="line"/>
      <point x="309" y="673"/>
      <point x="328" y="677"/>
      <point x="335" y="677" type="curve" smooth="yes"/>
      <point x="345" y="677"/>
      <point x="349" y="670"/>
      <point x="349" y="649" type="curve" smooth="yes"/>
      <point x="349" y="351" type="line"/>
      <point x="349" y="351"/>
      <point x="296" y="395"/>
      <point x="220" y="395" type="curve" smooth="yes"/>
      <point x="124" y="395"/>
      <point x="24" y="305"/>
      <point x="24" y="185" type="curve" smooth="yes"/>
    </contour>
    <contour>
      <point x="97" y="304"/>
      <point x="152" y="364"/>
      <point x="220" y="364" type="curve" smooth="yes"/>
      <point x="302" y="364"/>
      <point x="349" y="300"/>
      <point x="349" y="300" type="curve"/>
      <point x="349" y="85" type="line"/>
      <point x="349" y="85"/>
      <point x="314" y="45"/>
      <point x="254" y="45" type="curve" smooth="yes"/>
      <point x="156" y="45"/>
      <point x="97" y="129"/>
      <point x="97" y="220" type="curve" smooth="yes"/>
    </contour>
  </outline>
</glyph>
<glyph name="f" format="1">
  <advance width="285"/>
  <unicode hex="0066"/>
  <outline>
    <contour>
      <point x="17" y="344" type="line"/>
      <point x="90" y="344" type="line"/>
      <point x="90" y="59" type="line" smooth="yes"/>
      <point x="90" y="35"/>
      <point x="84" y="32"/>
      <point x="48" y="32" type="curve" smooth="yes"/>
      <point x="27" y="32" type="line"/>
      <point x="28" y="0" type="line"/>
      <point x="236" y="0" type="line"/>
      <point x="237" y="32" type="line"/>
      <point x="223" y="32" type="line" smooth="yes"/>
      <point x="162" y="32"/>
      <point x="160" y="35"/>
      <point x="160" y="62" type="curve" smooth="yes"/>
      <point x="160" y="344" type="line"/>
      <point x="261" y="344" type="line"/>
      <point x="272" y="392" type="line"/>
      <point x="160" y="392" type="line"/>
      <point x="160" y="524" type="line" smooth="yes"/>
      <point x="160" y="552"/>
      <point x="164" y="683"/>
      <point x="235" y="683" type="curve" smooth="yes"/>
      <point x="272" y="683"/>
      <point x="279" y="623"/>
      <point x="296" y="623" type="curve" smooth="yes"/>
      <point x="316" y="623"/>
      <point x="348" y="672"/>
      <point x="348" y="688" type="curve" smooth="yes"/>
      <point x="348" y="711"/>
      <point x="313" y="724"/>
      <point x="271" y="724" type="curve" smooth="yes"/>
      <point x="243" y="724"/>
      <point x="212" y="718"/>
      <point x="188" y="703" type="curve" smooth="yes"/>
      <point x="93" y="644"/>
      <point x="90" y="555"/>
      <point x="90" y="500" type="curve" smooth="yes"/>
      <point x="90" y="392" type="line"/>
      <point x="29" y="392" type="line"/>
    </contour>
  </outline>
</glyph>
<glyph name="i" format="1">
  <advance width="265"/>
  <unicode hex="0069"/>
  <outline>
    <contour>
      <point x="102" y="582"/>
      <point x="126" y="549"/>
      <point x="144" y="549" type="curve" smooth="yes"/>
      <point x="155" y="549"/>
      <point x="187" y="579"/>
      <point x="187" y="593" type="curve" smooth="yes"/>
      <point x="187" y="609"/>
      <point x="155" y="636"/>
      <point x="144" y="636" type="curve" smooth="yes"/>
      <point x="131" y="636"/>
      <point x="102" y="610"/>
      <point x="102" y="594" type="curve" smooth="yes"/>
    </contour>
    <contour>
      <point x="28" y="346" type="line"/>
      <point x="59" y="352"/>
      <point x="78" y="354"/>
      <point x="83" y="354" type="curve" smooth="yes"/>
      <point x="94" y="354"/>
      <point x="98" y="348"/>
      <point x="98" y="322" type="curve" smooth="yes"/>
      <point x="98" y="55" type="line" smooth="yes"/>
      <point x="98" y="34"/>
      <point x="90" y="32"/>
      <point x="40" y="32" type="curve" smooth="yes"/>
      <point x="31" y="32" type="line"/>
      <point x="31" y="0" type="line"/>
      <point x="248" y="0" type="line"/>
      <point x="248" y="32" type="line"/>
      <point x="230" y="32" type="line" smooth="yes"/>
      <point x="171" y="32"/>
      <point x="168" y="35"/>
      <point x="168" y="59" type="curve" smooth="yes"/>
      <point x="168" y="406" type="line"/>
      <point x="113" y="391"/>
      <point x="71" y="383"/>
      <point x="27" y="376" type="curve"/>
    </contour>
  </outline>
</glyph>
<glyph name="k" format="1">
  <advance width="472"/>
  <unicode hex="006B"/>
  <outline>
    <contour>
      <point x="19" y="667" type="line"/>
      <point x="38" y="672"/>
      <point x="58" y="676"/>
      <point x="62" y="676" type="curve" smooth="yes"/>
      <point x="76" y="676"/>
      <point x="77" y="663"/>
      <point x="77" y="629" type="curve" smooth="yes"/>
      <point x="77" y="54" type="line" smooth="yes"/>
      <point x="77" y="33"/>
      <point x="77" y="32"/>
      <point x="31" y="32" type="curve" smooth="yes"/>
      <point x="20" y="32" type="line"/>
      <point x="20" y="0" type="line"/>
      <point x="225" y="0" type="line"/>
      <point x="224" y="32" type="line"/>
      <point x="197" y="32" type="line" smooth="yes"/>
      <point x="151" y="32"/>
      <point x="145" y="34"/>
      <point x="145" y="57" type="curve" smooth="yes"/>
      <point x="145" y="165" type="line"/>
      <point x="180" y="192" type="line"/>
      <point x="336" y="0" type="line"/>
      <point x="454" y="0" type="line"/>
      <point x="455" y="32" type="line"/>
      <point x="428" y="32" type="line" smooth="yes"/>
      <point x="398" y="32"/>
      <point x="402" y="34"/>
      <point x="383" y="56" type="curve" smooth="yes"/>
      <point x="234" y="230" type="line"/>
      <point x="376" y="343" type="line" smooth="yes"/>
      <point x="401" y="363"/>
      <point x="412" y="365"/>
      <point x="431" y="365" type="curve" smooth="yes"/>
      <point x="446" y="365" type="line"/>
      <point x="447" y="392" type="line"/>
      <point x="286" y="392" type="line"/>
      <point x="286" y="365" type="line"/>
      <point x="316" y="365" type="line" smooth="yes"/>
      <point x="324" y="365"/>
      <point x="337" y="364"/>
      <point x="337" y="358" type="curve" smooth="yes"/>
      <point x="337" y="356"/>
      <point x="335" y="353"/>
      <point x="330" y="349" type="curve" smooth="yes"/>
      <point x="147" y="200" type="line"/>
      <point x="147" y="725" type="line"/>
      <point x="91" y="713"/>
      <point x="53" y="706"/>
      <point x="17" y="699" type="curve"/>
    </contour>
  </outline>
</glyph>
<glyph name="m" format="1">
  <advance width="691"/>
  <unicode hex="006D"/>
  <outline>
    <contour>
      <point x="17" y="344" type="line"/>
      <point x="44" y="349"/>
      <point x="61" y="354"/>
      <point x="71" y="354" type="curve" smooth="yes"/>
      <point x="87" y="354"/>
      <point x="87" y="342"/>
      <point x="87" y="301" type="curve" smooth="yes"/>
      <point x="87" y="54" type="line" smooth="yes"/>
      <point x="87" y="34"/>
      <point x="79" y="32"/>
      <point x="47" y="32" type="curve" smooth="yes"/>
      <point x="19" y="32" type="line"/>
      <point x="20" y="0" type="line"/>
      <point x="215" y="0" type="line"/>
      <point x="215" y="32" type="line"/>
      <point x="210" y="32" type="line" smooth="yes"/>
      <point x="158" y="32"/>
      <point x="157" y="34"/>
      <point x="157" y="54" type="curve" smooth="yes"/>
      <point x="157" y="307" type="line"/>
      <point x="157" y="307"/>
      <point x="202" y="339"/>
      <point x="250" y="339" type="curve" smooth="yes"/>
      <point x="295" y="339"/>
      <point x="313" y="313"/>
      <point x="313" y="263" type="curve" smooth="yes"/>
      <point x="313" y="48" type="line" smooth="yes"/>
      <point x="313" y="33"/>
      <point x="302" y="32"/>
      <point x="263" y="32" type="curve" smooth="yes"/>
      <point x="251" y="32" type="line"/>
      <point x="252" y="0" type="line"/>
      <point x="442" y="0" type="line"/>
      <point x="442" y="32" type="line"/>
      <point x="433" y="32" type="line" smooth="yes"/>
      <point x="387" y="32"/>
      <point x="383" y="33"/>
      <point x="383" y="49" type="curve" smooth="yes"/>
      <point x="383" y="234" type="line" smooth="yes"/>
      <point x="383" y="275"/>
      <point x="379" y="306"/>
      <point x="379" y="306" type="curve" smooth="yes"/>
      <point x="379" y="306"/>
      <point x="417" y="339"/>
      <point x="478" y="339" type="curve" smooth="yes"/>
      <point x="519" y="339"/>
      <point x="539" y="326"/>
      <point x="539" y="263" type="curve" smooth="yes"/>
      <point x="539" y="56" type="line" smooth="yes"/>
      <point x="539" y="32"/>
      <point x="532" y="32"/>
      <point x="480" y="32" type="curve"/>
      <point x="480" y="0" type="line"/>
      <point x="674" y="0" type="line"/>
      <point x="674" y="32" type="line"/>
      <point x="664" y="32" type="line" smooth="yes"/>
      <point x="614" y="32"/>
      <point x="609" y="33"/>
      <point x="609" y="57" type="curve" smooth="yes"/>
      <point x="609" y="263" type="line" smooth="yes"/>
      <point x="609" y="318"/>
      <point x="603" y="395"/>
      <point x="513" y="395" type="curve" smooth="yes"/>
      <point x="461" y="395"/>
      <point x="406" y="355"/>
      <point x="374" y="331" type="curve"/>
      <point x="372" y="338"/>
      <point x="356" y="395"/>
      <point x="296" y="395" type="curve" smooth="yes"/>
      <point x="230" y="395"/>
      <point x="171" y="339"/>
      <point x="155" y="330" type="curve"/>
      <point x="155" y="369"/>
      <point x="157" y="403"/>
      <point x="157" y="403" type="curve" smooth="yes"/>
      <point x="157" y="403"/>
      <point x="60" y="381"/>
      <point x="17" y="375" type="curve"/>
    </contour>
  </outline>
</glyph>
<glyph name="n" format="1">
  <advance width="463"/>
  <unicode hex="006E"/>
  <outline>
    <contour>
      <point x="17" y="32" type="line"/>
      <point x="18" y="0" type="line"/>
      <point x="213" y="0" type="line"/>
      <point x="215" y="32" type="line"/>
      <point x="202" y="32" type="line" smooth="yes"/>
      <point x="142" y="32"/>
      <point x="142" y="35"/>
      <point x="142" y="66" type="curve" smooth="yes"/>
      <point x="142" y="307" type="line"/>
      <point x="142" y="307"/>
      <point x="202" y="339"/>
      <point x="250" y="339" type="curve" smooth="yes"/>
      <point x="295" y="339"/>
      <point x="315" y="320"/>
      <point x="315" y="263" type="curve" smooth="yes"/>
      <point x="315" y="62" type="line" smooth="yes"/>
      <point x="315" y="34"/>
      <point x="309" y="32"/>
      <point x="281" y="32" type="curve" smooth="yes"/>
      <point x="258" y="32" type="line"/>
      <point x="259" y="0" type="line"/>
      <point x="445" y="0" type="line"/>
      <point x="446" y="32" type="line"/>
      <point x="399" y="32"/>
      <point x="385" y="32"/>
      <point x="385" y="62" type="curve" smooth="yes"/>
      <point x="385" y="234" type="line" smooth="yes"/>
      <point x="385" y="313"/>
      <point x="384" y="395"/>
      <point x="290" y="395" type="curve" smooth="yes"/>
      <point x="210" y="395"/>
      <point x="155" y="338"/>
      <point x="139" y="331" type="curve"/>
      <point x="139" y="368"/>
      <point x="140" y="378"/>
      <point x="142" y="402" type="curve"/>
      <point x="19" y="377" type="line"/>
      <point x="19" y="346" type="line"/>
      <point x="46" y="352"/>
      <point x="49" y="354"/>
      <point x="57" y="354" type="curve" smooth="yes"/>
      <point x="71" y="354"/>
      <point x="72" y="345"/>
      <point x="72" y="304" type="curve" smooth="yes"/>
      <point x="72" y="66" type="line" smooth="yes"/>
      <point x="72" y="34"/>
      <point x="72" y="32"/>
      <point x="27" y="32" type="curve" smooth="yes"/>
    </contour>
  </outline>
</glyph>
<glyph name="o" format="1">
  <advance width="458"/>
  <unicode hex="006F"/>
  <outline>
    <contour>
      <point x="25" y="94"/>
      <point x="90" y="-15"/>
      <point x="225" y="-15" type="curve" smooth="yes"/>
      <point x="353" y="-15"/>
      <point x="433" y="72"/>
      <point x="433" y="184" type="curve" smooth="yes"/>
      <point x="433" y="272"/>
      <point x="391" y="401"/>
      <point x="223" y="401" type="curve" smooth="yes"/>
      <point x="86" y="401"/>
      <point x="25" y="299"/>
      <point x="25" y="195" type="curve" smooth="yes"/>
    </contour>
    <contour>
      <point x="105" y="317"/>
      <point x="156" y="367"/>
      <point x="214" y="367" type="curve" smooth="yes"/>
      <point x="286" y="367"/>
      <point x="349" y="308"/>
      <point x="349" y="187" type="curve" smooth="yes"/>
      <point x="349" y="104"/>
      <point x="320" y="24"/>
      <point x="238" y="24" type="curve" smooth="yes"/>
      <point x="156" y="24"/>
      <point x="105" y="127"/>
      <point x="105" y="219" type="curve" smooth="yes"/>
    </contour>
  </outline>
</glyph>
<glyph name="p" format="1">
  <advance width="491"/>
  <unicode hex="0070"/>
  <outline>
    <contour>
      <point x="15" y="-259" type="line"/>
      <point x="245" y="-259" type="line"/>
      <point x="246" y="-227" type="line"/>
      <point x="231" y="-227" type="line" smooth="yes"/>
      <point x="168" y="-227"/>
      <point x="152" y="-226"/>
      <point x="152" y="-202" type="curve" smooth="yes"/>
      <point x="152" y="5" type="line"/>
      <point x="152" y="5"/>
      <point x="206" y="-12"/>
      <point x="276" y="-12" type="curve" smooth="yes"/>
      <point x="391" y="-12"/>
      <point x="467" y="79"/>
      <point x="467" y="201" type="curve" smooth="yes"/>
      <point x="467" y="305"/>
      <point x="396" y="394"/>
      <point x="301" y="394" type="curve" smooth="yes"/>
      <point x="225" y="394"/>
      <point x="152" y="320"/>
      <point x="152" y="320" type="curve"/>
      <point x="152" y="402" type="line"/>
      <point x="100" y="388"/>
      <point x="57" y="376"/>
      <point x="20" y="369" type="curve"/>
      <point x="21" y="337" type="line"/>
      <point x="42" y="341"/>
      <point x="57" y="347"/>
      <point x="66" y="347" type="curve" smooth="yes"/>
      <point x="76" y="347"/>
      <point x="82" y="340"/>
      <point x="82" y="319" type="curve" smooth="yes"/>
      <point x="82" y="-203" type="line" smooth="yes"/>
      <point x="82" y="-225"/>
      <point x="75" y="-227"/>
      <point x="14" y="-227" type="curve"/>
    </contour>
    <contour>
      <point x="152" y="289" type="line"/>
      <point x="162" y="297"/>
      <point x="200" y="335"/>
      <point x="256" y="335" type="curve" smooth="yes"/>
      <point x="334" y="335"/>
      <point x="396" y="261"/>
      <point x="396" y="169" type="curve" smooth="yes"/>
      <point x="396" y="116"/>
      <point x="372" y="21"/>
      <point x="273" y="21" type="curve" smooth="yes"/>
      <point x="203" y="21"/>
      <point x="152" y="55"/>
      <point x="152" y="55" type="curve"/>
    </contour>
  </outline>
</glyph>
<glyph name="q" format="1">
  <advance width="481"/>
  <unicode hex="0071"/>
  <outline>
    <contour>
      <point x="24" y="87"/>
      <point x="86" y="-7"/>
      <point x="202" y="-7" type="curve" smooth="yes"/>
      <point x="264" y="-7"/>
      <point x="303" y="29"/>
      <point x="343" y="58" type="curve"/>
      <point x="343" y="-193" type="line" smooth="yes"/>
      <point x="343" y="-223"/>
      <point x="326" y="-227"/>
      <point x="266" y="-227" type="curve" smooth="yes"/>
      <point x="231" y="-227" type="line"/>
      <point x="234" y="-259" type="line"/>
      <point x="486" y="-259" type="line"/>
      <point x="486" y="-227" type="line"/>
      <point x="468" y="-227" type="line" smooth="yes"/>
      <point x="414" y="-227"/>
      <point x="413" y="-225"/>
      <point x="413" y="-186" type="curve" smooth="yes"/>
      <point x="413" y="132" type="line" smooth="yes"/>
      <point x="413" y="282"/>
      <point x="419" y="332"/>
      <point x="422" y="396" type="curve"/>
      <point x="402" y="396" type="line" smooth="yes"/>
      <point x="402" y="396"/>
      <point x="400" y="363"/>
      <point x="379" y="363" type="curve" smooth="yes"/>
      <point x="368" y="363"/>
      <point x="315" y="399"/>
      <point x="245" y="399" type="curve" smooth="yes"/>
      <point x="138" y="399"/>
      <point x="24" y="319"/>
      <point x="24" y="184" type="curve" smooth="yes"/>
    </contour>
    <contour>
      <point x="93" y="277"/>
      <point x="135" y="362"/>
      <point x="237" y="362" type="curve" smooth="yes"/>
      <point x="292" y="362"/>
      <point x="343" y="325"/>
      <point x="343" y="325" type="curve"/>
      <point x="343" y="108" type="line"/>
      <point x="338" y="103"/>
      <point x="308" y="54"/>
      <point x="246" y="54" type="curve" smooth="yes"/>
      <point x="170" y="54"/>
      <point x="93" y="132"/>
      <point x="93" y="222" type="curve" smooth="yes"/>
    </contour>
  </outline>
</glyph>
<glyph name="u" format="1">
  <advance width="462"/>
  <unicode hex="0075"/>
  <outline>
    <contour>
      <point x="17" y="357" type="line"/>
      <point x="31" y="358"/>
      <point x="42" y="360"/>
      <point x="50" y="360" type="curve" smooth="yes"/>
      <point x="64" y="360"/>
      <point x="69" y="356"/>
      <point x="69" y="335" type="curve" smooth="yes"/>
      <point x="69" y="138" type="line" smooth="yes"/>
      <point x="69" y="62"/>
      <point x="87" y="-15"/>
      <point x="187" y="-15" type="curve" smooth="yes"/>
      <point x="255" y="-15"/>
      <point x="315" y="50"/>
      <point x="315" y="50" type="curve"/>
      <point x="319" y="25"/>
      <point x="321" y="2"/>
      <point x="322" y="-21" type="curve"/>
      <point x="366" y="-9"/>
      <point x="401" y="2"/>
      <point x="445" y="11" type="curve"/>
      <point x="445" y="43" type="line"/>
      <point x="424" y="37"/>
      <point x="409" y="32"/>
      <point x="400" y="32" type="curve" smooth="yes"/>
      <point x="385" y="32"/>
      <point x="382" y="37"/>
      <point x="382" y="111" type="curve" smooth="yes"/>
      <point x="382" y="402" type="line"/>
      <point x="327" y="393"/>
      <point x="289" y="388"/>
      <point x="245" y="385" type="curve"/>
      <point x="248" y="354" type="line"/>
      <point x="249" y="355"/>
      <point x="278" y="359"/>
      <point x="292" y="359" type="curve" smooth="yes"/>
      <point x="305" y="359"/>
      <point x="312" y="356"/>
      <point x="312" y="329" type="curve" smooth="yes"/>
      <point x="312" y="85" type="line"/>
      <point x="312" y="85"/>
      <point x="289" y="47"/>
      <point x="222" y="47" type="curve" smooth="yes"/>
      <point x="147" y="47"/>
      <point x="139" y="93"/>
      <point x="139" y="152" type="curve" smooth="yes"/>
      <point x="139" y="402" type="line"/>
      <point x="89" y="393"/>
      <point x="49" y="390"/>
      <point x="17" y="387" type="curve"/>
    </contour>
  </outline>
</glyph>
<glyph name="v" format="1">
  <advance width="461"/>
  <unicode hex="0076"/>
  <outline>
    <contour>
      <point x="17" y="360" type="line"/>
      <point x="56" y="360"/>
      <point x="59" y="358"/>
      <point x="82" y="306" type="curve" smooth="yes"/>
      <point x="223" y="-17" type="line"/>
      <point x="237" y="-18" type="line"/>
      <point x="354" y="242" type="line" smooth="yes"/>
      <point x="402" y="349"/>
      <point x="404" y="360"/>
      <point x="438" y="360" type="curve" smooth="yes"/>
      <point x="444" y="360" type="line"/>
      <point x="444" y="392" type="line"/>
      <point x="306" y="392" type="line"/>
      <point x="306" y="360" type="line"/>
      <point x="309" y="360" type="line" smooth="yes"/>
      <point x="339" y="360"/>
      <point x="353" y="360"/>
      <point x="353" y="345" type="curve" smooth="yes"/>
      <point x="353" y="333"/>
      <point x="346" y="316"/>
      <point x="333" y="288" type="curve" smooth="yes"/>
      <point x="315" y="249"/>
      <point x="286" y="190"/>
      <point x="248" y="99" type="curve"/>
      <point x="159" y="311" type="line" smooth="yes"/>
      <point x="152" y="329"/>
      <point x="148" y="339"/>
      <point x="148" y="346" type="curve" smooth="yes"/>
      <point x="148" y="359"/>
      <point x="160" y="360"/>
      <point x="182" y="360" type="curve" smooth="yes"/>
      <point x="196" y="360" type="line"/>
      <point x="197" y="392" type="line"/>
      <point x="17" y="392" type="line"/>
    </contour>
  </outline>
</glyph>
<glyph name="w" format="1">
  <advance width="789"/>
  <unicode hex="0077"/>
  <outline>
    <contour>
      <point x="17" y="360" type="line"/>
      <point x="80" y="360"/>
      <point x="76" y="360"/>
      <point x="99" y="306" type="curve" smooth="yes"/>
      <point x="238" y="-17" type="line"/>
      <point x="259" y="-18" type="line"/>
      <point x="394" y="282" type="line"/>
      <point x="515" y="-16" type="line"/>
      <point x="537" y="-17" type="line"/>
      <point x="703" y="327" type="line" smooth="yes"/>
      <point x="719" y="360"/>
      <point x="742" y="360"/>
      <point x="772" y="360" type="curve"/>
      <point x="771" y="392" type="line"/>
      <point x="594" y="392" type="line"/>
      <point x="594" y="360" type="line"/>
      <point x="620" y="360" type="line" smooth="yes"/>
      <point x="653" y="360"/>
      <point x="664" y="357"/>
      <point x="664" y="346" type="curve" smooth="yes"/>
      <point x="664" y="340"/>
      <point x="661" y="332"/>
      <point x="656" y="321" type="curve" smooth="yes"/>
      <point x="549" y="95" type="line"/>
      <point x="456" y="316" type="line" smooth="yes"/>
      <point x="451" y="329"/>
      <point x="447" y="339"/>
      <point x="447" y="345" type="curve" smooth="yes"/>
      <point x="447" y="359"/>
      <point x="461" y="360"/>
      <point x="500" y="360" type="curve"/>
      <point x="500" y="392" type="line"/>
      <point x="284" y="392" type="line"/>
      <point x="286" y="360" type="line"/>
      <point x="323" y="360" type="line" smooth="yes"/>
      <point x="350" y="360"/>
      <point x="362" y="356"/>
      <point x="375" y="325" type="curve"/>
      <point x="269" y="94" type="line"/>
      <point x="176" y="311" type="line" smooth="yes"/>
      <point x="171" y="323"/>
      <point x="166" y="334"/>
      <point x="166" y="343" type="curve" smooth="yes"/>
      <point x="166" y="358"/>
      <point x="180" y="360"/>
      <point x="196" y="360" type="curve" smooth="yes"/>
      <point x="226" y="360" type="line"/>
      <point x="227" y="392" type="line"/>
      <point x="17" y="392" type="line"/>
    </contour>
  </outline>
</glyph>
<glyph name="x" format="1">
  <advance width="521"/>
  <unicode hex="0078"/>
  <outline>
    <contour>
      <point x="17" y="0" type="line"/>
      <point x="207" y="0" type="line"/>
      <point x="207" y="32" type="line"/>
      <point x="183" y="32" type="line" smooth="yes"/>
      <point x="154" y="32"/>
      <point x="136" y="33"/>
      <point x="136" y="42" type="curve" smooth="yes"/>
      <point x="136" y="46"/>
      <point x="140" y="52"/>
      <point x="149" y="62" type="curve" smooth="yes"/>
      <point x="249" y="168" type="line"/>
      <point x="332" y="71" type="line" smooth="yes"/>
      <point x="341" y="61"/>
      <point x="352" y="51"/>
      <point x="352" y="44" type="curve" smooth="yes"/>
      <point x="352" y="36"/>
      <point x="340" y="32"/>
      <point x="301" y="32" type="curve"/>
      <point x="301" y="0" type="line"/>
      <point x="503" y="0" type="line"/>
      <point x="503" y="32" type="line"/>
      <point x="500" y="32" type="line" smooth="yes"/>
      <point x="464" y="32"/>
      <point x="466" y="33"/>
      <point x="432" y="68" type="curve" smooth="yes"/>
      <point x="293" y="215" type="line"/>
      <point x="406" y="327" type="line" smooth="yes"/>
      <point x="439" y="360"/>
      <point x="438" y="360"/>
      <point x="499" y="360" type="curve"/>
      <point x="499" y="392" type="line"/>
      <point x="323" y="392" type="line"/>
      <point x="323" y="360" type="line"/>
      <point x="352" y="360"/>
      <point x="368" y="357"/>
      <point x="368" y="350" type="curve" smooth="yes"/>
      <point x="368" y="345"/>
      <point x="361" y="336"/>
      <point x="349" y="323" type="curve" smooth="yes"/>
      <point x="269" y="239" type="line"/>
      <point x="191" y="329" type="line"/>
      <point x="184" y="338"/>
      <point x="180" y="345"/>
      <point x="180" y="349" type="curve" smooth="yes"/>
      <point x="180" y="359"/>
      <point x="198" y="360"/>
      <point x="227" y="360" type="curve" smooth="yes"/>
      <point x="247" y="360" type="line"/>
      <point x="247" y="392" type="line"/>
      <point x="30" y="392" type="line"/>
      <point x="30" y="360" type="line"/>
      <point x="69" y="360"/>
      <point x="76" y="351"/>
      <point x="97" y="329" type="curve" smooth="yes"/>
      <point x="226" y="192" type="line"/>
      <point x="100" y="66" type="line" smooth="yes"/>
      <point x="67" y="34"/>
      <point x="56" y="32"/>
      <point x="26" y="32" type="curve" smooth="yes"/>
      <point x="18" y="32" type="line"/>
    </contour>
  </outline>
</glyph>
<glyph name="exclamdown" format="1">
  <advance width="305"/>
  <unicode hex="00A1"/>
  <outline>
    <contour>
      <point x="110" y="598"/>
      <point x="136" y="567"/>
      <point x="153" y="567" type="curve" smooth="yes"/>
      <point x="163" y="567"/>
      <point x="195" y="595"/>
      <point x="195" y="609" type="curve" smooth="yes"/>
      <point x="195" y="625"/>
      <point x="165" y="653"/>
      <point x="153" y="653" type="curve" smooth="yes"/>
      <point x="139" y="653"/>
      <point x="110" y="625"/>
      <point x="110" y="610" type="curve" smooth="yes"/>
    </contour>
    <contour>
      <point x="115" y="-6"/>
      <point x="119" y="-10"/>
      <point x="128" y="-10" type="curve" smooth="yes"/>
      <point x="134" y="-10"/>
      <point x="194" y="-5"/>
      <point x="194" y="23" type="curve" smooth="yes"/>
      <point x="194" y="78"/>
      <point x="188" y="307"/>
      <point x="176" y="456" type="curve"/>
      <point x="175" y="462"/>
      <point x="174" y="491"/>
      <point x="160" y="491" type="curve" smooth="yes"/>
      <point x="139" y="491"/>
      <point x="144" y="455"/>
      <point x="142" y="389" type="curve" smooth="yes"/>
      <point x="139" y="269"/>
      <point x="117" y="122"/>
      <point x="115" y="1" type="curve" smooth="yes"/>
    </contour>
  </outline>
</glyph>
<glyph name="currency" format="1">
  <advance width="521"/>
  <unicode hex="00A4"/>
  <outline>
    <contour>
      <point x="17" y="31"/>
      <point x="27" y="18"/>
      <point x="43" y="18" type="curve" smooth="yes"/>
      <point x="58" y="18"/>
      <point x="72" y="33"/>
      <point x="74" y="35" type="curve" smooth="yes"/>
      <point x="143" y="103" type="line"/>
      <point x="175" y="79"/>
      <point x="217" y="65"/>
      <point x="260" y="65" type="curve" smooth="yes"/>
      <point x="304" y="65"/>
      <point x="346" y="80"/>
      <point x="378" y="104" type="curve"/>
      <point x="447" y="35" type="line" smooth="yes"/>
      <point x="456" y="26"/>
      <point x="465" y="17"/>
      <point x="477" y="17" type="curve" smooth="yes"/>
      <point x="490" y="17"/>
      <point x="504" y="28"/>
      <point x="504" y="44" type="curve" smooth="yes"/>
      <point x="504" y="59"/>
      <point x="488" y="72"/>
      <point x="486" y="74" type="curve" smooth="yes"/>
      <point x="417" y="144" type="line"/>
      <point x="441" y="176"/>
      <point x="458" y="217"/>
      <point x="458" y="260" type="curve" smooth="yes"/>
      <point x="458" y="304"/>
      <point x="441" y="345"/>
      <point x="417" y="378" type="curve"/>
      <point x="486" y="448" type="line" smooth="yes"/>
      <point x="495" y="457"/>
      <point x="504" y="466"/>
      <point x="504" y="478" type="curve" smooth="yes"/>
      <point x="504" y="491"/>
      <point x="493" y="504"/>
      <point x="477" y="504" type="curve" smooth="yes"/>
      <point x="462" y="504"/>
      <point x="449" y="489"/>
      <point x="447" y="487" type="curve" smooth="yes"/>
      <point x="378" y="418" type="line"/>
      <point x="347" y="441"/>
      <point x="307" y="457"/>
      <point x="260" y="457" type="curve" smooth="yes"/>
      <point x="217" y="457"/>
      <point x="175" y="442"/>
      <point x="143" y="418" type="curve"/>
      <point x="74" y="487" type="line" smooth="yes"/>
      <point x="65" y="496"/>
      <point x="55" y="505"/>
      <point x="43" y="505" type="curve" smooth="yes"/>
      <point x="30" y="505"/>
      <point x="17" y="494"/>
      <point x="17" y="478" type="curve" smooth="yes"/>
      <point x="17" y="463"/>
      <point x="33" y="450"/>
      <point x="35" y="448" type="curve" smooth="yes"/>
      <point x="102" y="379" type="line"/>
      <point x="78" y="347"/>
      <point x="64" y="305"/>
      <point x="64" y="262" type="curve" smooth="yes"/>
      <point x="64" y="217"/>
      <point x="78" y="176"/>
      <point x="103" y="143" type="curve"/>
      <point x="35" y="74" type="line" smooth="yes"/>
      <point x="26" y="65"/>
      <point x="17" y="56"/>
      <point x="17" y="44" type="curve" smooth="yes"/>
    </contour>
    <contour>
      <point x="121" y="338"/>
      <point x="182" y="404"/>
      <point x="260" y="404" type="curve" smooth="yes"/>
      <point x="337" y="404"/>
      <point x="400" y="338"/>
      <point x="400" y="261" type="curve" smooth="yes"/>
      <point x="400" y="183"/>
      <point x="336" y="120"/>
      <point x="260" y="120" type="curve" smooth="yes"/>
      <point x="184" y="120"/>
      <point x="121" y="181"/>
      <point x="121" y="260" type="curve" smooth="yes"/>
    </contour>
  </outline>
</glyph>
<glyph name="brokenbar" format="1">
  <advance width="220"/>
  <unicode hex="00A6"/>
  <outline>
    <contour>
      <point x="88" y="144" type="line"/>
      <point x="88" y="-231" type="line"/>
      <point x="132" y="-231" type="line"/>
      <point x="132" y="144" type="line"/>
    </contour>
    <contour>
      <point x="88" y="331" type="line"/>
      <point x="132" y="331" type="line"/>
      <point x="132" y="706" type="line"/>
      <point x="88" y="706" type="line"/>
    </contour>
  </outline>
</glyph>
<glyph name="dieresis" format="1">
  <advance width="390"/>
  <unicode hex="00A8"/>
  <outline>
    <contour>
      <point x="83" y="532"/>
      <point x="113" y="504"/>
      <point x="124" y="504" type="curve" smooth="yes"/>
      <point x="137" y="504"/>
      <point x="168" y="530"/>
      <point x="168" y="546" type="curve" smooth="yes"/>
      <point x="168" y="557"/>
      <point x="144" y="591"/>
      <point x="126" y="591" type="curve" smooth="yes"/>
      <point x="116" y="591"/>
      <point x="83" y="563"/>
      <point x="83" y="549" type="curve" smooth="yes"/>
    </contour>
    <contour>
      <point x="229" y="532"/>
      <point x="259" y="504"/>
      <point x="270" y="504" type="curve" smooth="yes"/>
      <point x="283" y="504"/>
      <point x="314" y="530"/>
      <point x="314" y="546" type="curve" smooth="yes"/>
      <point x="314" y="557"/>
      <point x="291" y="591"/>
      <point x="273" y="591" type="curve" smooth="yes"/>
      <point x="263" y="591"/>
      <point x="229" y="563"/>
      <point x="229" y="549" type="curve" smooth="yes"/>
    </contour>
  </outline>
</glyph>
<glyph name="copyright" format="1">
  <advance width="808"/>
  <unicode hex="00A9"/>
  <outline>
    <contour>
      <point x="44" y="30"/>
      <point x="194" y="-128"/>
      <point x="408" y="-128" type="curve" smooth="yes"/>
      <point x="617" y="-128"/>
      <point x="764" y="41"/>
      <point x="764" y="237" type="curve" smooth="yes"/>
      <point x="764" y="435"/>
      <point x="613" y="599"/>
      <point x="409" y="599" type="curve" smooth="yes"/>
      <point x="202" y="599"/>
      <point x="44" y="435"/>
      <point x="44" y="237" type="curve" smooth="yes"/>
    </contour>
    <contour>
      <point x="88" y="412"/>
      <point x="228" y="559"/>
      <point x="408" y="559" type="curve" smooth="yes"/>
      <point x="592" y="559"/>
      <point x="720" y="410"/>
      <point x="720" y="239" type="curve" smooth="yes"/>
      <point x="720" y="54"/>
      <point x="580" y="-89"/>
      <point x="409" y="-89" type="curve" smooth="yes"/>
      <point x="224" y="-89"/>
      <point x="88" y="56"/>
      <point x="88" y="237" type="curve" smooth="yes"/>
    </contour>
    <contour>
      <point x="163" y="102"/>
      <point x="252" y="-6"/>
      <point x="408" y="-6" type="curve" smooth="yes"/>
      <point x="526" y="-6"/>
      <point x="589" y="55"/>
      <point x="589" y="55" type="curve"/>
      <point x="589" y="110" type="line" smooth="yes"/>
      <point x="589" y="122"/>
      <point x="589" y="127"/>
      <point x="587" y="127" type="curve" smooth="yes"/>
      <point x="579" y="127"/>
      <point x="548" y="34"/>
      <point x="425" y="34" type="curve" smooth="yes"/>
      <point x="311" y="34"/>
      <point x="230" y="134"/>
      <point x="230" y="236" type="curve" smooth="yes"/>
      <point x="230" y="333"/>
      <point x="301" y="422"/>
      <point x="409" y="422" type="curve" smooth="yes"/>
      <point x="525" y="422"/>
      <point x="563" y="338"/>
      <point x="573" y="338" type="curve" smooth="yes"/>
      <point x="575" y="338"/>
      <point x="576" y="342"/>
      <point x="576" y="354" type="curve" smooth="yes"/>
      <point x="576" y="424" type="line"/>
      <point x="565" y="427"/>
      <point x="519" y="464"/>
      <point x="407" y="464" type="curve" smooth="yes"/>
      <point x="299" y="464"/>
      <point x="163" y="391"/>
      <point x="163" y="226" type="curve" smooth="yes"/>
    </contour>
  </outline>
</glyph>
<glyph name="ordfeminine" format="1">
  <advance width="384"/>
  <unicode hex="00AA"/>
  <outline>
    <contour>
      <point x="44" y="420"/>
      <point x="87" y="401"/>
      <point x="123" y="401" type="curve" smooth="yes"/>
      <point x="161" y="401"/>
      <point x="201" y="426"/>
      <point x="223" y="455" type="curve"/>
      <point x="242" y="434"/>
      <point x="250" y="417"/>
      <point x="281" y="396" type="curve"/>
      <point x="283" y="397"/>
      <point x="312" y="413"/>
      <point x="332" y="425" type="curve"/>
      <point x="338" y="428"/>
      <point x="340" y="432"/>
      <point x="340" y="434" type="curve" smooth="yes"/>
      <point x="340" y="436"/>
      <point x="338" y="439"/>
      <point x="332" y="440" type="curve"/>
      <point x="284" y="453"/>
      <point x="277" y="479"/>
      <point x="277" y="514" type="curve" smooth="yes"/>
      <point x="277" y="665" type="line" smooth="yes"/>
      <point x="277" y="724"/>
      <point x="221" y="729"/>
      <point x="201" y="729" type="curve" smooth="yes"/>
      <point x="77" y="729"/>
      <point x="51" y="657"/>
      <point x="51" y="639" type="curve" smooth="yes"/>
      <point x="51" y="630"/>
      <point x="53" y="610"/>
      <point x="71" y="610" type="curve" smooth="yes"/>
      <point x="78" y="610"/>
      <point x="99" y="619"/>
      <point x="99" y="631" type="curve" smooth="yes"/>
      <point x="99" y="639"/>
      <point x="94" y="651"/>
      <point x="91" y="665" type="curve"/>
      <point x="91" y="665"/>
      <point x="100" y="689"/>
      <point x="159" y="689" type="curve" smooth="yes"/>
      <point x="210" y="689"/>
      <point x="215" y="664"/>
      <point x="215" y="634" type="curve" smooth="yes"/>
      <point x="215" y="586" type="line"/>
      <point x="118" y="586"/>
      <point x="44" y="529"/>
      <point x="44" y="463" type="curve" smooth="yes"/>
    </contour>
    <contour>
      <point x="106" y="522"/>
      <point x="145" y="563"/>
      <point x="215" y="563" type="curve"/>
      <point x="215" y="490" type="line" smooth="yes"/>
      <point x="215" y="473"/>
      <point x="204" y="447"/>
      <point x="155" y="447" type="curve" smooth="yes"/>
      <point x="118" y="447"/>
      <point x="106" y="466"/>
      <point x="106" y="487" type="curve" smooth="yes"/>
    </contour>
  </outline>
</glyph>
<glyph name="logicalnot" format="1">
  <advance width="720"/>
  <unicode hex="00AC"/>
  <outline>
    <contour>
      <point x="80" y="206" type="line"/>
      <point x="581" y="206" type="line"/>
      <point x="581" y="-33" type="line"/>
      <point x="640" y="-33" type="line"/>
      <point x="640" y="264" type="line"/>
      <point x="80" y="264" type="line"/>
    </contour>
  </outline>
</glyph>
<glyph name="macron" format="1">
  <advance width="390"/>
  <unicode hex="00AF"/>
  <outline>
    <contour>
      <point x="86" y="520" type="line"/>
      <point x="316" y="520" type="line"/>
      <point x="316" y="568" type="line"/>
      <point x="86" y="568" type="line"/>
    </contour>
  </outline>
</glyph>
<glyph name="plusminus" format="1">
  <advance width="725"/>
  <unicode hex="00B1"/>
  <outline>
    <contour>
      <point x="80" y="-23" type="line"/>
      <point x="645" y="-23" type="line"/>
      <point x="645" y="36" type="line"/>
      <point x="80" y="36" type="line"/>
    </contour>
    <contour>
      <point x="80" y="289" type="line"/>
      <point x="298" y="289"/>
      <point x="338" y="293"/>
      <point x="338" y="293" type="curve" smooth="yes"/>
      <point x="338" y="293"/>
      <point x="333" y="252"/>
      <point x="333" y="75" type="curve"/>
      <point x="392" y="75" type="line"/>
      <point x="392" y="254"/>
      <point x="387" y="293"/>
      <point x="387" y="293" type="curve" smooth="yes"/>
      <point x="387" y="293"/>
      <point x="426" y="289"/>
      <point x="645" y="289" type="curve"/>
      <point x="645" y="347" type="line"/>
      <point x="437" y="347"/>
      <point x="387" y="343"/>
      <point x="387" y="343" type="curve" smooth="yes"/>
      <point x="387" y="343"/>
      <point x="392" y="392"/>
      <point x="392" y="561" type="curve"/>
      <point x="333" y="561" type="line"/>
      <point x="333" y="383"/>
      <point x="338" y="343"/>
      <point x="338" y="343" type="curve" smooth="yes"/>
      <point x="338" y="343"/>
      <point x="298" y="347"/>
      <point x="80" y="347" type="curve"/>
    </contour>
  </outline>
</glyph>
<glyph name="acute" format="1">
  <advance width="390"/>
  <unicode hex="00B4"/>
  <outline>
    <contour>
      <point x="172" y="468" type="line"/>
      <point x="208" y="468" type="line"/>
      <point x="294" y="630" type="line"/>
      <point x="224" y="630" type="line"/>
    </contour>
  </outline>
</glyph>
<glyph name="paragraph" format="1">
  <advance width="701"/>
  <unicode hex="00B6"/>
  <outline>
    <contour>
      <point x="44" y="178"/>
      <point x="105" y="42"/>
      <point x="243" y="-21" type="curve" smooth="yes"/>
      <point x="350" y="-70"/>
      <point x="602" y="-78"/>
      <point x="602" y="-140" type="curve" smooth="yes"/>
      <point x="602" y="-148"/>
      <point x="595" y="-154"/>
      <point x="595" y="-165" type="curve" smooth="yes"/>
      <point x="595" y="-191"/>
      <point x="615" y="-191"/>
      <point x="622" y="-191" type="curve" smooth="yes"/>
      <point x="649" y="-191"/>
      <point x="664" y="-159"/>
      <point x="664" y="-130" type="curve" smooth="yes"/>
      <point x="664" y="-18"/>
      <point x="450" y="-39"/>
      <point x="347" y="-14" type="curve"/>
      <point x="347" y="657" type="line"/>
      <point x="355" y="657"/>
      <point x="376" y="662"/>
      <point x="403" y="662" type="curve" smooth="yes"/>
      <point x="476" y="662"/>
      <point x="497" y="627"/>
      <point x="518" y="627" type="curve" smooth="yes"/>
      <point x="526" y="627"/>
      <point x="536" y="634"/>
      <point x="536" y="646" type="curve" smooth="yes"/>
      <point x="536" y="662"/>
      <point x="505" y="694"/>
      <point x="412" y="694" type="curve" smooth="yes"/>
      <point x="215" y="694"/>
      <point x="44" y="557"/>
      <point x="44" y="341" type="curve" smooth="yes"/>
    </contour>
    <contour>
      <point x="210" y="598" type="line"/>
      <point x="227" y="613"/>
      <point x="257" y="634"/>
      <point x="310" y="647" type="curve"/>
      <point x="310" y="-6" type="line"/>
      <point x="265" y="6"/>
      <point x="238" y="19"/>
      <point x="210" y="43" type="curve"/>
    </contour>
  </outline>
</glyph>
<glyph name="periodcentered" format="1">
  <advance width="201"/>
  <unicode hex="00B7"/>
  <outline>
    <contour>
      <point x="58" y="318"/>
      <point x="88" y="291"/>
      <point x="99" y="291" type="curve" smooth="yes"/>
      <point x="112" y="291"/>
      <point x="143" y="316"/>
      <point x="143" y="332" type="curve" smooth="yes"/>
      <point x="143" y="343"/>
      <point x="119" y="377"/>
      <point x="101" y="377" type="curve" smooth="yes"/>
      <point x="91" y="377"/>
      <point x="58" y="349"/>
      <point x="58" y="335" type="curve" smooth="yes"/>
    </contour>
  </outline>
</glyph>
<glyph name="cedilla" format="1">
  <advance width="390"/>
  <unicode hex="00B8"/>
  <outline>
    <contour>
      <point x="142" y="-207" type="line"/>
      <point x="142" y="-207"/>
      <point x="159" y="-220"/>
      <point x="207" y="-220" type="curve" smooth="yes"/>
      <point x="259" y="-220"/>
      <point x="315" y="-194"/>
      <point x="315" y="-141" type="curve" smooth="yes"/>
      <point x="315" y="-84"/>
      <point x="256" y="-65"/>
      <point x="200" y="-65" type="curve" smooth="yes"/>
      <point x="194" y="-65"/>
      <point x="189" y="-66"/>
      <point x="183" y="-66" type="curve"/>
      <point x="205" y="7" type="line"/>
      <point x="182" y="7" type="line"/>
      <point x="154" y="-79" type="line"/>
      <point x="166" y="-96" type="line"/>
      <point x="173" y="-95"/>
      <point x="179" y="-95"/>
      <point x="186" y="-95" type="curve" smooth="yes"/>
      <point x="220" y="-95"/>
      <point x="260" y="-106"/>
      <point x="260" y="-143" type="curve" smooth="yes"/>
      <point x="260" y="-175"/>
      <point x="241" y="-193"/>
      <point x="212" y="-193" type="curve" smooth="yes"/>
      <point x="193" y="-193"/>
      <point x="163" y="-183"/>
      <point x="163" y="-183" type="curve"/>
    </contour>
  </outline>
</glyph>
<glyph name="ordmasculine" format="1">
  <advance width="403"/>
  <unicode hex="00BA"/>
  <outline>
    <contour>
      <point x="44" y="486"/>
      <point x="94" y="398"/>
      <point x="198" y="398" type="curve" smooth="yes"/>
      <point x="297" y="398"/>
      <point x="359" y="468"/>
      <point x="359" y="558" type="curve" smooth="yes"/>
      <point x="359" y="629"/>
      <point x="326" y="732"/>
      <point x="196" y="732" type="curve" smooth="yes"/>
      <point x="91" y="732"/>
      <point x="44" y="650"/>
      <point x="44" y="567" type="curve" smooth="yes"/>
    </contour>
    <contour>
      <point x="113" y="664"/>
      <point x="149" y="703"/>
      <point x="190" y="703" type="curve" smooth="yes"/>
      <point x="240" y="703"/>
      <point x="285" y="656"/>
      <point x="285" y="560" type="curve" smooth="yes"/>
      <point x="285" y="495"/>
      <point x="265" y="431"/>
      <point x="207" y="431" type="curve" smooth="yes"/>
      <point x="149" y="431"/>
      <point x="113" y="513"/>
      <point x="113" y="586" type="curve" smooth="yes"/>
    </contour>
  </outline>
</glyph>
<glyph name="guillemotright" format="1">
  <advance width="381"/>
  <unicode hex="00BB"/>
  <outline>
    <contour>
      <point x="40" y="102" type="line"/>
      <point x="56" y="83" type="line"/>
      <point x="208" y="216" type="line"/>
      <point x="56" y="349" type="line"/>
      <point x="40" y="331" type="line"/>
      <point x="133" y="216" type="line"/>
    </contour>
    <contour>
      <point x="173" y="102" type="line"/>
      <point x="189" y="83" type="line"/>
      <point x="341" y="216" type="line"/>
      <point x="189" y="349" type="line"/>
      <point x="173" y="331" type="line"/>
      <point x="266" y="216" type="line"/>
    </contour>
  </outline>
</glyph>
<glyph name="onequarter" format="1">
  <advance width="954"/>
  <unicode hex="00BC"/>
  <outline>
    <contour>
      <point x="548" y="120"/>
      <point x="553" y="120"/>
      <point x="558" y="120" type="curve" smooth="yes"/>
      <point x="770" y="120" type="line"/>
      <point x="770" y="-10" type="line"/>
      <point x="833" y="-10" type="line"/>
      <point x="833" y="120" type="line"/>
      <point x="898" y="120" type="line"/>
      <point x="914" y="176" type="line"/>
      <point x="833" y="176" type="line"/>
      <point x="833" y="427" type="line" smooth="yes"/>
      <point x="833" y="436"/>
      <point x="833" y="444"/>
      <point x="828" y="444" type="curve" smooth="yes"/>
      <point x="826" y="444"/>
      <point x="821" y="443"/>
      <point x="816" y="437" type="curve" smooth="yes"/>
      <point x="676" y="269"/>
      <point x="605" y="196"/>
      <point x="572" y="160" type="curve" smooth="yes"/>
      <point x="554" y="140"/>
      <point x="548" y="132"/>
      <point x="548" y="125" type="curve" smooth="yes"/>
    </contour>
    <contour>
      <point x="627" y="176" type="line"/>
      <point x="770" y="341" type="line"/>
      <point x="770" y="176" type="line"/>
    </contour>
    <contour>
      <point x="203" y="-37" type="line"/>
      <point x="254" y="-37" type="line"/>
      <point x="771" y="700" type="line"/>
      <point x="720" y="700" type="line"/>
    </contour>
    <contour>
      <point x="70" y="244" type="line"/>
      <point x="304" y="244" type="line"/>
      <point x="304" y="273" type="line"/>
      <point x="225" y="274"/>
      <point x="212" y="270"/>
      <point x="212" y="301" type="curve" smooth="yes"/>
      <point x="212" y="534" type="line" smooth="yes"/>
      <point x="212" y="600"/>
      <point x="218" y="693"/>
      <point x="218" y="693" type="curve"/>
      <point x="204" y="694" type="line"/>
      <point x="196" y="681"/>
      <point x="193" y="665"/>
      <point x="163" y="665" type="curve" smooth="yes"/>
      <point x="75" y="665" type="line"/>
      <point x="74" y="637" type="line"/>
      <point x="115" y="637" type="line" smooth="yes"/>
      <point x="143" y="637"/>
      <point x="148" y="634"/>
      <point x="148" y="610" type="curve" smooth="yes"/>
      <point x="148" y="301" type="line" smooth="yes"/>
      <point x="148" y="269"/>
      <point x="135" y="274"/>
      <point x="70" y="273" type="curve"/>
    </contour>
  </outline>
</glyph>
<glyph name="onehalf" format="1">
  <advance width="987"/>
  <unicode hex="00BD"/>
  <outline>
    <contour>
      <point x="628" y="1"/>
      <point x="638" y="0"/>
      <point x="646" y="0" type="curve" smooth="yes"/>
      <point x="894" y="0" type="line" smooth="yes"/>
      <point x="928" y="0"/>
      <point x="927" y="2"/>
      <point x="929" y="4" type="curve"/>
      <point x="937" y="9"/>
      <point x="947" y="59"/>
      <point x="947" y="64" type="curve" smooth="yes"/>
      <point x="947" y="70"/>
      <point x="945" y="72"/>
      <point x="941" y="72" type="curve" smooth="yes"/>
      <point x="927" y="72"/>
      <point x="865" y="38"/>
      <point x="719" y="38" type="curve" smooth="yes"/>
      <point x="711" y="38"/>
      <point x="705" y="39"/>
      <point x="705" y="41" type="curve" smooth="yes"/>
      <point x="705" y="52"/>
      <point x="917" y="187"/>
      <point x="917" y="312" type="curve" smooth="yes"/>
      <point x="917" y="383"/>
      <point x="864" y="438"/>
      <point x="774" y="438" type="curve" smooth="yes"/>
      <point x="695" y="438"/>
      <point x="643" y="399"/>
      <point x="643" y="368" type="curve" smooth="yes"/>
      <point x="643" y="363"/>
      <point x="645" y="359"/>
      <point x="651" y="359" type="curve" smooth="yes"/>
      <point x="668" y="359"/>
      <point x="669" y="395"/>
      <point x="747" y="395" type="curve" smooth="yes"/>
      <point x="772" y="395"/>
      <point x="835" y="383"/>
      <point x="835" y="307" type="curve" smooth="yes"/>
      <point x="835" y="179"/>
      <point x="628" y="19"/>
      <point x="628" y="6" type="curve" smooth="yes"/>
    </contour>
    <contour>
      <point x="203" y="-37" type="line"/>
      <point x="254" y="-37" type="line"/>
      <point x="771" y="700" type="line"/>
      <point x="720" y="700" type="line"/>
    </contour>
    <contour>
      <point x="70" y="244" type="line"/>
      <point x="304" y="244" type="line"/>
      <point x="304" y="273" type="line"/>
      <point x="225" y="274"/>
      <point x="212" y="270"/>
      <point x="212" y="301" type="curve" smooth="yes"/>
      <point x="212" y="534" type="line" smooth="yes"/>
      <point x="212" y="600"/>
      <point x="218" y="693"/>
      <point x="218" y="693" type="curve"/>
      <point x="204" y="694" type="line"/>
      <point x="196" y="681"/>
      <point x="193" y="665"/>
      <point x="163" y="665" type="curve" smooth="yes"/>
      <point x="75" y="665" type="line"/>
      <point x="74" y="637" type="line"/>
      <point x="115" y="637" type="line" smooth="yes"/>
      <point x="143" y="637"/>
      <point x="148" y="634"/>
      <point x="148" y="610" type="curve" smooth="yes"/>
      <point x="148" y="301" type="line" smooth="yes"/>
      <point x="148" y="269"/>
      <point x="135" y="274"/>
      <point x="70" y="273" type="curve"/>
    </contour>
  </outline>
</glyph>
<glyph name="threequarters" format="1">
  <advance width="985"/>
  <unicode hex="00BE"/>
  <outline>
    <contour>
      <point x="579" y="120"/>
      <point x="584" y="120"/>
      <point x="589" y="120" type="curve" smooth="yes"/>
      <point x="801" y="120" type="line"/>
      <point x="801" y="-10" type="line"/>
      <point x="864" y="-10" type="line"/>
      <point x="864" y="120" type="line"/>
      <point x="929" y="120" type="line"/>
      <point x="945" y="176" type="line"/>
      <point x="864" y="176" type="line"/>
      <point x="864" y="427" type="line" smooth="yes"/>
      <point x="864" y="436"/>
      <point x="864" y="444"/>
      <point x="859" y="444" type="curve" smooth="yes"/>
      <point x="857" y="444"/>
      <point x="852" y="443"/>
      <point x="847" y="437" type="curve" smooth="yes"/>
      <point x="707" y="269"/>
      <point x="636" y="196"/>
      <point x="603" y="160" type="curve" smooth="yes"/>
      <point x="585" y="140"/>
      <point x="579" y="132"/>
      <point x="579" y="125" type="curve" smooth="yes"/>
    </contour>
    <contour>
      <point x="658" y="176" type="line"/>
      <point x="801" y="341" type="line"/>
      <point x="801" y="176" type="line"/>
    </contour>
    <contour>
      <point x="234" y="-37" type="line"/>
      <point x="285" y="-37" type="line"/>
      <point x="802" y="700" type="line"/>
      <point x="751" y="700" type="line"/>
    </contour>
    <contour>
      <point x="40" y="259"/>
      <point x="104" y="233"/>
      <point x="174" y="233" type="curve" smooth="yes"/>
      <point x="264" y="233"/>
      <point x="355" y="273"/>
      <point x="355" y="365" type="curve" smooth="yes"/>
      <point x="355" y="469"/>
      <point x="202" y="486"/>
      <point x="202" y="486" type="curve" smooth="yes"/>
      <point x="202" y="486"/>
      <point x="318" y="514"/>
      <point x="318" y="595" type="curve" smooth="yes"/>
      <point x="318" y="654"/>
      <point x="254" y="684"/>
      <point x="191" y="684" type="curve" smooth="yes"/>
      <point x="103" y="684"/>
      <point x="65" y="633"/>
      <point x="65" y="619" type="curve" smooth="yes"/>
      <point x="65" y="612"/>
      <point x="68" y="608"/>
      <point x="74" y="608" type="curve" smooth="yes"/>
      <point x="91" y="608"/>
      <point x="100" y="641"/>
      <point x="164" y="641" type="curve" smooth="yes"/>
      <point x="214" y="641"/>
      <point x="239" y="602"/>
      <point x="239" y="577" type="curve" smooth="yes"/>
      <point x="239" y="558"/>
      <point x="232" y="508"/>
      <point x="170" y="495" type="curve" smooth="yes"/>
      <point x="150" y="491"/>
      <point x="137" y="491"/>
      <point x="137" y="478" type="curve" smooth="yes"/>
      <point x="137" y="467"/>
      <point x="152" y="470"/>
      <point x="176" y="466" type="curve" smooth="yes"/>
      <point x="235" y="457"/>
      <point x="277" y="408"/>
      <point x="277" y="366" type="curve" smooth="yes"/>
      <point x="277" y="332"/>
      <point x="258" y="268"/>
      <point x="164" y="268" type="curve" smooth="yes"/>
      <point x="90" y="268"/>
      <point x="68" y="293"/>
      <point x="53" y="293" type="curve" smooth="yes"/>
      <point x="49" y="293"/>
      <point x="40" y="292"/>
      <point x="40" y="282" type="curve" smooth="yes"/>
    </contour>
  </outline>
</glyph>
<glyph name="questiondown" format="1">
  <advance width="397"/>
  <unicode hex="00BF"/>
  <outline>
    <contour>
      <point x="60" y="85"/>
      <point x="186" y="-9"/>
      <point x="228" y="-9" type="curve" smooth="yes"/>
      <point x="272" y="-9"/>
      <point x="317" y="38"/>
      <point x="317" y="54" type="curve" smooth="yes"/>
      <point x="317" y="63"/>
      <point x="312" y="66"/>
      <point x="303" y="66" type="curve" smooth="yes"/>
      <point x="275" y="66"/>
      <point x="258" y="65"/>
      <point x="242" y="65" type="curve" smooth="yes"/>
      <point x="176" y="65"/>
      <point x="113" y="111"/>
      <point x="113" y="147" type="curve" smooth="yes"/>
      <point x="113" y="248"/>
      <point x="289" y="288"/>
      <point x="289" y="401" type="curve" smooth="yes"/>
      <point x="289" y="482"/>
      <point x="223" y="528"/>
      <point x="198" y="528" type="curve" smooth="yes"/>
      <point x="189" y="528"/>
      <point x="184" y="522"/>
      <point x="184" y="515" type="curve" smooth="yes"/>
      <point x="184" y="496"/>
      <point x="231" y="483"/>
      <point x="231" y="430" type="curve" smooth="yes"/>
      <point x="231" y="376"/>
      <point x="156" y="342"/>
      <point x="88" y="262" type="curve" smooth="yes"/>
      <point x="66" y="236"/>
      <point x="60" y="217"/>
      <point x="60" y="185" type="curve" smooth="yes"/>
    </contour>
    <contour>
      <point x="159" y="606"/>
      <point x="189" y="573"/>
      <point x="206" y="573" type="curve" smooth="yes"/>
      <point x="219" y="573"/>
      <point x="255" y="601"/>
      <point x="255" y="620" type="curve" smooth="yes"/>
      <point x="255" y="632"/>
      <point x="223" y="667"/>
      <point x="208" y="667" type="curve" smooth="yes"/>
      <point x="190" y="667"/>
      <point x="159" y="633"/>
      <point x="159" y="621" type="curve" smooth="yes"/>
    </contour>
  </outline>
</glyph>
<glyph name="Adieresis" format="1">
  <advance width="726"/>
  <unicode hex="00C4"/>
  <outline>
    <contour>
      <point x="254" y="794"/>
      <point x="284" y="766"/>
      <point x="295" y="766" type="curve" smooth="yes"/>
      <point x="308" y="766"/>
      <point x="339" y="792"/>
      <point x="339" y="808" type="curve" smooth="yes"/>
      <point x="339" y="819"/>
      <point x="316" y="853"/>
      <point x="298" y="853" type="curve" smooth="yes"/>
      <point x="288" y="853"/>
      <point x="254" y="825"/>
      <point x="254" y="811" type="curve" smooth="yes"/>
    </contour>
    <contour>
      <point x="401" y="794"/>
      <point x="431" y="766"/>
      <point x="442" y="766" type="curve" smooth="yes"/>
      <point x="455" y="766"/>
      <point x="486" y="792"/>
      <point x="486" y="808" type="curve" smooth="yes"/>
      <point x="486" y="819"/>
      <point x="462" y="853"/>
      <point x="444" y="853" type="curve" smooth="yes"/>
      <point x="434" y="853"/>
      <point x="401" y="825"/>
      <point x="401" y="811" type="curve" smooth="yes"/>
    </contour>
    <contour>
      <point x="27" y="39" type="line"/>
      <point x="28" y="0" type="line"/>
      <point x="222" y="0" type="line"/>
      <point x="222" y="39" type="line"/>
      <point x="181" y="39" type="line" smooth="yes"/>
      <point x="149" y="39"/>
      <point x="140" y="40"/>
      <point x="140" y="56" type="curve" smooth="yes"/>
      <point x="140" y="63"/>
      <point x="145" y="76"/>
      <point x="150" y="88" type="curve" smooth="yes"/>
      <point x="229" y="264" type="line"/>
      <point x="461" y="264" type="line"/>
      <point x="535" y="82" type="line" smooth="yes"/>
      <point x="541" y="66"/>
      <point x="545" y="57"/>
      <point x="545" y="51" type="curve" smooth="yes"/>
      <point x="545" y="40"/>
      <point x="531" y="39"/>
      <point x="501" y="39" type="curve" smooth="yes"/>
      <point x="471" y="39" type="line"/>
      <point x="470" y="0" type="line"/>
      <point x="698" y="0" type="line"/>
      <point x="699" y="39" type="line"/>
      <point x="684" y="39" type="line" smooth="yes"/>
      <point x="643" y="39"/>
      <point x="641" y="47"/>
      <point x="597" y="155" type="curve" smooth="yes"/>
      <point x="515" y="353"/>
      <point x="419" y="589"/>
      <point x="380" y="691" type="curve"/>
      <point x="359" y="691" type="line"/>
      <point x="257" y="443" type="line" smooth="yes"/>
      <point x="243" y="410"/>
      <point x="242" y="410"/>
      <point x="109" y="113" type="curve" smooth="yes"/>
      <point x="78" y="44"/>
      <point x="77" y="39"/>
      <point x="39" y="39" type="curve" smooth="yes"/>
    </contour>
    <contour>
      <point x="248" y="308" type="line"/>
      <point x="349" y="545" type="line"/>
      <point x="444" y="308" type="line"/>
    </contour>
  </outline>
</glyph>
<glyph name="Aring" format="1">
  <advance width="726"/>
  <unicode hex="00C5"/>
  <outline>
    <contour>
      <point x="288" y="761"/>
      <point x="330" y="730"/>
      <point x="372" y="730" type="curve" smooth="yes"/>
      <point x="414" y="730"/>
      <point x="450" y="766"/>
      <point x="450" y="807" type="curve" smooth="yes"/>
      <point x="450" y="848"/>
      <point x="413" y="887"/>
      <point x="370" y="887" type="curve" smooth="yes"/>
      <point x="328" y="887"/>
      <point x="288" y="841"/>
      <point x="288" y="803" type="curve" smooth="yes"/>
    </contour>
    <contour>
      <point x="323" y="816"/>
      <point x="330" y="855"/>
      <point x="370" y="855" type="curve" smooth="yes"/>
      <point x="388" y="855"/>
      <point x="416" y="846"/>
      <point x="416" y="807" type="curve" smooth="yes"/>
      <point x="416" y="770"/>
      <point x="392" y="760"/>
      <point x="371" y="760" type="curve" smooth="yes"/>
      <point x="342" y="760"/>
      <point x="323" y="776"/>
      <point x="323" y="804" type="curve" smooth="yes"/>
    </contour>
    <contour>
      <point x="27" y="39" type="line"/>
      <point x="28" y="0" type="line"/>
      <point x="222" y="0" type="line"/>
      <point x="222" y="39" type="line"/>
      <point x="181" y="39" type="line" smooth="yes"/>
      <point x="149" y="39"/>
      <point x="140" y="40"/>
      <point x="140" y="56" type="curve" smooth="yes"/>
      <point x="140" y="63"/>
      <point x="145" y="76"/>
      <point x="150" y="88" type="curve" smooth="yes"/>
      <point x="229" y="264" type="line"/>
      <point x="461" y="264" type="line"/>
      <point x="535" y="82" type="line" smooth="yes"/>
      <point x="541" y="66"/>
      <point x="545" y="57"/>
      <point x="545" y="51" type="curve" smooth="yes"/>
      <point x="545" y="40"/>
      <point x="531" y="39"/>
      <point x="501" y="39" type="curve" smooth="yes"/>
      <point x="471" y="39" type="line"/>
      <point x="470" y="0" type="line"/>
      <point x="698" y="0" type="line"/>
      <point x="699" y="39" type="line"/>
      <point x="684" y="39" type="line" smooth="yes"/>
      <point x="643" y="39"/>
      <point x="641" y="47"/>
      <point x="597" y="155" type="curve" smooth="yes"/>
      <point x="515" y="353"/>
      <point x="419" y="589"/>
      <point x="380" y="691" type="curve"/>
      <point x="359" y="691" type="line"/>
      <point x="257" y="443" type="line" smooth="yes"/>
      <point x="243" y="410"/>
      <point x="242" y="410"/>
      <point x="109" y="113" type="curve" smooth="yes"/>
      <point x="78" y="44"/>
      <point x="77" y="39"/>
      <point x="39" y="39" type="curve" smooth="yes"/>
    </contour>
    <contour>
      <point x="248" y="308" type="line"/>
      <point x="349" y="545" type="line"/>
      <point x="444" y="308" type="line"/>
    </contour>
  </outline>
</glyph>
<glyph name="AE" format="1">
  <advance width="1053"/>
  <unicode hex="00C6"/>
  <outline>
    <contour>
      <point x="27" y="0" type="line"/>
      <point x="231" y="0" type="line"/>
      <point x="231" y="39" type="line"/>
      <point x="201" y="39" type="line" smooth="yes"/>
      <point x="168" y="39"/>
      <point x="152" y="40"/>
      <point x="152" y="52" type="curve" smooth="yes"/>
      <point x="152" y="59"/>
      <point x="158" y="71"/>
      <point x="170" y="88" type="curve" smooth="yes"/>
      <point x="295" y="264" type="line"/>
      <point x="564" y="264" type="line"/>
      <point x="564" y="77" type="line" smooth="yes"/>
      <point x="564" y="39"/>
      <point x="561" y="39"/>
      <point x="499" y="39" type="curve" smooth="yes"/>
      <point x="485" y="39" type="line"/>
      <point x="485" y="0" type="line"/>
      <point x="991" y="0" type="line"/>
      <point x="1016" y="155" type="line"/>
      <point x="982" y="160" type="line"/>
      <point x="978" y="139"/>
      <point x="973" y="99"/>
      <point x="966" y="76" type="curve" smooth="yes"/>
      <point x="959" y="50"/>
      <point x="968" y="49"/>
      <point x="676" y="46" type="curve" smooth="yes"/>
      <point x="650" y="46"/>
      <point x="645" y="52"/>
      <point x="645" y="87" type="curve" smooth="yes"/>
      <point x="645" y="323" type="line" smooth="yes"/>
      <point x="645" y="349"/>
      <point x="646" y="354"/>
      <point x="680" y="354" type="curve" smooth="yes"/>
      <point x="831" y="354" type="line" smooth="yes"/>
      <point x="864" y="354"/>
      <point x="866" y="354"/>
      <point x="866" y="297" type="curve" smooth="yes"/>
      <point x="866" y="246" type="line"/>
      <point x="903" y="246" type="line"/>
      <point x="903" y="485" type="line"/>
      <point x="866" y="486" type="line"/>
      <point x="866" y="446" type="line" smooth="yes"/>
      <point x="866" y="402"/>
      <point x="863" y="398"/>
      <point x="828" y="398" type="curve" smooth="yes"/>
      <point x="678" y="398" type="line" smooth="yes"/>
      <point x="646" y="398"/>
      <point x="645" y="401"/>
      <point x="645" y="438" type="curve" smooth="yes"/>
      <point x="645" y="577" type="line" smooth="yes"/>
      <point x="645" y="622"/>
      <point x="647" y="624"/>
      <point x="702" y="624" type="curve" smooth="yes"/>
      <point x="872" y="624" type="line" smooth="yes"/>
      <point x="893" y="624"/>
      <point x="911" y="624"/>
      <point x="921" y="623" type="curve"/>
      <point x="935" y="621"/>
      <point x="941" y="611"/>
      <point x="945" y="508" type="curve"/>
      <point x="984" y="510" type="line"/>
      <point x="981" y="567"/>
      <point x="980" y="610"/>
      <point x="979" y="667" type="curve"/>
      <point x="431" y="667" type="line"/>
      <point x="432" y="627" type="line"/>
      <point x="496" y="628" type="line"/>
      <point x="132" y="113" type="line" smooth="yes"/>
      <point x="83" y="44"/>
      <point x="72" y="39"/>
      <point x="45" y="39" type="curve" smooth="yes"/>
      <point x="28" y="39" type="line"/>
    </contour>
    <contour>
      <point x="326" y="308" type="line"/>
      <point x="546" y="627" type="line"/>
      <point x="559" y="627"/>
      <point x="564" y="622"/>
      <point x="564" y="602" type="curve" smooth="yes"/>
      <point x="564" y="308" type="line"/>
    </contour>
  </outline>
</glyph>
<glyph name="Ccedilla" format="1">
  <advance width="737"/>
  <unicode hex="00C7"/>
  <outline>
    <contour>
      <point x="54" y="118"/>
      <point x="179" y="-9"/>
      <point x="397" y="-16" type="curve"/>
      <point x="376" y="-79" type="line"/>
      <point x="388" y="-96" type="line"/>
      <point x="395" y="-95"/>
      <point x="401" y="-95"/>
      <point x="408" y="-95" type="curve" smooth="yes"/>
      <point x="442" y="-95"/>
      <point x="482" y="-106"/>
      <point x="482" y="-143" type="curve" smooth="yes"/>
      <point x="482" y="-175"/>
      <point x="463" y="-193"/>
      <point x="434" y="-193" type="curve" smooth="yes"/>
      <point x="415" y="-193"/>
      <point x="385" y="-183"/>
      <point x="385" y="-183" type="curve"/>
      <point x="364" y="-207" type="line"/>
      <point x="364" y="-207"/>
      <point x="381" y="-220"/>
      <point x="429" y="-220" type="curve" smooth="yes"/>
      <point x="481" y="-220"/>
      <point x="537" y="-194"/>
      <point x="537" y="-141" type="curve" smooth="yes"/>
      <point x="537" y="-84"/>
      <point x="478" y="-65"/>
      <point x="422" y="-65" type="curve" smooth="yes"/>
      <point x="416" y="-65"/>
      <point x="411" y="-66"/>
      <point x="405" y="-66" type="curve"/>
      <point x="420" y="-16" type="line"/>
      <point x="566" y="-15"/>
      <point x="683" y="69"/>
      <point x="683" y="69" type="curve"/>
      <point x="689" y="215" type="line"/>
      <point x="654" y="215" type="line"/>
      <point x="651" y="131" type="line" smooth="yes"/>
      <point x="650" y="101"/>
      <point x="544" y="28"/>
      <point x="442" y="28" type="curve" smooth="yes"/>
      <point x="265" y="28"/>
      <point x="139" y="184"/>
      <point x="139" y="343" type="curve" smooth="yes"/>
      <point x="139" y="494"/>
      <point x="251" y="622"/>
      <point x="419" y="622" type="curve" smooth="yes"/>
      <point x="487" y="622"/>
      <point x="556" y="606"/>
      <point x="585" y="591" type="curve" smooth="yes"/>
      <point x="647" y="560"/>
      <point x="634" y="582"/>
      <point x="646" y="483" type="curve"/>
      <point x="682" y="484" type="line"/>
      <point x="676" y="548"/>
      <point x="672" y="612"/>
      <point x="670" y="675" type="curve"/>
      <point x="632" y="675" type="line"/>
      <point x="631" y="644"/>
      <point x="633" y="638"/>
      <point x="616" y="638" type="curve" smooth="yes"/>
      <point x="600" y="638"/>
      <point x="563" y="669"/>
      <point x="416" y="669" type="curve" smooth="yes"/>
      <point x="256" y="669"/>
      <point x="54" y="554"/>
      <point x="54" y="314" type="curve" smooth="yes"/>
    </contour>
  </outline>
</glyph>
<glyph name="Ecircumflex" format="1">
  <advance width="616"/>
  <unicode hex="00CA"/>
  <outline>
    <contour>
      <point x="244" y="746" type="line"/>
      <point x="305" y="818" type="line"/>
      <point x="330" y="789"/>
      <point x="346" y="769"/>
      <point x="367" y="746" type="curve"/>
      <point x="425" y="746" type="line"/>
      <point x="396" y="787"/>
      <point x="376" y="816"/>
      <point x="345" y="865" type="curve"/>
      <point x="286" y="865" type="line"/>
      <point x="251" y="811"/>
      <point x="236" y="788"/>
      <point x="206" y="746" type="curve"/>
    </contour>
    <contour>
      <point x="27" y="667" type="line"/>
      <point x="28" y="627" type="line"/>
      <point x="56" y="627" type="line" smooth="yes"/>
      <point x="120" y="627"/>
      <point x="126" y="625"/>
      <point x="126" y="584" type="curve" smooth="yes"/>
      <point x="126" y="77" type="line" smooth="yes"/>
      <point x="126" y="42"/>
      <point x="124" y="39"/>
      <point x="73" y="39" type="curve" smooth="yes"/>
      <point x="47" y="39" type="line"/>
      <point x="47" y="0" type="line"/>
      <point x="554" y="0" type="line"/>
      <point x="579" y="155" type="line"/>
      <point x="545" y="160" type="line"/>
      <point x="541" y="139"/>
      <point x="536" y="99"/>
      <point x="529" y="76" type="curve" smooth="yes"/>
      <point x="522" y="50"/>
      <point x="531" y="49"/>
      <point x="239" y="46" type="curve" smooth="yes"/>
      <point x="213" y="46"/>
      <point x="207" y="52"/>
      <point x="207" y="87" type="curve" smooth="yes"/>
      <point x="207" y="323" type="line" smooth="yes"/>
      <point x="207" y="349"/>
      <point x="209" y="354"/>
      <point x="243" y="354" type="curve" smooth="yes"/>
      <point x="393" y="354" type="line" smooth="yes"/>
      <point x="426" y="354"/>
      <point x="429" y="354"/>
      <point x="429" y="298" type="curve" smooth="yes"/>
      <point x="429" y="246" type="line"/>
      <point x="466" y="246" type="line"/>
      <point x="466" y="485" type="line"/>
      <point x="429" y="486" type="line"/>
      <point x="429" y="448" type="line" smooth="yes"/>
      <point x="429" y="402"/>
      <point x="426" y="398"/>
      <point x="391" y="398" type="curve" smooth="yes"/>
      <point x="240" y="398" type="line" smooth="yes"/>
      <point x="208" y="398"/>
      <point x="207" y="401"/>
      <point x="207" y="438" type="curve" smooth="yes"/>
      <point x="207" y="577" type="line" smooth="yes"/>
      <point x="207" y="622"/>
      <point x="210" y="624"/>
      <point x="265" y="624" type="curve" smooth="yes"/>
      <point x="435" y="624" type="line" smooth="yes"/>
      <point x="456" y="624"/>
      <point x="474" y="624"/>
      <point x="484" y="623" type="curve"/>
      <point x="498" y="621"/>
      <point x="504" y="611"/>
      <point x="508" y="508" type="curve"/>
      <point x="547" y="510" type="line"/>
      <point x="544" y="567"/>
      <point x="543" y="610"/>
      <point x="542" y="667" type="curve"/>
    </contour>
  </outline>
</glyph>
<glyph name="Edieresis" format="1">
  <advance width="616"/>
  <unicode hex="00CB"/>
  <outline>
    <contour>
      <point x="193" y="794"/>
      <point x="223" y="766"/>
      <point x="234" y="766" type="curve" smooth="yes"/>
      <point x="247" y="766"/>
      <point x="278" y="792"/>
      <point x="278" y="808" type="curve" smooth="yes"/>
      <point x="278" y="819"/>
      <point x="255" y="853"/>
      <point x="237" y="853" type="curve" smooth="yes"/>
      <point x="227" y="853"/>
      <point x="193" y="825"/>
      <point x="193" y="811" type="curve" smooth="yes"/>
    </contour>
    <contour>
      <point x="340" y="794"/>
      <point x="370" y="766"/>
      <point x="381" y="766" type="curve" smooth="yes"/>
      <point x="394" y="766"/>
      <point x="425" y="792"/>
      <point x="425" y="808" type="curve" smooth="yes"/>
      <point x="425" y="819"/>
      <point x="401" y="853"/>
      <point x="383" y="853" type="curve" smooth="yes"/>
      <point x="373" y="853"/>
      <point x="340" y="825"/>
      <point x="340" y="811" type="curve" smooth="yes"/>
    </contour>
    <contour>
      <point x="27" y="667" type="line"/>
      <point x="28" y="627" type="line"/>
      <point x="56" y="627" type="line" smooth="yes"/>
      <point x="120" y="627"/>
      <point x="126" y="625"/>
      <point x="126" y="584" type="curve" smooth="yes"/>
      <point x="126" y="77" type="line" smooth="yes"/>
      <point x="126" y="42"/>
      <point x="124" y="39"/>
      <point x="73" y="39" type="curve" smooth="yes"/>
      <point x="47" y="39" type="line"/>
      <point x="47" y="0" type="line"/>
      <point x="554" y="0" type="line"/>
      <point x="579" y="155" type="line"/>
      <point x="545" y="160" type="line"/>
      <point x="541" y="139"/>
      <point x="536" y="99"/>
      <point x="529" y="76" type="curve" smooth="yes"/>
      <point x="522" y="50"/>
      <point x="531" y="49"/>
      <point x="239" y="46" type="curve" smooth="yes"/>
      <point x="213" y="46"/>
      <point x="207" y="52"/>
      <point x="207" y="87" type="curve" smooth="yes"/>
      <point x="207" y="323" type="line" smooth="yes"/>
      <point x="207" y="349"/>
      <point x="209" y="354"/>
      <point x="243" y="354" type="curve" smooth="yes"/>
      <point x="393" y="354" type="line" smooth="yes"/>
      <point x="426" y="354"/>
      <point x="429" y="354"/>
      <point x="429" y="298" type="curve" smooth="yes"/>
      <point x="429" y="246" type="line"/>
      <point x="466" y="246" type="line"/>
      <point x="466" y="485" type="line"/>
      <point x="429" y="486" type="line"/>
      <point x="429" y="448" type="line" smooth="yes"/>
      <point x="429" y="402"/>
      <point x="426" y="398"/>
      <point x="391" y="398" type="curve" smooth="yes"/>
      <point x="240" y="398" type="line" smooth="yes"/>
      <point x="208" y="398"/>
      <point x="207" y="401"/>
      <point x="207" y="438" type="curve" smooth="yes"/>
      <point x="207" y="577" type="line" smooth="yes"/>
      <point x="207" y="622"/>
      <point x="210" y="624"/>
      <point x="265" y="624" type="curve" smooth="yes"/>
      <point x="435" y="624" type="line" smooth="yes"/>
      <point x="456" y="624"/>
      <point x="474" y="624"/>
      <point x="484" y="623" type="curve"/>
      <point x="498" y="621"/>
      <point x="504" y="611"/>
      <point x="508" y="508" type="curve"/>
      <point x="547" y="510" type="line"/>
      <point x="544" y="567"/>
      <point x="543" y="610"/>
      <point x="542" y="667" type="curve"/>
    </contour>
  </outline>
</glyph>
<glyph name="Iacute" format="1">
  <advance width="322"/>
  <unicode hex="00CD"/>
  <outline>
    <contour>
      <point x="134" y="727" type="line"/>
      <point x="170" y="727" type="line"/>
      <point x="256" y="869" type="line"/>
      <point x="186" y="869" type="line"/>
    </contour>
    <contour>
      <point x="27" y="627" type="line"/>
      <point x="69" y="627" type="line" smooth="yes"/>
      <point x="118" y="627"/>
      <point x="120" y="625"/>
      <point x="120" y="591" type="curve" smooth="yes"/>
      <point x="120" y="83" type="line" smooth="yes"/>
      <point x="120" y="43"/>
      <point x="117" y="39"/>
      <point x="64" y="39" type="curve" smooth="yes"/>
      <point x="38" y="39" type="line"/>
      <point x="39" y="0" type="line"/>
      <point x="295" y="0" type="line"/>
      <point x="294" y="39" type="line"/>
      <point x="255" y="39" type="line" smooth="yes"/>
      <point x="205" y="39"/>
      <point x="201" y="43"/>
      <point x="201" y="85" type="curve" smooth="yes"/>
      <point x="201" y="581" type="line" smooth="yes"/>
      <point x="201" y="626"/>
      <point x="209" y="627"/>
      <point x="262" y="627" type="curve" smooth="yes"/>
      <point x="279" y="627" type="line"/>
      <point x="279" y="667" type="line"/>
      <point x="28" y="667" type="line"/>
    </contour>
  </outline>
</glyph>
<glyph name="Icircumflex" format="1">
  <advance width="322"/>
  <unicode hex="00CE"/>
  <outline>
    <contour>
      <point x="93" y="746" type="line"/>
      <point x="154" y="818" type="line"/>
      <point x="179" y="789"/>
      <point x="195" y="769"/>
      <point x="216" y="746" type="curve"/>
      <point x="274" y="746" type="line"/>
      <point x="245" y="787"/>
      <point x="225" y="816"/>
      <point x="194" y="865" type="curve"/>
      <point x="135" y="865" type="line"/>
      <point x="100" y="811"/>
      <point x="85" y="788"/>
      <point x="55" y="746" type="curve"/>
    </contour>
    <contour>
      <point x="27" y="627" type="line"/>
      <point x="69" y="627" type="line" smooth="yes"/>
      <point x="118" y="627"/>
      <point x="120" y="625"/>
      <point x="120" y="591" type="curve" smooth="yes"/>
      <point x="120" y="83" type="line" smooth="yes"/>
      <point x="120" y="43"/>
      <point x="117" y="39"/>
      <point x="64" y="39" type="curve" smooth="yes"/>
      <point x="38" y="39" type="line"/>
      <point x="39" y="0" type="line"/>
      <point x="295" y="0" type="line"/>
      <point x="294" y="39" type="line"/>
      <point x="255" y="39" type="line" smooth="yes"/>
      <point x="205" y="39"/>
      <point x="201" y="43"/>
      <point x="201" y="85" type="curve" smooth="yes"/>
      <point x="201" y="581" type="line" smooth="yes"/>
      <point x="201" y="626"/>
      <point x="209" y="627"/>
      <point x="262" y="627" type="curve" smooth="yes"/>
      <point x="279" y="627" type="line"/>
      <point x="279" y="667" type="line"/>
      <point x="28" y="667" type="line"/>
    </contour>
  </outline>
</glyph>
<glyph name="Idieresis" format="1">
  <advance width="322"/>
  <unicode hex="00CF"/>
  <outline>
    <contour>
      <point x="42" y="794"/>
      <point x="72" y="766"/>
      <point x="83" y="766" type="curve" smooth="yes"/>
      <point x="96" y="766"/>
      <point x="127" y="792"/>
      <point x="127" y="808" type="curve" smooth="yes"/>
      <point x="127" y="819"/>
      <point x="104" y="853"/>
      <point x="86" y="853" type="curve" smooth="yes"/>
      <point x="76" y="853"/>
      <point x="42" y="825"/>
      <point x="42" y="811" type="curve" smooth="yes"/>
    </contour>
    <contour>
      <point x="189" y="794"/>
      <point x="219" y="766"/>
      <point x="230" y="766" type="curve" smooth="yes"/>
      <point x="243" y="766"/>
      <point x="274" y="792"/>
      <point x="274" y="808" type="curve" smooth="yes"/>
      <point x="274" y="819"/>
      <point x="250" y="853"/>
      <point x="232" y="853" type="curve" smooth="yes"/>
      <point x="222" y="853"/>
      <point x="189" y="825"/>
      <point x="189" y="811" type="curve" smooth="yes"/>
    </contour>
    <contour>
      <point x="27" y="627" type="line"/>
      <point x="69" y="627" type="line" smooth="yes"/>
      <point x="118" y="627"/>
      <point x="120" y="625"/>
      <point x="120" y="591" type="curve" smooth="yes"/>
      <point x="120" y="83" type="line" smooth="yes"/>
      <point x="120" y="43"/>
      <point x="117" y="39"/>
      <point x="64" y="39" type="curve" smooth="yes"/>
      <point x="38" y="39" type="line"/>
      <point x="39" y="0" type="line"/>
      <point x="295" y="0" type="line"/>
      <point x="294" y="39" type="line"/>
      <point x="255" y="39" type="line" smooth="yes"/>
      <point x="205" y="39"/>
      <point x="201" y="43"/>
      <point x="201" y="85" type="curve" smooth="yes"/>
      <point x="201" y="581" type="line" smooth="yes"/>
      <point x="201" y="626"/>
      <point x="209" y="627"/>
      <point x="262" y="627" type="curve" smooth="yes"/>
      <point x="279" y="627" type="line"/>
      <point x="279" y="667" type="line"/>
      <point x="28" y="667" type="line"/>
    </contour>
  </outline>
</glyph>
<glyph name="Ntilde" format="1">
  <advance width="744"/>
  <unicode hex="00D1"/>
  <outline>
    <contour>
      <point x="269" y="749" type="line"/>
      <point x="269" y="749"/>
      <point x="280" y="801"/>
      <point x="315" y="801" type="curve" smooth="yes"/>
      <point x="331" y="801"/>
      <point x="347" y="796"/>
      <point x="357" y="791" type="curve" smooth="yes"/>
      <point x="388" y="776" type="line" smooth="yes"/>
      <point x="399" y="771"/>
      <point x="410" y="767"/>
      <point x="424" y="767" type="curve" smooth="yes"/>
      <point x="480" y="767"/>
      <point x="499" y="856"/>
      <point x="500" y="861" type="curve"/>
      <point x="486" y="865" type="line"/>
      <point x="486" y="865"/>
      <point x="471" y="820"/>
      <point x="438" y="820" type="curve" smooth="yes"/>
      <point x="427" y="820"/>
      <point x="416" y="824"/>
      <point x="404" y="830" type="curve" smooth="yes"/>
      <point x="374" y="846" type="line" smooth="yes"/>
      <point x="361" y="853"/>
      <point x="347" y="858"/>
      <point x="331" y="858" type="curve" smooth="yes"/>
      <point x="274" y="858"/>
      <point x="255" y="753"/>
      <point x="255" y="753" type="curve"/>
    </contour>
    <contour>
      <point x="27" y="667" type="line"/>
      <point x="28" y="627" type="line"/>
      <point x="106" y="627" type="line"/>
      <point x="116" y="615" type="line"/>
      <point x="116" y="83" type="line" smooth="yes"/>
      <point x="116" y="43"/>
      <point x="110" y="39"/>
      <point x="74" y="39" type="curve" smooth="yes"/>
      <point x="44" y="39" type="line"/>
      <point x="44" y="0" type="line"/>
      <point x="254" y="0" type="line"/>
      <point x="254" y="39" type="line"/>
      <point x="237" y="39" type="line" smooth="yes"/>
      <point x="172" y="39"/>
      <point x="163" y="41"/>
      <point x="163" y="85" type="curve"/>
      <point x="158" y="561" type="line"/>
      <point x="594" y="1" type="line" smooth="yes"/>
      <point x="607" y="-16"/>
      <point x="605" y="-17"/>
      <point x="616" y="-17" type="curve" smooth="yes"/>
      <point x="630" y="-17" type="line" smooth="yes"/>
      <point x="639" y="-17"/>
      <point x="639" y="-10"/>
      <point x="639" y="7" type="curve" smooth="yes"/>
      <point x="639" y="583" type="line" smooth="yes"/>
      <point x="639" y="623"/>
      <point x="654" y="627"/>
      <point x="694" y="627" type="curve" smooth="yes"/>
      <point x="717" y="627" type="line"/>
      <point x="717" y="667" type="line"/>
      <point x="504" y="667" type="line"/>
      <point x="502" y="627" type="line"/>
      <point x="537" y="627" type="line" smooth="yes"/>
      <point x="580" y="627"/>
      <point x="592" y="625"/>
      <point x="592" y="591" type="curve" smooth="yes"/>
      <point x="592" y="138" type="line"/>
      <point x="182" y="667" type="line"/>
    </contour>
  </outline>
</glyph>
<glyph name="Oacute" format="1">
  <advance width="798"/>
  <unicode hex="00D3"/>
  <outline>
    <contour>
      <point x="373" y="727" type="line"/>
      <point x="409" y="727" type="line"/>
      <point x="495" y="869" type="line"/>
      <point x="425" y="869" type="line"/>
    </contour>
    <contour>
      <point x="54" y="155"/>
      <point x="166" y="-16"/>
      <point x="393" y="-16" type="curve" smooth="yes"/>
      <point x="628" y="-16"/>
      <point x="744" y="159"/>
      <point x="744" y="333" type="curve" smooth="yes"/>
      <point x="744" y="565"/>
      <point x="573" y="681"/>
      <point x="401" y="681" type="curve" smooth="yes"/>
      <point x="228" y="681"/>
      <point x="54" y="563"/>
      <point x="54" y="327" type="curve" smooth="yes"/>
    </contour>
    <contour>
      <point x="144" y="578"/>
      <point x="289" y="640"/>
      <point x="380" y="640" type="curve" smooth="yes"/>
      <point x="515" y="640"/>
      <point x="653" y="520"/>
      <point x="653" y="308" type="curve" smooth="yes"/>
      <point x="653" y="119"/>
      <point x="540" y="27"/>
      <point x="420" y="27" type="curve" smooth="yes"/>
      <point x="240" y="27"/>
      <point x="144" y="198"/>
      <point x="144" y="360" type="curve" smooth="yes"/>
    </contour>
  </outline>
</glyph>
<glyph name="Ocircumflex" format="1">
  <advance width="798"/>
  <unicode hex="00D4"/>
  <outline>
    <contour>
      <point x="332" y="746" type="line"/>
      <point x="393" y="818" type="line"/>
      <point x="418" y="789"/>
      <point x="434" y="769"/>
      <point x="455" y="746" type="curve"/>
      <point x="513" y="746" type="line"/>
      <point x="484" y="787"/>
      <point x="464" y="816"/>
      <point x="433" y="865" type="curve"/>
      <point x="374" y="865" type="line"/>
      <point x="339" y="811"/>
      <point x="324" y="788"/>
      <point x="294" y="746" type="curve"/>
    </contour>
    <contour>
      <point x="54" y="155"/>
      <point x="166" y="-16"/>
      <point x="393" y="-16" type="curve" smooth="yes"/>
      <point x="628" y="-16"/>
      <point x="744" y="159"/>
      <point x="744" y="333" type="curve" smooth="yes"/>
      <point x="744" y="565"/>
      <point x="573" y="681"/>
      <point x="401" y="681" type="curve" smooth="yes"/>
      <point x="228" y="681"/>
      <point x="54" y="563"/>
      <point x="54" y="327" type="curve" smooth="yes"/>
    </contour>
    <contour>
      <point x="144" y="578"/>
      <point x="289" y="640"/>
      <point x="380" y="640" type="curve" smooth="yes"/>
      <point x="515" y="640"/>
      <point x="653" y="520"/>
      <point x="653" y="308" type="curve" smooth="yes"/>
      <point x="653" y="119"/>
      <point x="540" y="27"/>
      <point x="420" y="27" type="curve" smooth="yes"/>
      <point x="240" y="27"/>
      <point x="144" y="198"/>
      <point x="144" y="360" type="curve" smooth="yes"/>
    </contour>
  </outline>
</glyph>
<glyph name="Otilde" format="1">
  <advance width="798"/>
  <unicode hex="00D5"/>
  <outline>
    <contour>
      <point x="291" y="749" type="line"/>
      <point x="291" y="749"/>
      <point x="302" y="801"/>
      <point x="337" y="801" type="curve" smooth="yes"/>
      <point x="353" y="801"/>
      <point x="369" y="796"/>
      <point x="379" y="791" type="curve" smooth="yes"/>
      <point x="410" y="776" type="line" smooth="yes"/>
      <point x="421" y="771"/>
      <point x="432" y="767"/>
      <point x="446" y="767" type="curve" smooth="yes"/>
      <point x="502" y="767"/>
      <point x="521" y="856"/>
      <point x="522" y="861" type="curve"/>
      <point x="508" y="865" type="line"/>
      <point x="508" y="865"/>
      <point x="493" y="820"/>
      <point x="460" y="820" type="curve" smooth="yes"/>
      <point x="449" y="820"/>
      <point x="438" y="824"/>
      <point x="426" y="830" type="curve" smooth="yes"/>
      <point x="396" y="846" type="line" smooth="yes"/>
      <point x="383" y="853"/>
      <point x="369" y="858"/>
      <point x="353" y="858" type="curve" smooth="yes"/>
      <point x="296" y="858"/>
      <point x="277" y="753"/>
      <point x="277" y="753" type="curve"/>
    </contour>
    <contour>
      <point x="54" y="155"/>
      <point x="166" y="-16"/>
      <point x="393" y="-16" type="curve" smooth="yes"/>
      <point x="628" y="-16"/>
      <point x="744" y="159"/>
      <point x="744" y="333" type="curve" smooth="yes"/>
      <point x="744" y="565"/>
      <point x="573" y="681"/>
      <point x="401" y="681" type="curve" smooth="yes"/>
      <point x="228" y="681"/>
      <point x="54" y="563"/>
      <point x="54" y="327" type="curve" smooth="yes"/>
    </contour>
    <contour>
      <point x="144" y="578"/>
      <point x="289" y="640"/>
      <point x="380" y="640" type="curve" smooth="yes"/>
      <point x="515" y="640"/>
      <point x="653" y="520"/>
      <point x="653" y="308" type="curve" smooth="yes"/>
      <point x="653" y="119"/>
      <point x="540" y="27"/>
      <point x="420" y="27" type="curve" smooth="yes"/>
      <point x="240" y="27"/>
      <point x="144" y="198"/>
      <point x="144" y="360" type="curve" smooth="yes"/>
    </contour>
  </outline>
</glyph>
<glyph name="Odieresis" format="1">
  <advance width="798"/>
  <unicode hex="00D6"/>
  <outline>
    <contour>
      <point x="281" y="794"/>
      <point x="311" y="766"/>
      <point x="322" y="766" type="curve" smooth="yes"/>
      <point x="335" y="766"/>
      <point x="366" y="792"/>
      <point x="366" y="808" type="curve" smooth="yes"/>
      <point x="366" y="819"/>
      <point x="343" y="853"/>
      <point x="325" y="853" type="curve" smooth="yes"/>
      <point x="315" y="853"/>
      <point x="281" y="825"/>
      <point x="281" y="811" type="curve" smooth="yes"/>
    </contour>
    <contour>
      <point x="428" y="794"/>
      <point x="458" y="766"/>
      <point x="469" y="766" type="curve" smooth="yes"/>
      <point x="482" y="766"/>
      <point x="513" y="792"/>
      <point x="513" y="808" type="curve" smooth="yes"/>
      <point x="513" y="819"/>
      <point x="489" y="853"/>
      <point x="471" y="853" type="curve" smooth="yes"/>
      <point x="461" y="853"/>
      <point x="428" y="825"/>
      <point x="428" y="811" type="curve" smooth="yes"/>
    </contour>
    <contour>
      <point x="54" y="155"/>
      <point x="166" y="-16"/>
      <point x="393" y="-16" type="curve" smooth="yes"/>
      <point x="628" y="-16"/>
      <point x="744" y="159"/>
      <point x="744" y="333" type="curve" smooth="yes"/>
      <point x="744" y="565"/>
      <point x="573" y="681"/>
      <point x="401" y="681" type="curve" smooth="yes"/>
      <point x="228" y="681"/>
      <point x="54" y="563"/>
      <point x="54" y="327" type="curve" smooth="yes"/>
    </contour>
    <contour>
      <point x="144" y="578"/>
      <point x="289" y="640"/>
      <point x="380" y="640" type="curve" smooth="yes"/>
      <point x="515" y="640"/>
      <point x="653" y="520"/>
      <point x="653" y="308" type="curve" smooth="yes"/>
      <point x="653" y="119"/>
      <point x="540" y="27"/>
      <point x="420" y="27" type="curve" smooth="yes"/>
      <point x="240" y="27"/>
      <point x="144" y="198"/>
      <point x="144" y="360" type="curve" smooth="yes"/>
    </contour>
  </outline>
</glyph>
<glyph name="multiply" format="1">
  <advance width="589"/>
  <unicode hex="00D7"/>
  <outline>
    <contour>
      <point x="60" y="42" type="line"/>
      <point x="102" y="1" type="line"/>
      <point x="294" y="200" type="line"/>
      <point x="487" y="1" type="line"/>
      <point x="529" y="42" type="line"/>
      <point x="330" y="235" type="line"/>
      <point x="529" y="428" type="line"/>
      <point x="487" y="469" type="line"/>
      <point x="294" y="270" type="line"/>
      <point x="102" y="469" type="line"/>
      <point x="60" y="428" type="line"/>
      <point x="259" y="235" type="line"/>
    </contour>
  </outline>
</glyph>
<glyph name="Oslash" format="1">
  <advance width="798"/>
  <unicode hex="00D8"/>
  <outline>
    <contour>
      <point x="54" y="213"/>
      <point x="103" y="99"/>
      <point x="202" y="36" type="curve"/>
      <point x="137" y="-77" type="line"/>
      <point x="178" y="-101" type="line"/>
      <point x="244" y="14" type="line"/>
      <point x="286" y="-5"/>
      <point x="336" y="-16"/>
      <point x="393" y="-16" type="curve" smooth="yes"/>
      <point x="628" y="-16"/>
      <point x="744" y="159"/>
      <point x="744" y="333" type="curve" smooth="yes"/>
      <point x="744" y="472"/>
      <point x="682" y="569"/>
      <point x="597" y="625" type="curve"/>
      <point x="637" y="693" type="line"/>
      <point x="596" y="717" type="line"/>
      <point x="555" y="647" type="line"/>
      <point x="507" y="669"/>
      <point x="454" y="681"/>
      <point x="401" y="681" type="curve" smooth="yes"/>
      <point x="228" y="681"/>
      <point x="54" y="563"/>
      <point x="54" y="327" type="curve" smooth="yes"/>
    </contour>
    <contour>
      <point x="144" y="578"/>
      <point x="289" y="640"/>
      <point x="380" y="640" type="curve" smooth="yes"/>
      <point x="430" y="640"/>
      <point x="480" y="624"/>
      <point x="523" y="593" type="curve"/>
      <point x="241" y="103" type="line"/>
      <point x="177" y="168"/>
      <point x="144" y="265"/>
      <point x="144" y="360" type="curve" smooth="yes"/>
    </contour>
    <contour>
      <point x="561" y="561" type="line"/>
      <point x="616" y="504"/>
      <point x="653" y="419"/>
      <point x="653" y="308" type="curve" smooth="yes"/>
      <point x="653" y="119"/>
      <point x="540" y="27"/>
      <point x="420" y="27" type="curve" smooth="yes"/>
      <point x="364" y="27"/>
      <point x="318" y="44"/>
      <point x="278" y="71" type="curve"/>
    </contour>
  </outline>
</glyph>
<glyph name="Ucircumflex" format="1">
  <advance width="721"/>
  <unicode hex="00DB"/>
  <outline>
    <contour>
      <point x="314" y="746" type="line"/>
      <point x="375" y="818" type="line"/>
      <point x="400" y="789"/>
      <point x="416" y="769"/>
      <point x="437" y="746" type="curve"/>
      <point x="495" y="746" type="line"/>
      <point x="466" y="787"/>
      <point x="446" y="816"/>
      <point x="415" y="865" type="curve"/>
      <point x="356" y="865" type="line"/>
      <point x="321" y="811"/>
      <point x="306" y="788"/>
      <point x="276" y="746" type="curve"/>
    </contour>
    <contour>
      <point x="27" y="627" type="line"/>
      <point x="54" y="627" type="line" smooth="yes"/>
      <point x="87" y="627"/>
      <point x="95" y="625"/>
      <point x="95" y="591" type="curve" smooth="yes"/>
      <point x="95" y="215" type="line" smooth="yes"/>
      <point x="95" y="93"/>
      <point x="161" y="-18"/>
      <point x="385" y="-18" type="curve" smooth="yes"/>
      <point x="591" y="-18"/>
      <point x="641" y="99"/>
      <point x="641" y="228" type="curve" smooth="yes"/>
      <point x="641" y="583" type="line" smooth="yes"/>
      <point x="641" y="623"/>
      <point x="649" y="627"/>
      <point x="680" y="627" type="curve" smooth="yes"/>
      <point x="694" y="627" type="line"/>
      <point x="694" y="667" type="line"/>
      <point x="506" y="667" type="line"/>
      <point x="504" y="627" type="line"/>
      <point x="539" y="627" type="line" smooth="yes"/>
      <point x="582" y="627"/>
      <point x="594" y="625"/>
      <point x="594" y="591" type="curve" smooth="yes"/>
      <point x="594" y="267" type="line" smooth="yes"/>
      <point x="594" y="150"/>
      <point x="590" y="40"/>
      <point x="385" y="40" type="curve" smooth="yes"/>
      <point x="187" y="40"/>
      <point x="176" y="187"/>
      <point x="176" y="220" type="curve" smooth="yes"/>
      <point x="176" y="590" type="line" smooth="yes"/>
      <point x="176" y="623"/>
      <point x="194" y="627"/>
      <point x="230" y="627" type="curve" smooth="yes"/>
      <point x="268" y="627" type="line"/>
      <point x="267" y="667" type="line"/>
      <point x="27" y="667" type="line"/>
    </contour>
  </outline>
</glyph>
<glyph name="Udieresis" format="1">
  <advance width="721"/>
  <unicode hex="00DC"/>
  <outline>
    <contour>
      <point x="263" y="794"/>
      <point x="293" y="766"/>
      <point x="304" y="766" type="curve" smooth="yes"/>
      <point x="317" y="766"/>
      <point x="348" y="792"/>
      <point x="348" y="808" type="curve" smooth="yes"/>
      <point x="348" y="819"/>
      <point x="325" y="853"/>
      <point x="307" y="853" type="curve" smooth="yes"/>
      <point x="297" y="853"/>
      <point x="263" y="825"/>
      <point x="263" y="811" type="curve" smooth="yes"/>
    </contour>
    <contour>
      <point x="410" y="794"/>
      <point x="440" y="766"/>
      <point x="451" y="766" type="curve" smooth="yes"/>
      <point x="464" y="766"/>
      <point x="495" y="792"/>
      <point x="495" y="808" type="curve" smooth="yes"/>
      <point x="495" y="819"/>
      <point x="471" y="853"/>
      <point x="453" y="853" type="curve" smooth="yes"/>
      <point x="443" y="853"/>
      <point x="410" y="825"/>
      <point x="410" y="811" type="curve" smooth="yes"/>
    </contour>
    <contour>
      <point x="27" y="627" type="line"/>
      <point x="54" y="627" type="line" smooth="yes"/>
      <point x="87" y="627"/>
      <point x="95" y="625"/>
      <point x="95" y="591" type="curve" smooth="yes"/>
      <point x="95" y="215" type="line" smooth="yes"/>
      <point x="95" y="93"/>
      <point x="161" y="-18"/>
      <point x="385" y="-18" type="curve" smooth="yes"/>
      <point x="591" y="-18"/>
      <point x="641" y="99"/>
      <point x="641" y="228" type="curve" smooth="yes"/>
      <point x="641" y="583" type="line" smooth="yes"/>
      <point x="641" y="623"/>
      <point x="649" y="627"/>
      <point x="680" y="627" type="curve" smooth="yes"/>
      <point x="694" y="627" type="line"/>
      <point x="694" y="667" type="line"/>
      <point x="506" y="667" type="line"/>
      <point x="504" y="627" type="line"/>
      <point x="539" y="627" type="line" smooth="yes"/>
      <point x="582" y="627"/>
      <point x="594" y="625"/>
      <point x="594" y="591" type="curve" smooth="yes"/>
      <point x="594" y="267" type="line" smooth="yes"/>
      <point x="594" y="150"/>
      <point x="590" y="40"/>
      <point x="385" y="40" type="curve" smooth="yes"/>
      <point x="187" y="40"/>
      <point x="176" y="187"/>
      <point x="176" y="220" type="curve" smooth="yes"/>
      <point x="176" y="590" type="line" smooth="yes"/>
      <point x="176" y="623"/>
      <point x="194" y="627"/>
      <point x="230" y="627" type="curve" smooth="yes"/>
      <point x="268" y="627" type="line"/>
      <point x="267" y="667" type="line"/>
      <point x="27" y="667" type="line"/>
    </contour>
  </outline>
</glyph>
<glyph name="Thorn" format="1">
  <advance width="597"/>
  <unicode hex="00DE"/>
  <outline>
    <contour>
      <point x="27" y="627" type="line"/>
      <point x="69" y="627" type="line" smooth="yes"/>
      <point x="118" y="627"/>
      <point x="120" y="625"/>
      <point x="120" y="591" type="curve" smooth="yes"/>
      <point x="120" y="83" type="line" smooth="yes"/>
      <point x="120" y="43"/>
      <point x="115" y="39"/>
      <point x="71" y="39" type="curve" smooth="yes"/>
      <point x="38" y="39" type="line"/>
      <point x="39" y="0" type="line"/>
      <point x="295" y="0" type="line"/>
      <point x="294" y="39" type="line"/>
      <point x="253" y="39" type="line" smooth="yes"/>
      <point x="205" y="39"/>
      <point x="201" y="43"/>
      <point x="201" y="85" type="curve" smooth="yes"/>
      <point x="201" y="162" type="line"/>
      <point x="203" y="162"/>
      <point x="270" y="141"/>
      <point x="342" y="141" type="curve" smooth="yes"/>
      <point x="486" y="141"/>
      <point x="553" y="235"/>
      <point x="553" y="323" type="curve" smooth="yes"/>
      <point x="553" y="403"/>
      <point x="516" y="462"/>
      <point x="468" y="501" type="curve" smooth="yes"/>
      <point x="421" y="539"/>
      <point x="366" y="544"/>
      <point x="263" y="544" type="curve" smooth="yes"/>
      <point x="201" y="544" type="line"/>
      <point x="201" y="581" type="line" smooth="yes"/>
      <point x="201" y="626"/>
      <point x="211" y="627"/>
      <point x="247" y="627" type="curve" smooth="yes"/>
      <point x="279" y="627" type="line"/>
      <point x="279" y="667" type="line"/>
      <point x="28" y="667" type="line"/>
    </contour>
    <contour>
      <point x="201" y="458" type="line" smooth="yes"/>
      <point x="201" y="500"/>
      <point x="208" y="505"/>
      <point x="231" y="505" type="curve" smooth="yes"/>
      <point x="355" y="505"/>
      <point x="459" y="443"/>
      <point x="459" y="325" type="curve" smooth="yes"/>
      <point x="459" y="225"/>
      <point x="400" y="173"/>
      <point x="295" y="173" type="curve" smooth="yes"/>
      <point x="227" y="173"/>
      <point x="201" y="192"/>
      <point x="201" y="192" type="curve"/>
    </contour>
  </outline>
</glyph>
<glyph name="germandbls" format="1">
  <advance width="513"/>
  <unicode hex="00DF"/>
  <outline>
    <contour>
      <point x="17" y="32" type="line"/>
      <point x="18" y="0" type="line"/>
      <point x="192" y="0" type="line"/>
      <point x="192" y="32" type="line"/>
      <point x="176" y="32" type="line" smooth="yes"/>
      <point x="157" y="32"/>
      <point x="150" y="34"/>
      <point x="150" y="62" type="curve" smooth="yes"/>
      <point x="150" y="524" type="line" smooth="yes"/>
      <point x="150" y="548"/>
      <point x="153" y="654"/>
      <point x="203" y="678" type="curve" smooth="yes"/>
      <point x="211" y="682"/>
      <point x="221" y="684"/>
      <point x="232" y="684" type="curve" smooth="yes"/>
      <point x="265" y="684"/>
      <point x="332" y="657"/>
      <point x="332" y="559" type="curve" smooth="yes"/>
      <point x="332" y="504"/>
      <point x="221" y="461"/>
      <point x="221" y="361" type="curve" smooth="yes"/>
      <point x="221" y="282"/>
      <point x="276" y="236"/>
      <point x="294" y="219" type="curve" smooth="yes"/>
      <point x="325" y="189" type="line" smooth="yes"/>
      <point x="379" y="139"/>
      <point x="399" y="103"/>
      <point x="399" y="76" type="curve" smooth="yes"/>
      <point x="399" y="41"/>
      <point x="369" y="26"/>
      <point x="345" y="26" type="curve" smooth="yes"/>
      <point x="301" y="26"/>
      <point x="254" y="60"/>
      <point x="254" y="60" type="curve"/>
      <point x="244" y="124" type="line"/>
      <point x="212" y="121" type="line"/>
      <point x="230" y="-20" type="line"/>
      <point x="260" y="-19" type="line"/>
      <point x="260" y="-19"/>
      <point x="259" y="-11"/>
      <point x="259" y="-8" type="curve" smooth="yes"/>
      <point x="259" y="1"/>
      <point x="262" y="4"/>
      <point x="266" y="4" type="curve" smooth="yes"/>
      <point x="276" y="4"/>
      <point x="296" y="-7"/>
      <point x="335" y="-7" type="curve" smooth="yes"/>
      <point x="455" y="-7"/>
      <point x="471" y="67"/>
      <point x="471" y="103" type="curve" smooth="yes"/>
      <point x="471" y="160"/>
      <point x="431" y="192"/>
      <point x="389" y="233" type="curve" smooth="yes"/>
      <point x="348" y="273" type="line" smooth="yes"/>
      <point x="281" y="339"/>
      <point x="268" y="371"/>
      <point x="268" y="395" type="curve" smooth="yes"/>
      <point x="269" y="470"/>
      <point x="389" y="519"/>
      <point x="389" y="586" type="curve" smooth="yes"/>
      <point x="389" y="653"/>
      <point x="342" y="724"/>
      <point x="261" y="724" type="curve" smooth="yes"/>
      <point x="233" y="724"/>
      <point x="202" y="718"/>
      <point x="178" y="703" type="curve" smooth="yes"/>
      <point x="83" y="644"/>
      <point x="81" y="554"/>
      <point x="81" y="500" type="curve" smooth="yes"/>
      <point x="81" y="392" type="line"/>
      <point x="39" y="392" type="line"/>
      <point x="24" y="344" type="line"/>
      <point x="80" y="344" type="line"/>
      <point x="80" y="59" type="line" smooth="yes"/>
      <point x="80" y="33"/>
      <point x="73" y="32"/>
      <point x="27" y="32" type="curve" smooth="yes"/>
    </contour>
  </outline>
</glyph>
<glyph name="adieresis" format="1">
  <advance width="380"/>
  <unicode hex="00E4"/>
  <outline>
    <contour>
      <point x="64" y="532"/>
      <point x="94" y="504"/>
      <point x="105" y="504" type="curve" smooth="yes"/>
      <point x="118" y="504"/>
      <point x="149" y="530"/>
      <point x="149" y="546" type="curve" smooth="yes"/>
      <point x="149" y="557"/>
      <point x="125" y="591"/>
      <point x="107" y="591" type="curve" smooth="yes"/>
      <point x="97" y="591"/>
      <point x="64" y="563"/>
      <point x="64" y="549" type="curve" smooth="yes"/>
    </contour>
    <contour>
      <point x="210" y="532"/>
      <point x="240" y="504"/>
      <point x="251" y="504" type="curve" smooth="yes"/>
      <point x="264" y="504"/>
      <point x="295" y="530"/>
      <point x="295" y="546" type="curve" smooth="yes"/>
      <point x="295" y="557"/>
      <point x="272" y="591"/>
      <point x="254" y="591" type="curve" smooth="yes"/>
      <point x="244" y="591"/>
      <point x="210" y="563"/>
      <point x="210" y="549" type="curve" smooth="yes"/>
    </contour>
    <contour>
      <point x="27" y="11"/>
      <point x="77" y="-11"/>
      <point x="119" y="-11" type="curve" smooth="yes"/>
      <point x="163" y="-11"/>
      <point x="210" y="18"/>
      <point x="236" y="53" type="curve"/>
      <point x="257" y="27"/>
      <point x="268" y="8"/>
      <point x="303" y="-17" type="curve"/>
      <point x="306" y="-16"/>
      <point x="340" y="4"/>
      <point x="363" y="19" type="curve"/>
      <point x="370" y="23"/>
      <point x="372" y="27"/>
      <point x="372" y="30" type="curve" smooth="yes"/>
      <point x="372" y="33"/>
      <point x="370" y="36"/>
      <point x="363" y="38" type="curve" smooth="yes"/>
      <point x="305" y="54"/>
      <point x="298" y="86"/>
      <point x="298" y="129" type="curve" smooth="yes"/>
      <point x="298" y="316" type="line" smooth="yes"/>
      <point x="298" y="389"/>
      <point x="233" y="396"/>
      <point x="210" y="396" type="curve" smooth="yes"/>
      <point x="66" y="396"/>
      <point x="35" y="306"/>
      <point x="35" y="284" type="curve" smooth="yes"/>
      <point x="35" y="272"/>
      <point x="38" y="248"/>
      <point x="58" y="248" type="curve" smooth="yes"/>
      <point x="66" y="248"/>
      <point x="90" y="258"/>
      <point x="90" y="274" type="curve" smooth="yes"/>
      <point x="90" y="285"/>
      <point x="84" y="300"/>
      <point x="80" y="318" type="curve"/>
      <point x="80" y="318"/>
      <point x="91" y="349"/>
      <point x="161" y="349" type="curve" smooth="yes"/>
      <point x="222" y="349"/>
      <point x="228" y="317"/>
      <point x="228" y="278" type="curve" smooth="yes"/>
      <point x="228" y="218" type="line"/>
      <point x="115" y="218"/>
      <point x="27" y="147"/>
      <point x="27" y="65" type="curve" smooth="yes"/>
    </contour>
    <contour>
      <point x="97" y="138"/>
      <point x="145" y="191"/>
      <point x="228" y="191" type="curve"/>
      <point x="228" y="98" type="line" smooth="yes"/>
      <point x="228" y="76"/>
      <point x="216" y="43"/>
      <point x="157" y="43" type="curve" smooth="yes"/>
      <point x="113" y="43"/>
      <point x="97" y="67"/>
      <point x="97" y="94" type="curve" smooth="yes"/>
    </contour>
  </outline>
</glyph>
<glyph name="aring" format="1">
  <advance width="380"/>
  <unicode hex="00E5"/>
  <outline>
    <contour>
      <point x="101" y="497"/>
      <point x="143" y="466"/>
      <point x="185" y="466" type="curve" smooth="yes"/>
      <point x="227" y="466"/>
      <point x="263" y="502"/>
      <point x="263" y="543" type="curve" smooth="yes"/>
      <point x="263" y="584"/>
      <point x="225" y="623"/>
      <point x="182" y="623" type="curve" smooth="yes"/>
      <point x="140" y="623"/>
      <point x="101" y="577"/>
      <point x="101" y="539" type="curve" smooth="yes"/>
    </contour>
    <contour>
      <point x="135" y="552"/>
      <point x="142" y="591"/>
      <point x="182" y="591" type="curve" smooth="yes"/>
      <point x="200" y="591"/>
      <point x="228" y="582"/>
      <point x="228" y="543" type="curve" smooth="yes"/>
      <point x="228" y="506"/>
      <point x="205" y="496"/>
      <point x="184" y="496" type="curve" smooth="yes"/>
      <point x="155" y="496"/>
      <point x="135" y="512"/>
      <point x="135" y="540" type="curve" smooth="yes"/>
    </contour>
    <contour>
      <point x="27" y="11"/>
      <point x="77" y="-11"/>
      <point x="119" y="-11" type="curve" smooth="yes"/>
      <point x="163" y="-11"/>
      <point x="210" y="18"/>
      <point x="236" y="53" type="curve"/>
      <point x="257" y="27"/>
      <point x="268" y="8"/>
      <point x="303" y="-17" type="curve"/>
      <point x="306" y="-16"/>
      <point x="340" y="4"/>
      <point x="363" y="19" type="curve"/>
      <point x="370" y="23"/>
      <point x="372" y="27"/>
      <point x="372" y="30" type="curve" smooth="yes"/>
      <point x="372" y="33"/>
      <point x="370" y="36"/>
      <point x="363" y="38" type="curve" smooth="yes"/>
      <point x="305" y="54"/>
      <point x="298" y="86"/>
      <point x="298" y="129" type="curve" smooth="yes"/>
      <point x="298" y="316" type="line" smooth="yes"/>
      <point x="298" y="389"/>
      <point x="233" y="396"/>
      <point x="210" y="396" type="curve" smooth="yes"/>
      <point x="66" y="396"/>
      <point x="35" y="306"/>
      <point x="35" y="284" type="curve" smooth="yes"/>
      <point x="35" y="272"/>
      <point x="38" y="248"/>
      <point x="58" y="248" type="curve" smooth="yes"/>
      <point x="66" y="248"/>
      <point x="90" y="258"/>
      <point x="90" y="274" type="curve" smooth="yes"/>
      <point x="90" y="285"/>
      <point x="84" y="300"/>
      <point x="80" y="318" type="curve"/>
      <point x="80" y="318"/>
      <point x="91" y="349"/>
      <point x="161" y="349" type="curve" smooth="yes"/>
      <point x="222" y="349"/>
      <point x="228" y="317"/>
      <point x="228" y="278" type="curve" smooth="yes"/>
      <point x="228" y="218" type="line"/>
      <point x="115" y="218"/>
      <point x="27" y="147"/>
      <point x="27" y="65" type="curve" smooth="yes"/>
    </contour>
    <contour>
      <point x="97" y="138"/>
      <point x="145" y="191"/>
      <point x="228" y="191" type="curve"/>
      <point x="228" y="98" type="line" smooth="yes"/>
      <point x="228" y="76"/>
      <point x="216" y="43"/>
      <point x="157" y="43" type="curve" smooth="yes"/>
      <point x="113" y="43"/>
      <point x="97" y="67"/>
      <point x="97" y="94" type="curve" smooth="yes"/>
    </contour>
  </outline>
</glyph>
<glyph name="ae" format="1">
  <advance width="635"/>
  <unicode hex="00E6"/>
  <outline>
    <contour>
      <point x="32" y="6"/>
      <point x="91" y="-16"/>
      <point x="133" y="-16" type="curve" smooth="yes"/>
      <point x="244" y="-16"/>
      <point x="286" y="79"/>
      <point x="286" y="79" type="curve"/>
      <point x="312" y="30"/>
      <point x="364" y="-13"/>
      <point x="431" y="-13" type="curve" smooth="yes"/>
      <point x="539" y="-13"/>
      <point x="611" y="66"/>
      <point x="611" y="85" type="curve" smooth="yes"/>
      <point x="611" y="94"/>
      <point x="607" y="97"/>
      <point x="602" y="97" type="curve" smooth="yes"/>
      <point x="585" y="97"/>
      <point x="550" y="55"/>
      <point x="471" y="55" type="curve" smooth="yes"/>
      <point x="387" y="55"/>
      <point x="325" y="111"/>
      <point x="325" y="212" type="curve" smooth="yes"/>
      <point x="325" y="228" type="line"/>
      <point x="573" y="256" type="line"/>
      <point x="577" y="256"/>
      <point x="589" y="260"/>
      <point x="589" y="271" type="curve" smooth="yes"/>
      <point x="589" y="312"/>
      <point x="527" y="399"/>
      <point x="428" y="399" type="curve" smooth="yes"/>
      <point x="373" y="399"/>
      <point x="323" y="356"/>
      <point x="307" y="307" type="curve"/>
      <point x="300" y="332"/>
      <point x="291" y="397"/>
      <point x="208" y="397" type="curve" smooth="yes"/>
      <point x="105" y="397"/>
      <point x="58" y="318"/>
      <point x="58" y="284" type="curve" smooth="yes"/>
      <point x="58" y="272"/>
      <point x="61" y="248"/>
      <point x="81" y="248" type="curve" smooth="yes"/>
      <point x="89" y="248"/>
      <point x="112" y="258"/>
      <point x="112" y="274" type="curve" smooth="yes"/>
      <point x="112" y="285"/>
      <point x="107" y="300"/>
      <point x="103" y="318" type="curve"/>
      <point x="103" y="318"/>
      <point x="114" y="349"/>
      <point x="184" y="349" type="curve" smooth="yes"/>
      <point x="255" y="349"/>
      <point x="261" y="304"/>
      <point x="261" y="252" type="curve" smooth="yes"/>
      <point x="261" y="241"/>
      <point x="260" y="229"/>
      <point x="260" y="218" type="curve"/>
      <point x="147" y="218"/>
      <point x="32" y="150"/>
      <point x="32" y="60" type="curve" smooth="yes"/>
    </contour>
    <contour>
      <point x="105" y="132"/>
      <point x="178" y="191"/>
      <point x="261" y="191" type="curve"/>
      <point x="263" y="158"/>
      <point x="270" y="129"/>
      <point x="277" y="101" type="curve"/>
      <point x="277" y="101"/>
      <point x="240" y="41"/>
      <point x="157" y="41" type="curve" smooth="yes"/>
      <point x="131" y="41"/>
      <point x="105" y="55"/>
      <point x="105" y="88" type="curve" smooth="yes"/>
    </contour>
    <contour>
      <point x="329" y="264" type="line"/>
      <point x="340" y="330"/>
      <point x="376" y="365"/>
      <point x="416" y="365" type="curve" smooth="yes"/>
      <point x="475" y="365"/>
      <point x="496" y="283"/>
      <point x="496" y="283" type="curve"/>
    </contour>
  </outline>
</glyph>
<glyph name="ccedilla" format="1">
  <advance width="403"/>
  <unicode hex="00E7"/>
  <outline>
    <contour>
      <point x="24" y="93"/>
      <point x="59" y="-4"/>
      <point x="193" y="-12" type="curve"/>
      <point x="171" y="-79" type="line"/>
      <point x="183" y="-96" type="line"/>
      <point x="190" y="-95"/>
      <point x="196" y="-95"/>
      <point x="203" y="-95" type="curve" smooth="yes"/>
      <point x="237" y="-95"/>
      <point x="277" y="-106"/>
      <point x="277" y="-143" type="curve" smooth="yes"/>
      <point x="277" y="-175"/>
      <point x="258" y="-193"/>
      <point x="229" y="-193" type="curve" smooth="yes"/>
      <point x="210" y="-193"/>
      <point x="180" y="-183"/>
      <point x="180" y="-183" type="curve"/>
      <point x="159" y="-207" type="line"/>
      <point x="159" y="-207"/>
      <point x="176" y="-220"/>
      <point x="224" y="-220" type="curve" smooth="yes"/>
      <point x="276" y="-220"/>
      <point x="332" y="-194"/>
      <point x="332" y="-141" type="curve" smooth="yes"/>
      <point x="332" y="-84"/>
      <point x="273" y="-65"/>
      <point x="217" y="-65" type="curve" smooth="yes"/>
      <point x="211" y="-65"/>
      <point x="206" y="-66"/>
      <point x="200" y="-66" type="curve"/>
      <point x="216" y="-13" type="line"/>
      <point x="298" y="-11"/>
      <point x="378" y="41"/>
      <point x="378" y="62" type="curve" smooth="yes"/>
      <point x="378" y="66"/>
      <point x="376" y="71"/>
      <point x="370" y="71" type="curve" smooth="yes"/>
      <point x="355" y="71"/>
      <point x="332" y="47"/>
      <point x="241" y="47" type="curve" smooth="yes"/>
      <point x="180" y="47"/>
      <point x="95" y="84"/>
      <point x="95" y="206" type="curve" smooth="yes"/>
      <point x="95" y="261"/>
      <point x="114" y="361"/>
      <point x="190" y="361" type="curve" smooth="yes"/>
      <point x="234" y="361"/>
      <point x="268" y="305"/>
      <point x="300" y="305" type="curve" smooth="yes"/>
      <point x="308" y="305"/>
      <point x="361" y="314"/>
      <point x="361" y="335" type="curve" smooth="yes"/>
      <point x="361" y="350"/>
      <point x="302" y="401"/>
      <point x="208" y="401" type="curve" smooth="yes"/>
      <point x="87" y="401"/>
      <point x="24" y="290"/>
      <point x="24" y="182" type="curve" smooth="yes"/>
    </contour>
  </outline>
</glyph>
<glyph name="egrave" format="1">
  <advance width="413"/>
  <unicode hex="00E8"/>
  <outline>
    <contour>
      <point x="101" y="630" type="line"/>
      <point x="187" y="468" type="line"/>
      <point x="223" y="468" type="line"/>
      <point x="171" y="630" type="line"/>
    </contour>
    <contour>
      <point x="24" y="106"/>
      <point x="66" y="-13"/>
      <point x="207" y="-13" type="curve" smooth="yes"/>
      <point x="315" y="-13"/>
      <point x="389" y="71"/>
      <point x="389" y="90" type="curve" smooth="yes"/>
      <point x="389" y="99"/>
      <point x="385" y="102"/>
      <point x="380" y="102" type="curve" smooth="yes"/>
      <point x="363" y="102"/>
      <point x="326" y="55"/>
      <point x="247" y="55" type="curve" smooth="yes"/>
      <point x="163" y="55"/>
      <point x="99" y="111"/>
      <point x="99" y="212" type="curve" smooth="yes"/>
      <point x="99" y="217"/>
      <point x="100" y="223"/>
      <point x="100" y="226" type="curve"/>
      <point x="351" y="256" type="line"/>
      <point x="355" y="256"/>
      <point x="367" y="260"/>
      <point x="367" y="271" type="curve" smooth="yes"/>
      <point x="367" y="306"/>
      <point x="310" y="399"/>
      <point x="201" y="399" type="curve" smooth="yes"/>
      <point x="102" y="399"/>
      <point x="24" y="313"/>
      <point x="24" y="183" type="curve" smooth="yes"/>
    </contour>
    <contour>
      <point x="102" y="261" type="line"/>
      <point x="113" y="327"/>
      <point x="151" y="365"/>
      <point x="191" y="365" type="curve" smooth="yes"/>
      <point x="246" y="365"/>
      <point x="274" y="283"/>
      <point x="274" y="283" type="curve"/>
    </contour>
  </outline>
</glyph>
<glyph name="ecircumflex" format="1">
  <advance width="413"/>
  <unicode hex="00EA"/>
  <outline>
    <contour>
      <point x="137" y="468" type="line"/>
      <point x="158" y="492"/>
      <point x="177" y="527"/>
      <point x="198" y="558" type="curve"/>
      <point x="218" y="529"/>
      <point x="239" y="491"/>
      <point x="260" y="468" type="curve"/>
      <point x="318" y="468" type="line"/>
      <point x="290" y="508"/>
      <point x="265" y="556"/>
      <point x="238" y="605" type="curve"/>
      <point x="179" y="605" type="line"/>
      <point x="149" y="551"/>
      <point x="125" y="508"/>
      <point x="99" y="468" type="curve"/>
    </contour>
    <contour>
      <point x="24" y="106"/>
      <point x="66" y="-13"/>
      <point x="207" y="-13" type="curve" smooth="yes"/>
      <point x="315" y="-13"/>
      <point x="389" y="71"/>
      <point x="389" y="90" type="curve" smooth="yes"/>
      <point x="389" y="99"/>
      <point x="385" y="102"/>
      <point x="380" y="102" type="curve" smooth="yes"/>
      <point x="363" y="102"/>
      <point x="326" y="55"/>
      <point x="247" y="55" type="curve" smooth="yes"/>
      <point x="163" y="55"/>
      <point x="99" y="111"/>
      <point x="99" y="212" type="curve" smooth="yes"/>
      <point x="99" y="217"/>
      <point x="100" y="223"/>
      <point x="100" y="226" type="curve"/>
      <point x="351" y="256" type="line"/>
      <point x="355" y="256"/>
      <point x="367" y="260"/>
      <point x="367" y="271" type="curve" smooth="yes"/>
      <point x="367" y="306"/>
      <point x="310" y="399"/>
      <point x="201" y="399" type="curve" smooth="yes"/>
      <point x="102" y="399"/>
      <point x="24" y="313"/>
      <point x="24" y="183" type="curve" smooth="yes"/>
    </contour>
    <contour>
      <point x="102" y="261" type="line"/>
      <point x="113" y="327"/>
      <point x="151" y="365"/>
      <point x="191" y="365" type="curve" smooth="yes"/>
      <point x="246" y="365"/>
      <point x="274" y="283"/>
      <point x="274" y="283" type="curve"/>
    </contour>
  </outline>
</glyph>
<glyph name="edieresis" format="1">
  <advance width="413"/>
  <unicode hex="00EB"/>
  <outline>
    <contour>
      <point x="89" y="532"/>
      <point x="119" y="504"/>
      <point x="130" y="504" type="curve" smooth="yes"/>
      <point x="143" y="504"/>
      <point x="174" y="530"/>
      <point x="174" y="546" type="curve" smooth="yes"/>
      <point x="174" y="557"/>
      <point x="150" y="591"/>
      <point x="132" y="591" type="curve" smooth="yes"/>
      <point x="122" y="591"/>
      <point x="89" y="563"/>
      <point x="89" y="549" type="curve" smooth="yes"/>
    </contour>
    <contour>
      <point x="235" y="532"/>
      <point x="265" y="504"/>
      <point x="276" y="504" type="curve" smooth="yes"/>
      <point x="289" y="504"/>
      <point x="320" y="530"/>
      <point x="320" y="546" type="curve" smooth="yes"/>
      <point x="320" y="557"/>
      <point x="297" y="591"/>
      <point x="279" y="591" type="curve" smooth="yes"/>
      <point x="269" y="591"/>
      <point x="235" y="563"/>
      <point x="235" y="549" type="curve" smooth="yes"/>
    </contour>
    <contour>
      <point x="24" y="106"/>
      <point x="66" y="-13"/>
      <point x="207" y="-13" type="curve" smooth="yes"/>
      <point x="315" y="-13"/>
      <point x="389" y="71"/>
      <point x="389" y="90" type="curve" smooth="yes"/>
      <point x="389" y="99"/>
      <point x="385" y="102"/>
      <point x="380" y="102" type="curve" smooth="yes"/>
      <point x="363" y="102"/>
      <point x="326" y="55"/>
      <point x="247" y="55" type="curve" smooth="yes"/>
      <point x="163" y="55"/>
      <point x="99" y="111"/>
      <point x="99" y="212" type="curve" smooth="yes"/>
      <point x="99" y="217"/>
      <point x="100" y="223"/>
      <point x="100" y="226" type="curve"/>
      <point x="351" y="256" type="line"/>
      <point x="355" y="256"/>
      <point x="367" y="260"/>
      <point x="367" y="271" type="curve" smooth="yes"/>
      <point x="367" y="306"/>
      <point x="310" y="399"/>
      <point x="201" y="399" type="curve" smooth="yes"/>
      <point x="102" y="399"/>
      <point x="24" y="313"/>
      <point x="24" y="183" type="curve" smooth="yes"/>
    </contour>
    <contour>
      <point x="102" y="261" type="line"/>
      <point x="113" y="327"/>
      <point x="151" y="365"/>
      <point x="191" y="365" type="curve" smooth="yes"/>
      <point x="246" y="365"/>
      <point x="274" y="283"/>
      <point x="274" y="283" type="curve"/>
    </contour>
  </outline>
</glyph>
<glyph name="iacute" format="1">
  <advance width="265"/>
  <unicode hex="00ED"/>
  <outline>
    <contour>
      <point x="103" y="468" type="line"/>
      <point x="139" y="468" type="line"/>
      <point x="225" y="630" type="line"/>
      <point x="155" y="630" type="line"/>
    </contour>
    <contour>
      <point x="28" y="346" type="line"/>
      <point x="59" y="352"/>
      <point x="78" y="354"/>
      <point x="83" y="354" type="curve" smooth="yes"/>
      <point x="94" y="354"/>
      <point x="98" y="348"/>
      <point x="98" y="322" type="curve" smooth="yes"/>
      <point x="98" y="55" type="line" smooth="yes"/>
      <point x="98" y="34"/>
      <point x="90" y="32"/>
      <point x="40" y="32" type="curve" smooth="yes"/>
      <point x="31" y="32" type="line"/>
      <point x="31" y="0" type="line"/>
      <point x="248" y="0" type="line"/>
      <point x="248" y="32" type="line"/>
      <point x="230" y="32" type="line" smooth="yes"/>
      <point x="171" y="32"/>
      <point x="168" y="35"/>
      <point x="168" y="59" type="curve" smooth="yes"/>
      <point x="168" y="406" type="line"/>
      <point x="113" y="391"/>
      <point x="71" y="383"/>
      <point x="27" y="376" type="curve"/>
    </contour>
  </outline>
</glyph>
<glyph name="icircumflex" format="1">
  <advance width="265"/>
  <unicode hex="00EE"/>
  <outline>
    <contour>
      <point x="62" y="468" type="line"/>
      <point x="83" y="492"/>
      <point x="102" y="527"/>
      <point x="123" y="558" type="curve"/>
      <point x="143" y="529"/>
      <point x="164" y="491"/>
      <point x="185" y="468" type="curve"/>
      <point x="243" y="468" type="line"/>
      <point x="215" y="508"/>
      <point x="190" y="556"/>
      <point x="163" y="605" type="curve"/>
      <point x="104" y="605" type="line"/>
      <point x="74" y="551"/>
      <point x="50" y="508"/>
      <point x="24" y="468" type="curve"/>
    </contour>
    <contour>
      <point x="28" y="346" type="line"/>
      <point x="59" y="352"/>
      <point x="78" y="354"/>
      <point x="83" y="354" type="curve" smooth="yes"/>
      <point x="94" y="354"/>
      <point x="98" y="348"/>
      <point x="98" y="322" type="curve" smooth="yes"/>
      <point x="98" y="55" type="line" smooth="yes"/>
      <point x="98" y="34"/>
      <point x="90" y="32"/>
      <point x="40" y="32" type="curve" smooth="yes"/>
      <point x="31" y="32" type="line"/>
      <point x="31" y="0" type="line"/>
      <point x="248" y="0" type="line"/>
      <point x="248" y="32" type="line"/>
      <point x="230" y="32" type="line" smooth="yes"/>
      <point x="171" y="32"/>
      <point x="168" y="35"/>
      <point x="168" y="59" type="curve" smooth="yes"/>
      <point x="168" y="406" type="line"/>
      <point x="113" y="391"/>
      <point x="71" y="383"/>
      <point x="27" y="376" type="curve"/>
    </contour>
  </outline>
</glyph>
<glyph name="idieresis" format="1">
  <advance width="265"/>
  <unicode hex="00EF"/>
  <outline>
    <contour>
      <point x="24" y="532"/>
      <point x="54" y="504"/>
      <point x="65" y="504" type="curve" smooth="yes"/>
      <point x="78" y="504"/>
      <point x="109" y="530"/>
      <point x="109" y="546" type="curve" smooth="yes"/>
      <point x="109" y="557"/>
      <point x="85" y="591"/>
      <point x="67" y="591" type="curve" smooth="yes"/>
      <point x="57" y="591"/>
      <point x="24" y="563"/>
      <point x="24" y="549" type="curve" smooth="yes"/>
    </contour>
    <contour>
      <point x="151" y="532"/>
      <point x="181" y="504"/>
      <point x="192" y="504" type="curve" smooth="yes"/>
      <point x="205" y="504"/>
      <point x="236" y="530"/>
      <point x="236" y="546" type="curve" smooth="yes"/>
      <point x="236" y="557"/>
      <point x="212" y="591"/>
      <point x="194" y="591" type="curve" smooth="yes"/>
      <point x="184" y="591"/>
      <point x="151" y="563"/>
      <point x="151" y="549" type="curve" smooth="yes"/>
    </contour>
    <contour>
      <point x="28" y="346" type="line"/>
      <point x="59" y="352"/>
      <point x="78" y="354"/>
      <point x="83" y="354" type="curve" smooth="yes"/>
      <point x="94" y="354"/>
      <point x="98" y="348"/>
      <point x="98" y="322" type="curve" smooth="yes"/>
      <point x="98" y="55" type="line" smooth="yes"/>
      <point x="98" y="34"/>
      <point x="90" y="32"/>
      <point x="40" y="32" type="curve" smooth="yes"/>
      <point x="31" y="32" type="line"/>
      <point x="31" y="0" type="line"/>
      <point x="248" y="0" type="line"/>
      <point x="248" y="32" type="line"/>
      <point x="230" y="32" type="line" smooth="yes"/>
      <point x="171" y="32"/>
      <point x="168" y="35"/>
      <point x="168" y="59" type="curve" smooth="yes"/>
      <point x="168" y="406" type="line"/>
      <point x="113" y="391"/>
      <point x="71" y="383"/>
      <point x="27" y="376" type="curve"/>
    </contour>
  </outline>
</glyph>
<glyph name="eth" format="1">
  <advance width="460"/>
  <unicode hex="00F0"/>
  <outline>
    <contour>
      <point x="25" y="88"/>
      <point x="93" y="-15"/>
      <point x="239" y="-15" type="curve" smooth="yes"/>
      <point x="317" y="-15"/>
      <point x="435" y="44"/>
      <point x="435" y="214" type="curve" smooth="yes"/>
      <point x="435" y="325"/>
      <point x="408" y="446"/>
      <point x="311" y="579" type="curve"/>
      <point x="332" y="588"/>
      <point x="367" y="607"/>
      <point x="418" y="625" type="curve"/>
      <point x="382" y="658" type="line"/>
      <point x="372" y="655"/>
      <point x="281" y="614"/>
      <point x="281" y="614" type="curve"/>
      <point x="226" y="679"/>
      <point x="159" y="717"/>
      <point x="159" y="717" type="curve" smooth="yes"/>
      <point x="89" y="717" type="line"/>
      <point x="142" y="684"/>
      <point x="193" y="644"/>
      <point x="230" y="591" type="curve"/>
      <point x="113" y="536" type="line"/>
      <point x="148" y="499" type="line"/>
      <point x="190" y="522"/>
      <point x="215" y="533"/>
      <point x="260" y="555" type="curve"/>
      <point x="260" y="555"/>
      <point x="330" y="455"/>
      <point x="344" y="353" type="curve"/>
      <point x="315" y="370"/>
      <point x="283" y="397"/>
      <point x="216" y="397" type="curve" smooth="yes"/>
      <point x="92" y="397"/>
      <point x="25" y="295"/>
      <point x="25" y="191" type="curve" smooth="yes"/>
    </contour>
    <contour>
      <point x="105" y="288"/>
      <point x="153" y="364"/>
      <point x="224" y="364" type="curve" smooth="yes"/>
      <point x="290" y="364"/>
      <point x="353" y="301"/>
      <point x="353" y="301" type="curve" smooth="yes"/>
      <point x="353" y="301"/>
      <point x="363" y="249"/>
      <point x="363" y="215" type="curve" smooth="yes"/>
      <point x="363" y="55"/>
      <point x="296" y="26"/>
      <point x="251" y="26" type="curve" smooth="yes"/>
      <point x="159" y="26"/>
      <point x="105" y="115"/>
      <point x="105" y="204" type="curve" smooth="yes"/>
    </contour>
  </outline>
</glyph>
<glyph name="ntilde" format="1">
  <advance width="463"/>
  <unicode hex="00F1"/>
  <outline>
    <contour>
      <point x="126" y="480" type="line"/>
      <point x="126" y="480"/>
      <point x="136" y="532"/>
      <point x="171" y="532" type="curve" smooth="yes"/>
      <point x="187" y="532"/>
      <point x="203" y="527"/>
      <point x="213" y="522" type="curve" smooth="yes"/>
      <point x="244" y="506" type="line"/>
      <point x="255" y="501"/>
      <point x="267" y="498"/>
      <point x="281" y="498" type="curve" smooth="yes"/>
      <point x="337" y="498"/>
      <point x="356" y="587"/>
      <point x="357" y="592" type="curve"/>
      <point x="342" y="595" type="line"/>
      <point x="342" y="595"/>
      <point x="327" y="551"/>
      <point x="294" y="551" type="curve" smooth="yes"/>
      <point x="283" y="551"/>
      <point x="273" y="555"/>
      <point x="261" y="561" type="curve" smooth="yes"/>
      <point x="231" y="577" type="line" smooth="yes"/>
      <point x="218" y="584"/>
      <point x="204" y="588"/>
      <point x="188" y="588" type="curve" smooth="yes"/>
      <point x="131" y="588"/>
      <point x="112" y="483"/>
      <point x="112" y="483" type="curve"/>
    </contour>
    <contour>
      <point x="17" y="32" type="line"/>
      <point x="18" y="0" type="line"/>
      <point x="213" y="0" type="line"/>
      <point x="215" y="32" type="line"/>
      <point x="202" y="32" type="line" smooth="yes"/>
      <point x="142" y="32"/>
      <point x="142" y="35"/>
      <point x="142" y="66" type="curve" smooth="yes"/>
      <point x="142" y="307" type="line"/>
      <point x="142" y="307"/>
      <point x="202" y="339"/>
      <point x="250" y="339" type="curve" smooth="yes"/>
      <point x="295" y="339"/>
      <point x="315" y="320"/>
      <point x="315" y="263" type="curve" smooth="yes"/>
      <point x="315" y="62" type="line" smooth="yes"/>
      <point x="315" y="34"/>
      <point x="309" y="32"/>
      <point x="281" y="32" type="curve" smooth="yes"/>
      <point x="258" y="32" type="line"/>
      <point x="259" y="0" type="line"/>
      <point x="445" y="0" type="line"/>
      <point x="446" y="32" type="line"/>
      <point x="399" y="32"/>
      <point x="385" y="32"/>
      <point x="385" y="62" type="curve" smooth="yes"/>
      <point x="385" y="234" type="line" smooth="yes"/>
      <point x="385" y="313"/>
      <point x="384" y="395"/>
      <point x="290" y="395" type="curve" smooth="yes"/>
      <point x="210" y="395"/>
      <point x="155" y="338"/>
      <point x="139" y="331" type="curve"/>
      <point x="139" y="368"/>
      <point x="140" y="378"/>
      <point x="142" y="402" type="curve"/>
      <point x="19" y="377" type="line"/>
      <point x="19" y="346" type="line"/>
      <point x="46" y="352"/>
      <point x="49" y="354"/>
      <point x="57" y="354" type="curve" smooth="yes"/>
      <point x="71" y="354"/>
      <point x="72" y="345"/>
      <point x="72" y="304" type="curve" smooth="yes"/>
      <point x="72" y="66" type="line" smooth="yes"/>
      <point x="72" y="34"/>
      <point x="72" y="32"/>
      <point x="27" y="32" type="curve" smooth="yes"/>
    </contour>
  </outline>
</glyph>
<glyph name="ocircumflex" format="1">
  <advance width="458"/>
  <unicode hex="00F4"/>
  <outline>
    <contour>
      <point x="159" y="468" type="line"/>
      <point x="180" y="492"/>
      <point x="199" y="527"/>
      <point x="220" y="558" type="curve"/>
      <point x="240" y="529"/>
      <point x="261" y="491"/>
      <point x="282" y="468" type="curve"/>
      <point x="340" y="468" type="line"/>
      <point x="312" y="508"/>
      <point x="287" y="556"/>
      <point x="260" y="605" type="curve"/>
      <point x="201" y="605" type="line"/>
      <point x="171" y="551"/>
      <point x="147" y="508"/>
      <point x="121" y="468" type="curve"/>
    </contour>
    <contour>
      <point x="25" y="94"/>
      <point x="90" y="-15"/>
      <point x="225" y="-15" type="curve" smooth="yes"/>
      <point x="353" y="-15"/>
      <point x="433" y="72"/>
      <point x="433" y="184" type="curve" smooth="yes"/>
      <point x="433" y="272"/>
      <point x="391" y="401"/>
      <point x="223" y="401" type="curve" smooth="yes"/>
      <point x="86" y="401"/>
      <point x="25" y="299"/>
      <point x="25" y="195" type="curve" smooth="yes"/>
    </contour>
    <contour>
      <point x="105" y="317"/>
      <point x="156" y="367"/>
      <point x="214" y="367" type="curve" smooth="yes"/>
      <point x="286" y="367"/>
      <point x="349" y="308"/>
      <point x="349" y="187" type="curve" smooth="yes"/>
      <point x="349" y="104"/>
      <point x="320" y="24"/>
      <point x="238" y="24" type="curve" smooth="yes"/>
      <point x="156" y="24"/>
      <point x="105" y="127"/>
      <point x="105" y="219" type="curve" smooth="yes"/>
    </contour>
  </outline>
</glyph>
